0
SECTION
2
HEADER
9
$INSUNITS
70
4
9
$ACADVER
1
AC1014
9
$HANDSEED
5
FFFF
0
ENDSEC
0
SECTION
2
TABLES
0
TABLE
2
VPORT
5
8
100
AcDbSymbolTable
0
ENDTAB
0
TABLE
2
LTYPE
5
5
100
AcDbSymbolTable
0
LTYPE
5
14
100
AcDbSymbolTableRecord
100
AcDbLinetypeTableRecord
2
BYBLOCK
70
0
0
LTYPE
5
15
100
AcDbSymbolTableRecord
100
AcDbLinetypeTableRecord
2
BYLAYER
70
0
0
ENDTAB
0
TABLE
2
LAYER
5
2
100
AcDbSymbolTable
70
2
0
LAYER
5
50
100
AcDbSymbolTableRecord
100
AcDbLayerTableRecord
2
0
70
0
6
CONTINUOUS
0
ENDTAB
0
TABLE
2
STYLE
5
3
100
AcDbSymbolTable
70
1
0
STYLE
5
11
100
AcDbSymbolTableRecord
100
AcDbTextStyleTableRecord
2
STANDARD
70
0
0
ENDTAB
0
TABLE
2
VIEW
5
6
100
AcDbSymbolTable
70
0
0
ENDTAB
0
TABLE
2
UCS
5
7
100
AcDbSymbolTable
70
0
0
ENDTAB
0
TABLE
2
APPID
5
9
100
AcDbSymbolTable
70
2
0
APPID
5
12
100
AcDbSymbolTableRecord
100
AcDbRegAppTableRecord
2
ACAD
70
0
0
ENDTAB
0
TABLE
2
DIMSTYLE
5
A
100
AcDbSymbolTable
70
1
0
ENDTAB
0
TABLE
2
BLOCK_RECORD
5
1
100
AcDbSymbolTable
70
1
0
BLOCK_RECORD
5
1F
100
AcDbSymbolTableRecord
100
AcDbBlockTableRecord
2
*MODEL_SPACE
0
BLOCK_RECORD
5
1B
100
AcDbSymbolTableRecord
100
AcDbBlockTableRecord
2
*PAPER_SPACE
0
ENDTAB
0
ENDSEC
0
SECTION
2
BLOCKS
0
BLOCK
5
20
100
AcDbEntity
100
AcDbBlockBegin
2
*MODEL_SPACE
0
ENDBLK
5
21
100
AcDbEntity
100
AcDbBlockEnd
0
BLOCK
5
1C
100
AcDbEntity
100
AcDbBlockBegin
2
*PAPER_SPACE
0
ENDBLK
5
1D
100
AcDbEntity
100
AcDbBlockEnd
0
ENDSEC
0
SECTION
2
ENTITIES
0
SPLINE
5
100
100
AcDbEntity
8
0
100
AcDbSpline
70
0
71
3
72
8
73
4
74
0
42
0.000000001
43
0.0000000001
44
0.0000000001
40
0
40
0
40
0
40
0
40
1
40
1
40
1
40
1
10
609.29945822074899
20
213.9700249499993
30
0
10
609.29945822074842
20
214.52230969982963
30
0
10
608.85174297057927
20
214.97002494999873
30
0
10
608.2994582207491
20
214.97002494999904
30
0
0
SPLINE
5
101
100
AcDbEntity
8
0
100
AcDbSpline
70
0
71
3
72
8
73
4
74
0
42
0.000000001
43
0.0000000001
44
0.0000000001
40
0
40
0
40
0
40
0
40
1
40
1
40
1
40
1
10
608.2994582207491
20
199.97002494999904
30
0
10
608.85174297057927
20
199.97002494999904
30
0
10
609.29945822074842
20
200.4177402001682
30
0
10
609.29945822074842
20
200.97002494999884
30
0
0
SPLINE
5
102
100
AcDbEntity
8
0
100
AcDbSpline
70
0
71
3
72
8
73
4
74
0
42
0.000000001
43
0.0000000001
44
0.0000000001
40
0
40
0
40
0
40
0
40
1
40
1
40
1
40
1
10
571.28145822075271
20
238.07002465176691
30
0
10
571.28145822075271
20
237.51773990193601
30
0
10
571.72917347092198
20
237.07002465176689
30
0
10
572.28145822075282
20
237.07002465176689
30
0
0
SPLINE
5
103
100
AcDbEntity
8
0
100
AcDbSpline
70
0
71
3
72
8
73
4
74
0
42
0.000000001
43
0.0000000001
44
0.0000000001
40
0
40
0
40
0
40
0
40
1
40
1
40
1
40
1
10
578.36845822075679
20
235.07002435353488
30
0
10
578.92074297058718
20
235.07002435353488
30
0
10
579.36845822075543
20
235.51773960370369
30
0
10
579.36845822075543
20
236.07002435353368
30
0
0
SPLINE
5
104
100
AcDbEntity
8
0
100
AcDbSpline
70
0
71
3
72
8
73
4
74
0
42
0.000000001
43
0.0000000001
44
0.0000000001
40
0
40
0
40
0
40
0
40
1
40
1
40
1
40
1
10
409.23352938504962
20
152.03755691354809
30
0
10
409.26514800322167
20
152.02746378667982
30
0
10
409.2972495101078
20
152.01895107318751
30
0
10
409.32971470235458
20
152.01205038354968
30
0
0
SPLINE
5
105
100
AcDbEntity
8
0
100
AcDbSpline
70
0
71
3
72
8
73
4
74
0
42
0.000000001
43
0.0000000001
44
0.0000000001
40
0
40
0
40
0
40
0
40
1
40
1
40
1
40
1
10
468.34037395270423
20
150.209546256967
30
0
10
468.45520040885367
20
149.66933025399834
30
0
10
468.98621724128645
20
149.32448389090058
30
0
10
469.52643324425566
20
149.43931034705091
30
0
0
SPLINE
5
106
100
AcDbEntity
8
0
100
AcDbSpline
70
0
71
3
72
8
73
4
74
0
42
0.000000001
43
0.0000000001
44
0.0000000001
40
0
40
0
40
0
40
0
40
1
40
1
40
1
40
1
10
449.03189976666465
20
138.16923724455131
30
0
10
449.71728280367836
20
138.02355458277711
30
0
10
450.42563363782801
20
138.02355458277711
30
0
10
451.11101667484218
20
138.16923724455131
30
0
0
SPLINE
5
107
100
AcDbEntity
8
0
100
AcDbSpline
70
0
71
3
72
8
73
4
74
0
42
0.000000001
43
0.0000000001
44
0.0000000001
40
0
40
0
40
0
40
0
40
1
40
1
40
1
40
1
10
312.02345822075716
20
177.92002435353504
30
0
10
312.57574297058784
20
177.92002435353504
30
0
10
313.02345822075688
20
178.36773960370411
30
0
10
313.02345822075688
20
178.92002435353501
30
0
0
SPLINE
5
108
100
AcDbEntity
8
0
100
AcDbSpline
70
0
71
3
72
8
73
4
74
0
42
0.000000001
43
0.0000000001
44
0.0000000001
40
0
40
0
40
0
40
0
40
1
40
1
40
1
40
1
10
466.40775788198988
20
164.11152435805843
30
0
10
465.86754187902113
20
163.99669790190754
30
0
10
465.52269551592406
20
163.46568106947612
30
0
10
465.63752197207236
20
162.9254650665068
30
0
0
SPLINE
5
109
100
AcDbEntity
8
0
100
AcDbSpline
70
0
71
3
72
8
73
4
74
0
42
0.000000001
43
0.0000000001
44
0.0000000001
40
0
40
0
40
0
40
0
40
1
40
1
40
1
40
1
10
584.42345822074617
20
199.97002494999811
30
0
10
584.97574297057781
20
199.97002494999811
30
0
10
585.42345822074685
20
200.41774020016754
30
0
10
585.42345822074685
20
200.97002494999884
30
0
0
SPLINE
5
110
100
AcDbEntity
8
0
100
AcDbSpline
70
0
71
3
72
8
73
4
74
0
42
0.000000001
43
0.0000000001
44
0.0000000001
40
0
40
0
40
0
40
0
40
1
40
1
40
1
40
1
10
474.41717124792171
20
150.47886880113859
30
0
10
474.95738725089109
20
150.59369525728891
30
0
10
475.30223361398811
20
151.12471208972158
30
0
10
475.18740715783792
20
151.6649280926909
30
0
0
SPLINE
5
111
100
AcDbEntity
8
0
100
AcDbSpline
70
0
71
3
72
8
73
4
74
0
42
0.000000001
43
0.0000000001
44
0.0000000001
40
0
40
0
40
0
40
0
40
1
40
1
40
1
40
1
10
602.24445822075484
20
235.07002435353488
30
0
10
602.79674297058523
20
235.07002435353488
30
0
10
603.24445822075495
20
235.51773960370312
30
0
10
603.244458220757
20
236.07002435353368
30
0
0
SPLINE
5
112
100
AcDbEntity
8
0
100
AcDbSpline
70
0
71
3
72
8
73
4
74
0
42
0.000000001
43
0.0000000001
44
0.0000000001
40
0
40
0
40
0
40
0
40
1
40
1
40
1
40
1
10
411.05191097818584
20
164.92408118199813
30
0
10
411.02029236001374
20
164.9341743088664
30
0
10
410.98819085312721
20
164.94268702235931
30
0
10
410.95572566088026
20
164.94958771199708
30
0
0
SPLINE
5
113
100
AcDbEntity
8
0
100
AcDbSpline
70
0
71
3
72
8
73
4
74
0
42
0.000000001
43
0.0000000001
44
0.0000000001
40
0
40
0
40
0
40
0
40
1
40
1
40
1
40
1
10
396.21431595750863
20
153.77491769443967
30
0
10
396.24486467429961
20
153.7652828785167
30
0
10
396.27585868413291
20
153.75712143423709
30
0
10
396.30719078062583
20
153.7504615915368
30
0
0
SPLINE
5
114
100
AcDbEntity
8
0
100
AcDbSpline
70
0
71
3
72
8
73
4
74
0
42
0.000000001
43
0.0000000001
44
0.0000000001
40
0
40
0
40
0
40
0
40
1
40
1
40
1
40
1
10
412.44839006462308
20
166.68426439455732
30
0
10
411.9081740616549
20
166.79909085070818
30
0
10
411.37715722922235
20
166.45424448761301
30
0
10
411.2623307730712
20
165.914028484645
30
0
0
SPLINE
5
115
100
AcDbEntity
8
0
100
AcDbSpline
70
0
71
3
72
8
73
4
74
0
42
0.000000001
43
0.0000000001
44
0.0000000001
40
0
40
0
40
0
40
0
40
1
40
1
40
1
40
1
10
389.09413794950132
20
171.64836392452219
30
0
10
388.55392194653285
20
171.76319038067308
30
0
10
388.02290511410035
20
171.41834401757603
30
0
10
387.90807865794989
20
170.878128014608
30
0
0
SPLINE
5
116
100
AcDbEntity
8
0
100
AcDbSpline
70
0
71
3
72
8
73
4
74
0
42
0.000000001
43
0.0000000001
44
0.0000000001
40
0
40
0
40
0
40
0
40
1
40
1
40
1
40
1
10
394.09984721992407
20
170.57709677195913
30
0
10
394.06218843864684
20
170.58994427711568
30
0
10
394.02379642280232
20
170.60053266923032
30
0
10
393.98487595317135
20
170.60880547043323
30
0
0
SPLINE
5
117
100
AcDbEntity
8
0
100
AcDbSpline
70
0
71
3
72
8
73
4
74
0
42
0.000000001
43
0.0000000001
44
0.0000000001
40
0
40
0
40
0
40
0
40
1
40
1
40
1
40
1
10
397.04114235430353
20
168.9295645964738
30
0
10
397.15596881045371
20
169.4697805994424
30
0
10
396.81112244735618
20
170.00079743187453
30
0
10
396.27090644438766
20
170.1156238880248
30
0
0
SPLINE
5
118
100
AcDbEntity
8
0
100
AcDbSpline
70
0
71
3
72
8
73
4
74
0
42
0.000000001
43
0.0000000001
44
0.0000000001
40
0
40
0
40
0
40
0
40
1
40
1
40
1
40
1
10
385.20522667731876
20
158.16220920506703
30
0
10
385.09040022116943
20
157.62199320209831
30
0
10
385.43524658426685
20
157.09097636966621
30
0
10
385.97546258723526
20
156.97614991351594
30
0
0
SPLINE
5
119
100
AcDbEntity
8
0
100
AcDbSpline
70
0
71
3
72
8
73
4
74
0
42
0.000000001
43
0.0000000001
44
0.0000000001
40
0
40
0
40
0
40
0
40
1
40
1
40
1
40
1
10
393.15223108212024
20
155.44340987701719
30
0
10
393.18305735970051
20
155.43685754944585
30
0
10
393.21417615030271
20
155.43176611717951
30
0
10
393.2454832594056
20
155.42815262777481
30
0
0
SPLINE
5
120
100
AcDbEntity
8
0
100
AcDbSpline
70
0
71
3
72
8
73
4
74
0
42
0.000000001
43
0.0000000001
44
0.0000000001
40
0
40
0
40
0
40
0
40
1
40
1
40
1
40
1
10
603.33145822075289
20
237.07002465176689
30
0
10
603.88374297058374
20
237.07002465176689
30
0
10
604.33145822075267
20
237.51773990193601
30
0
10
604.33145822075267
20
238.07002465176657
30
0
0
SPLINE
5
121
100
AcDbEntity
8
0
100
AcDbSpline
70
0
71
3
72
8
73
4
74
0
42
0.000000001
43
0.0000000001
44
0.0000000001
40
0
40
0
40
0
40
0
40
1
40
1
40
1
40
1
10
416.50648319724269
20
150.4793103470536
30
0
10
417.04669920021132
20
150.36448389090333
30
0
10
417.57771603264388
20
150.70933025400041
30
0
10
417.69254248879406
20
151.2495462569691
30
0
0
SPLINE
5
122
100
AcDbEntity
8
0
100
AcDbSpline
70
0
71
3
72
8
73
4
74
0
42
0.000000001
43
0.0000000001
44
0.0000000001
40
0
40
0
40
0
40
0
40
1
40
1
40
1
40
1
10
411.50077392683323
20
151.55057749961219
30
0
10
411.53843270810705
20
151.53772999445758
30
0
10
411.57682472394788
20
151.52714160234433
30
0
10
411.61574519357515
20
151.51886880114202
30
0
0
SPLINE
5
123
100
AcDbEntity
8
0
100
AcDbSpline
70
0
71
3
72
8
73
4
74
0
42
0.000000001
43
0.0000000001
44
0.0000000001
40
0
40
0
40
0
40
0
40
1
40
1
40
1
40
1
10
396.92651344360991
20
167.93630377367441
30
0
10
396.89568716958206
20
167.94285610049118
30
0
10
396.86456838259738
20
167.9479475323397
30
0
10
396.83326127714167
20
167.95156102166868
30
0
0
SPLINE
5
124
100
AcDbEntity
8
0
100
AcDbSpline
70
0
71
3
72
8
73
4
74
0
42
0.000000001
43
0.0000000001
44
0.0000000001
40
0
40
0
40
0
40
0
40
1
40
1
40
1
40
1
10
472.48455517720748
20
164.38084690223067
30
0
10
472.36972872105724
20
164.92106290519931
30
0
10
471.83871188862508
20
165.26590926829653
30
0
10
471.29849588565634
20
165.15108281214683
30
0
0
SPLINE
5
125
100
AcDbEntity
8
0
100
AcDbSpline
70
0
71
3
72
8
73
4
74
0
42
0.000000001
43
0.0000000001
44
0.0000000001
40
0
40
0
40
0
40
0
40
1
40
1
40
1
40
1
10
489.76200999710954
20
169.07562388802333
30
0
10
489.22179399414142
20
168.96079743187369
30
0
10
488.87694763104435
20
168.42978059944159
30
0
10
488.99177408719396
20
167.88956459647363
30
0
0
SPLINE
5
126
100
AcDbEntity
8
0
100
AcDbSpline
70
0
71
3
72
8
73
4
74
0
42
0.000000001
43
0.0000000001
44
0.0000000001
40
0
40
0
40
0
40
0
40
1
40
1
40
1
40
1
10
585.42345822074753
20
213.97002494999893
30
0
10
585.42345822074685
20
214.52230969982963
30
0
10
584.97574297057781
20
214.97002494999833
30
0
10
584.42345822074753
20
214.97002494999873
30
0
0
SPLINE
5
127
100
AcDbEntity
8
0
100
AcDbSpline
70
0
71
3
72
8
73
4
74
0
42
0.000000001
43
0.0000000001
44
0.0000000001
40
0
40
0
40
0
40
0
40
1
40
1
40
1
40
1
10
579.42345822075174
20
214.97002494999873
30
0
10
578.87117347092089
20
214.97002494999873
30
0
10
578.42345822075129
20
214.52230969983052
30
0
10
578.42345822074924
20
213.97002494999995
30
0
0
SPLINE
5
128
100
AcDbEntity
8
0
100
AcDbSpline
70
0
71
3
72
8
73
4
74
0
42
0.000000001
43
0.0000000001
44
0.0000000001
40
0
40
0
40
0
40
0
40
1
40
1
40
1
40
1
10
572.3684582207577
20
236.07002435353473
30
0
10
572.3684582207577
20
235.517739603704
30
0
10
572.81617347092674
20
235.0700243535353
30
0
10
573.36845822075725
20
235.07002435353488
30
0
0
SPLINE
5
129
100
AcDbEntity
8
0
100
AcDbSpline
70
0
71
3
72
8
73
4
74
0
42
0.000000001
43
0.0000000001
44
0.0000000001
40
0
40
0
40
0
40
0
40
1
40
1
40
1
40
1
10
408.04496198943161
20
151.2555213017238
30
0
10
408.5851779924007
20
151.14069484557351
30
0
10
409.1161948248332
20
151.48554120867061
30
0
10
409.23102128098299
20
152.0257572116399
30
0
0
SPLINE
5
130
100
AcDbEntity
8
0
100
AcDbSpline
70
0
71
3
72
8
73
4
74
0
42
0.000000001
43
0.0000000001
44
0.0000000001
40
0
40
0
40
0
40
0
40
1
40
1
40
1
40
1
10
603.29945822074933
20
214.97002494999904
30
0
10
602.74717347091928
20
214.97002494999904
30
0
10
602.29945822075069
20
214.5223096998302
30
0
10
602.29945822075069
20
213.97002494999995
30
0
0
SPLINE
5
131
100
AcDbEntity
8
0
100
AcDbSpline
70
0
71
3
72
8
73
4
74
0
42
0.000000001
43
0.0000000001
44
0.0000000001
40
0
40
0
40
0
40
0
40
1
40
1
40
1
40
1
10
578.42345822074924
20
200.97002494999884
30
0
10
578.42345822074924
20
200.41774020016783
30
0
10
578.87117347091828
20
199.97002494999811
30
0
10
579.42345822074924
20
199.97002494999811
30
0
0
SPLINE
5
132
100
AcDbEntity
8
0
100
AcDbSpline
70
0
71
3
72
8
73
4
74
0
42
0.000000001
43
0.0000000001
44
0.0000000001
40
0
40
0
40
0
40
0
40
1
40
1
40
1
40
1
10
602.29945822075001
20
200.97002494999884
30
0
10
602.29945822075069
20
200.4177402001682
30
0
10
602.74717347091928
20
199.97002494999904
30
0
10
603.29945822075024
20
199.97002494999904
30
0
0
SPLINE
5
133
100
AcDbEntity
8
0
100
AcDbSpline
70
0
71
3
72
8
73
4
74
0
42
0.000000001
43
0.0000000001
44
0.0000000001
40
0
40
0
40
0
40
0
40
1
40
1
40
1
40
1
10
495.83880729232902
20
169.34494643219634
30
0
10
495.72398083617873
20
169.88516243516494
30
0
10
495.19296400374679
20
170.23000879826211
30
0
10
494.65274800077799
20
170.1151823421124
30
0
0
SPLINE
5
134
100
AcDbEntity
8
0
100
AcDbSpline
70
0
71
3
72
8
73
4
74
0
42
0.000000001
43
0.0000000001
44
0.0000000001
40
0
40
0
40
0
40
0
40
1
40
1
40
1
40
1
10
420.39539446942513
20
163.96546506650881
30
0
10
420.51022092557508
20
164.50568106947753
30
0
10
420.16537456247806
20
165.03669790190963
30
0
10
419.62515855950926
20
165.1515243580599
30
0
0
SPLINE
5
135
100
AcDbEntity
8
0
100
AcDbSpline
70
0
71
3
72
8
73
4
74
0
42
0.000000001
43
0.0000000001
44
0.0000000001
40
0
40
0
40
0
40
0
40
1
40
1
40
1
40
1
10
545.13065184642107
20
158.04202465176701
30
0
10
544.78126665120135
20
158.04202465176701
30
0
10
544.43284368276898
20
158.00540392212082
30
0
10
544.0910933923326
20
157.93276265543599
30
0
0
SPLINE
5
136
100
AcDbEntity
8
0
100
AcDbSpline
70
0
71
3
72
8
73
4
74
0
42
0.000000001
43
0.0000000001
44
0.0000000001
40
0
40
0
40
0
40
0
40
1
40
1
40
1
40
1
10
596.24445822075927
20
236.07002435353473
30
0
10
596.24445822075927
20
235.517739603704
30
0
10
596.69217347092831
20
235.0700243535353
30
0
10
597.2444582207587
20
235.07002435353488
30
0
0
SPLINE
5
137
100
AcDbEntity
8
0
100
AcDbSpline
70
0
71
3
72
8
73
4
74
0
42
0.000000001
43
0.0000000001
44
0.0000000001
40
0
40
0
40
0
40
0
40
1
40
1
40
1
40
1
10
417.45409933505664
20
165.61299724199159
30
0
10
417.41644055377839
20
165.62584474714822
30
0
10
417.37804853793318
20
165.63643313926281
30
0
10
417.33912806830148
20
165.64470594046634
30
0
0
SPLINE
5
138
100
AcDbEntity
8
0
100
AcDbSpline
70
0
71
3
72
8
73
4
74
0
42
0.000000001
43
0.0000000001
44
0.0000000001
40
0
40
0
40
0
40
0
40
1
40
1
40
1
40
1
10
408.75715947553135
20
165.41690738095841
30
0
10
408.72661075874032
20
165.42654219688143
30
0
10
408.69561674890679
20
165.43470364116109
30
0
10
408.66428465241404
20
165.44136348386201
30
0
0
SPLINE
5
139
100
AcDbEntity
8
0
100
AcDbSpline
70
0
71
3
72
8
73
4
74
0
42
0.000000001
43
0.0000000001
44
0.0000000001
40
0
40
0
40
0
40
0
40
1
40
1
40
1
40
1
10
355.82600080391887
20
157.98076265543611
30
0
10
355.48425051348227
20
158.05340392212091
30
0
10
355.13582754505018
20
158.09002465176701
30
0
10
354.78644234983017
20
158.09002465176701
30
0
0
SPLINE
5
140
100
AcDbEntity
8
0
100
AcDbSpline
70
0
71
3
72
8
73
4
74
0
42
0.000000001
43
0.0000000001
44
0.0000000001
40
0
40
0
40
0
40
0
40
1
40
1
40
1
40
1
10
491.69462606782503
20
155.17364578693261
30
0
10
491.80945252397532
20
154.63342978396392
30
0
10
492.34046935640743
20
154.28858342086681
30
0
10
492.88068535937612
20
154.4034098770164
30
0
0
SPLINE
5
141
100
AcDbEntity
8
0
100
AcDbSpline
70
0
71
3
72
8
73
4
74
0
42
0.000000001
43
0.0000000001
44
0.0000000001
40
0
40
0
40
0
40
0
40
1
40
1
40
1
40
1
10
497.77142336304399
20
155.4429683311055
30
0
10
498.31163936601263
20
155.55779478725509
30
0
10
498.65648572910982
20
156.0888116196879
30
0
10
498.54165927296015
20
156.62902762265651
30
0
0
SPLINE
5
142
100
AcDbEntity
8
0
100
AcDbSpline
70
0
71
3
72
8
73
4
74
0
42
0.000000001
43
0.0000000001
44
0.0000000001
40
0
40
0
40
0
40
0
40
1
40
1
40
1
40
1
10
604.33145822075267
20
250.070024651767
30
0
10
604.33145822075267
20
250.62230940159768
30
0
10
603.88374297058374
20
251.07002465176686
30
0
10
603.33145822075358
20
251.07002465176708
30
0
0
SPLINE
5
143
100
AcDbEntity
8
0
100
AcDbSpline
70
0
71
3
72
8
73
4
74
0
42
0.000000001
43
0.0000000001
44
0.0000000001
40
0
40
0
40
0
40
0
40
1
40
1
40
1
40
1
10
572.28145822075282
20
251.07002465176708
30
0
10
571.72917347092198
20
251.07002465176708
30
0
10
571.28145822075271
20
250.62230940159768
30
0
10
571.28145822075271
20
250.070024651767
30
0
0
SPLINE
5
144
100
AcDbEntity
8
0
100
AcDbSpline
70
0
71
3
72
8
73
4
74
0
42
0.000000001
43
0.0000000001
44
0.0000000001
40
0
40
0
40
0
40
0
40
1
40
1
40
1
40
1
10
307.02345822075762
20
192.92002435353493
30
0
10
306.47117347092706
20
192.92002435353493
30
0
10
306.02345822075785
20
192.47230910336583
30
0
10
306.02345822075785
20
191.9200243535349
30
0
0
SPLINE
5
145
100
AcDbEntity
8
0
100
AcDbSpline
70
0
71
3
72
8
73
4
74
0
42
0.000000001
43
0.0000000001
44
0.0000000001
40
0
40
0
40
0
40
0
40
1
40
1
40
1
40
1
10
390.680666664689
20
233.87580317301013
30
0
10
390.5658402085387
20
233.33558717004109
30
0
10
390.91068657163618
20
232.80457033760868
30
0
10
391.4509025746051
20
232.68974388145838
30
0
0
SPLINE
5
146
100
AcDbEntity
8
0
100
AcDbSpline
70
0
71
3
72
8
73
4
74
0
42
0.000000001
43
0.0000000001
44
0.0000000001
40
0
40
0
40
0
40
0
40
1
40
1
40
1
40
1
10
577.7464582207532
20
193.92002465176711
30
0
10
577.19417347092224
20
193.92002465176711
30
0
10
576.7464582207532
20
193.47230940159744
30
0
10
576.7464582207532
20
192.92002465176708
30
0
0
SPLINE
5
147
100
AcDbEntity
8
0
100
AcDbSpline
70
0
71
3
72
8
73
4
74
0
42
0.000000001
43
0.0000000001
44
0.0000000001
40
0
40
0
40
0
40
0
40
1
40
1
40
1
40
1
10
406.86967336477539
20
242.70281071036709
30
0
10
406.98449982092552
20
243.24302671333584
30
0
10
406.63965345782844
20
243.77404354576854
30
0
10
406.09943745485936
20
243.88887000191872
30
0
0
SPLINE
5
148
100
AcDbEntity
8
0
100
AcDbSpline
70
0
71
3
72
8
73
4
74
0
42
0.000000001
43
0.0000000001
44
0.0000000001
40
0
40
0
40
0
40
0
40
1
40
1
40
1
40
1
10
607.70945822075475
20
177.92002435353504
30
0
10
608.26174297058583
20
177.92002435353504
30
0
10
608.70945822075544
20
178.3677396037028
30
0
10
608.70945822075737
20
178.92002435353385
30
0
0
SPLINE
5
149
100
AcDbEntity
8
0
100
AcDbSpline
70
0
71
3
72
8
73
4
74
0
42
0.000000001
43
0.0000000001
44
0.0000000001
40
0
40
0
40
0
40
0
40
1
40
1
40
1
40
1
10
336.89945822075674
20
191.92002435353618
30
0
10
336.89945822075617
20
192.47230910336654
30
0
10
336.45174297058668
20
192.92002435353552
30
0
10
335.89945822075612
20
192.92002435353552
30
0
0
SPLINE
5
150
100
AcDbEntity
8
0
100
AcDbSpline
70
0
71
3
72
8
73
4
74
0
42
0.000000001
43
0.0000000001
44
0.0000000001
40
0
40
0
40
0
40
0
40
1
40
1
40
1
40
1
10
329.89945822075919
20
178.92002435353501
30
0
10
329.89945822075947
20
178.36773960370411
30
0
10
330.34717347092817
20
177.92002435353504
30
0
10
330.89945822075885
20
177.92002435353504
30
0
0
SPLINE
5
151
100
AcDbEntity
8
0
100
AcDbSpline
70
0
71
3
72
8
73
4
74
0
42
0.000000001
43
0.0000000001
44
0.0000000001
40
0
40
0
40
0
40
0
40
1
40
1
40
1
40
1
10
442.04596157079618
20
157.32352842044509
30
0
10
442.16078802694653
20
157.8637444234144
30
0
10
441.81594166384906
20
158.3947612558465
30
0
10
441.27572566087997
20
158.5095877119968
30
0
0
SPLINE
5
152
100
AcDbEntity
8
0
100
AcDbSpline
70
0
71
3
72
8
73
4
74
0
42
0.000000001
43
0.0000000001
44
0.0000000001
40
0
40
0
40
0
40
0
40
1
40
1
40
1
40
1
10
601.70945822075896
20
178.92002435353442
30
0
10
601.70945822075964
20
178.36773960370411
30
0
10
602.15717347092811
20
177.92002435353504
30
0
10
602.70945822075896
20
177.92002435353504
30
0
0
SPLINE
5
153
100
AcDbEntity
8
0
100
AcDbSpline
70
0
71
3
72
8
73
4
74
0
42
0.000000001
43
0.0000000001
44
0.0000000001
40
0
40
0
40
0
40
0
40
1
40
1
40
1
40
1
10
393.2454832594056
20
155.42815262777481
30
0
10
393.13074829409834
20
154.88797596945852
30
0
10
393.4755900135662
20
154.3570518644409
30
0
10
394.01574977216109
20
154.24223736340099
30
0
0
SPLINE
5
154
100
AcDbEntity
8
0
100
AcDbSpline
70
0
71
3
72
8
73
4
74
0
42
0.000000001
43
0.0000000001
44
0.0000000001
40
0
40
0
40
0
40
0
40
1
40
1
40
1
40
1
10
616.94020822075322
20
192.92002465176708
30
0
10
616.94020822075322
20
193.47230940159744
30
0
10
616.49249297058429
20
193.92002465176711
30
0
10
615.94020822075322
20
193.92002465176711
30
0
0
SPLINE
5
155
100
AcDbEntity
8
0
100
AcDbSpline
70
0
71
3
72
8
73
4
74
0
42
0.000000001
43
0.0000000001
44
0.0000000001
40
0
40
0
40
0
40
0
40
1
40
1
40
1
40
1
10
335.89945822075612
20
177.92002435353504
30
0
10
336.4517429705873
20
177.92002435353504
30
0
10
336.89945822075674
20
178.36773960370411
30
0
10
336.89945822075674
20
178.92002435353501
30
0
0
SPLINE
5
156
100
AcDbEntity
8
0
100
AcDbSpline
70
0
71
3
72
8
73
4
74
0
42
0.000000001
43
0.0000000001
44
0.0000000001
40
0
40
0
40
0
40
0
40
1
40
1
40
1
40
1
10
403.18867378341054
20
230.1948035916455
30
0
10
403.72888978637945
20
230.07997713549514
30
0
10
404.25990661881195
20
230.42482349859262
30
0
10
404.37473307496236
20
230.96503950156162
30
0
0
SPLINE
5
157
100
AcDbEntity
8
0
100
AcDbSpline
70
0
71
3
72
8
73
4
74
0
42
0.000000001
43
0.0000000001
44
0.0000000001
40
0
40
0
40
0
40
0
40
1
40
1
40
1
40
1
10
381.08166624605354
20
229.73381029173169
30
0
10
380.54145024308491
20
229.8486367478819
30
0
10
380.01043341065218
20
229.50379038478451
30
0
10
379.89560695450217
20
228.96357438181593
30
0
0
SPLINE
5
158
100
AcDbEntity
8
0
100
AcDbSpline
70
0
71
3
72
8
73
4
74
0
42
0.000000001
43
0.0000000001
44
0.0000000001
40
0
40
0
40
0
40
0
40
1
40
1
40
1
40
1
10
359.46695487070991
20
201.5565208830883
30
0
10
359.35212841455984
20
201.01630488011961
30
0
10
359.69697477765703
20
200.48528804768694
30
0
10
360.23719078062607
20
200.37046159153661
30
0
0
SPLINE
5
159
100
AcDbEntity
8
0
100
AcDbSpline
70
0
71
3
72
8
73
4
74
0
42
0.000000001
43
0.0000000001
44
0.0000000001
40
0
40
0
40
0
40
0
40
1
40
1
40
1
40
1
10
364.81695487070988
20
180.94652088308811
30
0
10
364.70212841455987
20
180.40630488011954
30
0
10
365.04697477765706
20
179.87528804768669
30
0
10
365.58719078062603
20
179.76046159153651
30
0
0
SPLINE
5
160
100
AcDbEntity
8
0
100
AcDbSpline
70
0
71
3
72
8
73
4
74
0
42
0.000000001
43
0.0000000001
44
0.0000000001
40
0
40
0
40
0
40
0
40
1
40
1
40
1
40
1
10
363.14795445207449
20
214.06452800180995
30
0
10
362.60773844910591
20
214.17935445796022
30
0
10
362.07672161667352
20
213.83450809486308
30
0
10
361.96189516052323
20
213.29429209189414
30
0
0
SPLINE
5
161
100
AcDbEntity
8
0
100
AcDbSpline
70
0
71
3
72
8
73
4
74
0
42
0.000000001
43
0.0000000001
44
0.0000000001
40
0
40
0
40
0
40
0
40
1
40
1
40
1
40
1
10
438.36496198943161
20
144.81552130172341
30
0
10
438.90517799240058
20
144.70069484557379
30
0
10
439.43619482483285
20
145.0455412086709
30
0
10
439.55102128098315
20
145.58575721163959
30
0
0
SPLINE
5
162
100
AcDbEntity
8
0
100
AcDbSpline
70
0
71
3
72
8
73
4
74
0
42
0.000000001
43
0.0000000001
44
0.0000000001
40
0
40
0
40
0
40
0
40
1
40
1
40
1
40
1
10
375.65596157079653
20
210.38352842044532
30
0
10
375.77078802694643
20
210.92374442341435
30
0
10
375.42594166384936
20
211.45476125584668
30
0
10
374.88572566088033
20
211.569587711997
30
0
0
SPLINE
5
163
100
AcDbEntity
8
0
100
AcDbSpline
70
0
71
3
72
8
73
4
74
0
42
0.000000001
43
0.0000000001
44
0.0000000001
40
0
40
0
40
0
40
0
40
1
40
1
40
1
40
1
10
427.20996316232811
20
161.49935782595659
30
0
10
426.66974715935919
20
161.61418428210681
30
0
10
426.1387303269268
20
161.2693379190091
30
0
10
426.02390387077656
20
160.72912191604044
30
0
0
SPLINE
5
164
100
AcDbEntity
8
0
100
AcDbSpline
70
0
71
3
72
8
73
4
74
0
42
0.000000001
43
0.0000000001
44
0.0000000001
40
0
40
0
40
0
40
0
40
1
40
1
40
1
40
1
10
388.14652181168924
20
156.51467702958359
30
0
10
388.18418059297028
20
156.50182952442509
30
0
10
388.22257260881941
20
156.4912411323092
30
0
10
388.26149307845498
20
156.48296833110558
30
0
0
SPLINE
5
165
100
AcDbEntity
8
0
100
AcDbSpline
70
0
71
3
72
8
73
4
74
0
42
0.000000001
43
0.0000000001
44
0.0000000001
40
0
40
0
40
0
40
0
40
1
40
1
40
1
40
1
10
615.94020822075322
20
179.9200246517666
30
0
10
616.49249297058429
20
179.9200246517666
30
0
10
616.94020822075322
20
180.36773990193569
30
0
10
616.94020822075322
20
180.92002465176674
30
0
0
SPLINE
5
166
100
AcDbEntity
8
0
100
AcDbSpline
70
0
71
3
72
8
73
4
74
0
42
0.000000001
43
0.0000000001
44
0.0000000001
40
0
40
0
40
0
40
0
40
1
40
1
40
1
40
1
10
306.02345822075785
20
178.92002435353501
30
0
10
306.02345822075785
20
178.36773960370411
30
0
10
306.47117347092734
20
177.92002435353504
30
0
10
307.02345822075785
20
177.92002435353504
30
0
0
SPLINE
5
167
100
AcDbEntity
8
0
100
AcDbSpline
70
0
71
3
72
8
73
4
74
0
42
0.000000001
43
0.0000000001
44
0.0000000001
40
0
40
0
40
0
40
0
40
1
40
1
40
1
40
1
10
284.70145822075312
20
215.11002465176688
30
0
10
284.14917347092222
20
215.11002465176688
30
0
10
283.70145822075301
20
214.66230940159755
30
0
10
283.70145822075301
20
214.11002465176691
30
0
0
SPLINE
5
168
100
AcDbEntity
8
0
100
AcDbSpline
70
0
71
3
72
8
73
4
74
0
42
0.000000001
43
0.0000000001
44
0.0000000001
40
0
40
0
40
0
40
0
40
1
40
1
40
1
40
1
10
394.36166624605363
20
246.38381029173183
30
0
10
393.821450243085
20
246.49863674788205
30
0
10
393.29043341065216
20
246.1537903847846
30
0
10
393.17560695450192
20
245.6135743818156
30
0
0
SPLINE
5
169
100
AcDbEntity
8
0
100
AcDbSpline
70
0
71
3
72
8
73
4
74
0
42
0.000000001
43
0.0000000001
44
0.0000000001
40
0
40
0
40
0
40
0
40
1
40
1
40
1
40
1
10
371.97496198943185
20
197.87552130172361
30
0
10
372.51517799240054
20
197.76069484557331
30
0
10
373.04619482483326
20
198.1055412086711
30
0
10
373.16102128098322
20
198.64575721163985
30
0
0
SPLINE
5
170
100
AcDbEntity
8
0
100
AcDbSpline
70
0
71
3
72
8
73
4
74
0
42
0.000000001
43
0.0000000001
44
0.0000000001
40
0
40
0
40
0
40
0
40
1
40
1
40
1
40
1
10
313.02345822075688
20
191.9200243535349
30
0
10
313.02345822075716
20
192.47230910336583
30
0
10
312.57574297058812
20
192.92002435353493
30
0
10
312.02345822075745
20
192.92002435353493
30
0
0
SPLINE
5
171
100
AcDbEntity
8
0
100
AcDbSpline
70
0
71
3
72
8
73
4
74
0
42
0.000000001
43
0.0000000001
44
0.0000000001
40
0
40
0
40
0
40
0
40
1
40
1
40
1
40
1
10
377.32496198943181
20
177.26552130172351
30
0
10
377.8651779924005
20
177.15069484557318
30
0
10
378.39619482483283
20
177.49554120867091
30
0
10
378.51102128098319
20
178.03575721163963
30
0
0
SPLINE
5
172
100
AcDbEntity
8
0
100
AcDbSpline
70
0
71
3
72
8
73
4
74
0
42
0.000000001
43
0.0000000001
44
0.0000000001
40
0
40
0
40
0
40
0
40
1
40
1
40
1
40
1
10
368.49795445207457
20
193.45452800180982
30
0
10
367.95773844910559
20
193.56935445796012
30
0
10
367.42672161667321
20
193.22450809486301
30
0
10
367.31189516052325
20
192.68429209189432
30
0
0
SPLINE
5
173
100
AcDbEntity
8
0
100
AcDbSpline
70
0
71
3
72
8
73
4
74
0
42
0.000000001
43
0.0000000001
44
0.0000000001
40
0
40
0
40
0
40
0
40
1
40
1
40
1
40
1
10
423.52896358096359
20
148.99135070723489
30
0
10
423.41413712481318
20
148.4511347042656
30
0
10
423.75898348791077
20
147.9201178718335
30
0
10
424.29919949087935
20
147.8052914156832
30
0
0
SPLINE
5
174
100
AcDbEntity
8
0
100
AcDbSpline
70
0
71
3
72
8
73
4
74
0
42
0.000000001
43
0.0000000001
44
0.0000000001
40
0
40
0
40
0
40
0
40
1
40
1
40
1
40
1
10
577.83345822075762
20
178.92002435353442
30
0
10
577.83345822075819
20
178.36773960370411
30
0
10
578.28117347092655
20
177.92002435353504
30
0
10
578.83345822075762
20
177.92002435353504
30
0
0
SPLINE
5
175
100
AcDbEntity
8
0
100
AcDbSpline
70
0
71
3
72
8
73
4
74
0
42
0.000000001
43
0.0000000001
44
0.0000000001
40
0
40
0
40
0
40
0
40
1
40
1
40
1
40
1
10
600.27145822075329
20
192.92002465176708
30
0
10
600.27145822075329
20
193.47230940159744
30
0
10
599.82374297058414
20
193.92002465176711
30
0
10
599.27145822075329
20
193.92002465176711
30
0
0
SPLINE
5
176
100
AcDbEntity
8
0
100
AcDbSpline
70
0
71
3
72
8
73
4
74
0
42
0.000000001
43
0.0000000001
44
0.0000000001
40
0
40
0
40
0
40
0
40
1
40
1
40
1
40
1
10
583.83345822075717
20
177.92002435353504
30
0
10
584.38574297058744
20
177.92002435353504
30
0
10
584.8334582207558
20
178.36773960370346
30
0
10
584.8334582207558
20
178.92002435353385
30
0
0
SPLINE
5
177
100
AcDbEntity
8
0
100
AcDbSpline
70
0
71
3
72
8
73
4
74
0
42
0.000000001
43
0.0000000001
44
0.0000000001
40
0
40
0
40
0
40
0
40
1
40
1
40
1
40
1
10
297.70145822075324
20
214.11002465176691
30
0
10
297.70145822075284
20
214.66230940159787
30
0
10
297.2537429705838
20
215.11002465176688
30
0
10
296.70145822075318
20
215.11002465176688
30
0
0
SPLINE
5
178
100
AcDbEntity
8
0
100
AcDbSpline
70
0
71
3
72
8
73
4
74
0
42
0.000000001
43
0.0000000001
44
0.0000000001
40
0
40
0
40
0
40
0
40
1
40
1
40
1
40
1
10
599.27145822075329
20
179.9200246517666
30
0
10
599.82374297058414
20
179.9200246517666
30
0
10
600.27145822075329
20
180.36773990193569
30
0
10
600.27145822075329
20
180.92002465176674
30
0
0
SPLINE
5
179
100
AcDbEntity
8
0
100
AcDbSpline
70
0
71
3
72
8
73
4
74
0
42
0.000000001
43
0.0000000001
44
0.0000000001
40
0
40
0
40
0
40
0
40
1
40
1
40
1
40
1
10
576.7464582207532
20
180.92002465176674
30
0
10
576.7464582207532
20
180.36773990193569
30
0
10
577.19417347092224
20
179.9200246517666
30
0
10
577.7464582207532
20
179.9200246517666
30
0
0
SPLINE
5
180
100
AcDbEntity
8
0
100
AcDbSpline
70
0
71
3
72
8
73
4
74
0
42
0.000000001
43
0.0000000001
44
0.0000000001
40
0
40
0
40
0
40
0
40
1
40
1
40
1
40
1
10
330.8994582207597
20
192.92002435353552
30
0
10
330.34717347092879
20
192.92002435353552
30
0
10
329.89945822075947
20
192.47230910336654
30
0
10
329.89945822075947
20
191.9200243535349
30
0
0
SPLINE
5
181
100
AcDbEntity
8
0
100
AcDbSpline
70
0
71
3
72
8
73
4
74
0
42
0.000000001
43
0.0000000001
44
0.0000000001
40
0
40
0
40
0
40
0
40
1
40
1
40
1
40
1
10
431.62908983401167
20
238.46237487157524
30
0
10
431.08887383104286
20
238.5772013277255
30
0
10
430.5578569986103
20
238.232354964628
30
0
10
430.44303054246001
20
237.6921389616594
30
0
0
SPLINE
5
182
100
AcDbEntity
8
0
100
AcDbSpline
70
0
71
3
72
8
73
4
74
0
42
0.000000001
43
0.0000000001
44
0.0000000001
40
0
40
0
40
0
40
0
40
1
40
1
40
1
40
1
10
354.06145822075325
20
211.97002465176701
30
0
10
354.06145822075325
20
212.52230940159762
30
0
10
353.61374297058381
20
212.97002465176672
30
0
10
353.06145822075308
20
212.97002465176672
30
0
0
SPLINE
5
183
100
AcDbEntity
8
0
100
AcDbSpline
70
0
71
3
72
8
73
4
74
0
42
0.000000001
43
0.0000000001
44
0.0000000001
40
0
40
0
40
0
40
0
40
1
40
1
40
1
40
1
10
528.96102128098323
20
213.29429209189414
30
0
10
528.84619482483288
20
213.83450809486283
30
0
10
528.31517799240009
20
214.17935445796022
30
0
10
527.77496198943152
20
214.06452800180995
30
0
0
SPLINE
5
184
100
AcDbEntity
8
0
100
AcDbSpline
70
0
71
3
72
8
73
4
74
0
42
0.000000001
43
0.0000000001
44
0.0000000001
40
0
40
0
40
0
40
0
40
1
40
1
40
1
40
1
10
444.13709695273332
20
234.78137529021063
30
0
10
444.25192340888367
20
235.32159129317918
30
0
10
443.90707704578625
20
235.85260812561191
30
0
10
443.36686104281762
20
235.96743458176192
30
0
0
SPLINE
5
185
100
AcDbEntity
8
0
100
AcDbSpline
70
0
71
3
72
8
73
4
74
0
42
0.000000001
43
0.0000000001
44
0.0000000001
40
0
40
0
40
0
40
0
40
1
40
1
40
1
40
1
10
414.59238557738956
20
169.34408588156731
30
0
10
415.13260158035871
20
169.22925942541701
30
0
10
415.66361841279104
20
169.57410578851409
30
0
10
415.77844486894139
20
170.11432179148284
30
0
0
SPLINE
5
186
100
AcDbEntity
8
0
100
AcDbSpline
70
0
71
3
72
8
73
4
74
0
42
0.000000001
43
0.0000000001
44
0.0000000001
40
0
40
0
40
0
40
0
40
1
40
1
40
1
40
1
10
405.76537804003249
20
185.53309258165359
30
0
10
405.22516203706368
20
185.64791903780392
30
0
10
404.69414520463118
20
185.30307267470607
30
0
10
404.57931874848094
20
184.76285667173741
30
0
0
SPLINE
5
187
100
AcDbEntity
8
0
100
AcDbSpline
70
0
71
3
72
8
73
4
74
0
42
0.000000001
43
0.0000000001
44
0.0000000001
40
0
40
0
40
0
40
0
40
1
40
1
40
1
40
1
10
418.34908983401164
20
221.81237487157512
30
0
10
417.80887383104277
20
221.92720132772541
30
0
10
417.27785699861016
20
221.582354964628
30
0
10
417.16303054245986
20
221.0421389616593
30
0
0
SPLINE
5
188
100
AcDbEntity
8
0
100
AcDbSpline
70
0
71
3
72
8
73
4
74
0
42
0.000000001
43
0.0000000001
44
0.0000000001
40
0
40
0
40
0
40
0
40
1
40
1
40
1
40
1
10
412.92338515875417
20
202.4620930002888
30
0
10
413.03821161490447
20
203.00230900325769
30
0
10
412.69336525180705
20
203.53332583569011
30
0
10
412.15314924883842
20
203.64815229184043
30
0
0
SPLINE
5
189
100
AcDbEntity
8
0
100
AcDbSpline
70
0
71
3
72
8
73
4
74
0
42
0.000000001
43
0.0000000001
44
0.0000000001
40
0
40
0
40
0
40
0
40
1
40
1
40
1
40
1
10
396.73437845866795
20
193.63508546293204
30
0
10
396.61955200251776
20
193.09486945996269
30
0
10
396.96439836561524
20
192.56385262753071
30
0
10
397.5046143685837
20
192.44902617138047
30
0
0
SPLINE
5
190
100
AcDbEntity
8
0
100
AcDbSpline
70
0
71
3
72
8
73
4
74
0
42
0.000000001
43
0.0000000001
44
0.0000000001
40
0
40
0
40
0
40
0
40
1
40
1
40
1
40
1
10
372.51496198943158
20
157.27552130172342
30
0
10
373.05517799240027
20
157.16069484557309
30
0
10
373.58619482483323
20
157.50554120867091
30
0
10
373.7010212809833
20
158.0457572116396
30
0
0
SPLINE
5
191
100
AcDbEntity
8
0
100
AcDbSpline
70
0
71
3
72
8
73
4
74
0
42
0.000000001
43
0.0000000001
44
0.0000000001
40
0
40
0
40
0
40
0
40
1
40
1
40
1
40
1
10
396.0343784586679
20
213.26508546293189
30
0
10
395.91955200251761
20
212.72486945996292
30
0
10
396.26439836561502
20
212.19385262753019
30
0
10
396.80461436858417
20
212.07902617138032
30
0
0
SPLINE
5
192
100
AcDbEntity
8
0
100
AcDbSpline
70
0
71
3
72
8
73
4
74
0
42
0.000000001
43
0.0000000001
44
0.0000000001
40
0
40
0
40
0
40
0
40
1
40
1
40
1
40
1
10
400.41537804003269
20
206.14309258165343
30
0
10
399.87516203706366
20
206.25791903780367
30
0
10
399.34414520463122
20
205.91307267470623
30
0
10
399.22931874848098
20
205.37285667173762
30
0
0
SPLINE
5
193
100
AcDbEntity
8
0
100
AcDbSpline
70
0
71
3
72
8
73
4
74
0
42
0.000000001
43
0.0000000001
44
0.0000000001
40
0
40
0
40
0
40
0
40
1
40
1
40
1
40
1
10
375.72795445207453
20
250.34452800181018
30
0
10
375.18773844910589
20
250.4593544579605
30
0
10
374.65672161667322
20
250.11450809486306
30
0
10
374.54189516052287
20
249.57429209189414
30
0
0
SPLINE
5
194
100
AcDbEntity
8
0
100
AcDbSpline
70
0
71
3
72
8
73
4
74
0
42
0.000000001
43
0.0000000001
44
0.0000000001
40
0
40
0
40
0
40
0
40
1
40
1
40
1
40
1
10
430.85709695273323
20
218.13137529021046
30
0
10
430.97192340888353
20
218.67159129317955
30
0
10
430.62707704578634
20
219.20260812561182
30
0
10
430.08686104281736
20
219.31743458176211
30
0
0
SPLINE
5
195
100
AcDbEntity
8
0
100
AcDbSpline
70
0
71
3
72
8
73
4
74
0
42
0.000000001
43
0.0000000001
44
0.0000000001
40
0
40
0
40
0
40
0
40
1
40
1
40
1
40
1
10
412.22338515875424
20
222.09209300028891
30
0
10
412.33821161490448
20
222.63230900325752
30
0
10
411.9933652518074
20
223.1633258356899
30
0
10
411.45314924883843
20
223.27815229184017
30
0
0
SPLINE
5
196
100
AcDbEntity
8
0
100
AcDbSpline
70
0
71
3
72
8
73
4
74
0
42
0.000000001
43
0.0000000001
44
0.0000000001
40
0
40
0
40
0
40
0
40
1
40
1
40
1
40
1
10
525.32572566087993
20
179.76046159153651
30
0
10
525.8659416638493
20
179.87528804768669
30
0
10
526.21078802694637
20
180.40630488011954
30
0
10
526.09596157079613
20
180.94652088308811
30
0
0
SPLINE
5
197
100
AcDbEntity
8
0
100
AcDbSpline
70
0
71
3
72
8
73
4
74
0
42
0.000000001
43
0.0000000001
44
0.0000000001
40
0
40
0
40
0
40
0
40
1
40
1
40
1
40
1
10
433.22609737136867
20
165.38336817148885
30
0
10
433.76631337433764
20
165.26854171533853
30
0
10
434.29733020677008
20
165.61338807843569
30
0
10
434.41215666292038
20
166.15360408140492
30
0
0
SPLINE
5
198
100
AcDbEntity
8
0
100
AcDbSpline
70
0
71
3
72
8
73
4
74
0
42
0.000000001
43
0.0000000001
44
0.0000000001
40
0
40
0
40
0
40
0
40
1
40
1
40
1
40
1
10
388.23596157079623
20
246.6635284204456
30
0
10
388.3507880269467
20
247.20374442341421
30
0
10
388.0059416638494
20
247.73476125584662
30
0
10
387.46572566088042
20
247.84958771199695
30
0
0
SPLINE
5
199
100
AcDbEntity
8
0
100
AcDbSpline
70
0
71
3
72
8
73
4
74
0
42
0.000000001
43
0.0000000001
44
0.0000000001
40
0
40
0
40
0
40
0
40
1
40
1
40
1
40
1
10
360.00695487070999
20
160.9565208830881
30
0
10
359.89212841455975
20
160.41630488011944
30
0
10
360.23697477765717
20
159.88528804768669
30
0
10
360.77719078062614
20
159.77046159153642
30
0
0
SPLINE
5
200
100
AcDbEntity
8
0
100
AcDbSpline
70
0
71
3
72
8
73
4
74
0
42
0.000000001
43
0.0000000001
44
0.0000000001
40
0
40
0
40
0
40
0
40
1
40
1
40
1
40
1
10
402.08437845866797
20
173.02508546293194
30
0
10
401.96955200251773
20
172.4848694599626
30
0
10
402.3143983656152
20
171.95385262753052
30
0
10
402.85461436858373
20
171.83902617138031
30
0
0
SPLINE
5
201
100
AcDbEntity
8
0
100
AcDbSpline
70
0
71
3
72
8
73
4
74
0
42
0.000000001
43
0.0000000001
44
0.0000000001
40
0
40
0
40
0
40
0
40
1
40
1
40
1
40
1
10
516.03719078062579
20
211.569587711997
30
0
10
515.49697477765733
20
211.45476125584668
30
0
10
515.15212841455946
20
210.92374442341435
30
0
10
515.26695487070981
20
210.38352842044532
30
0
0
SPLINE
5
202
100
AcDbEntity
8
0
100
AcDbSpline
70
0
71
3
72
8
73
4
74
0
42
0.000000001
43
0.0000000001
44
0.0000000001
40
0
40
0
40
0
40
0
40
1
40
1
40
1
40
1
10
340.06145822075297
20
199.97002465176692
30
0
10
340.06145822075297
20
199.41773990193596
30
0
10
340.50917347092246
20
198.97002465176683
30
0
10
341.06145822075297
20
198.97002465176683
30
0
0
SPLINE
5
203
100
AcDbEntity
8
0
100
AcDbSpline
70
0
71
3
72
8
73
4
74
0
42
0.000000001
43
0.0000000001
44
0.0000000001
40
0
40
0
40
0
40
0
40
1
40
1
40
1
40
1
10
381.0059615707965
20
189.7735284204451
30
0
10
381.1207880269464
20
190.31374442341451
30
0
10
380.77594166384904
20
190.84476125584649
30
0
10
380.23572566088035
20
190.95958771199679
30
0
0
SPLINE
5
204
100
AcDbEntity
8
0
100
AcDbSpline
70
0
71
3
72
8
73
4
74
0
42
0.000000001
43
0.0000000001
44
0.0000000001
40
0
40
0
40
0
40
0
40
1
40
1
40
1
40
1
10
512.77719078062557
20
249.82958771199691
30
0
10
512.23697477765711
20
249.71476125584689
30
0
10
511.89212841455981
20
249.1837444234142
30
0
10
512.00695487071016
20
248.64352842044553
30
0
0
SPLINE
5
205
100
AcDbEntity
8
0
100
AcDbSpline
70
0
71
3
72
8
73
4
74
0
42
0.000000001
43
0.0000000001
44
0.0000000001
40
0
40
0
40
0
40
0
40
1
40
1
40
1
40
1
10
418.27338515875425
20
181.85209300028896
30
0
10
418.38821161490449
20
182.39230900325762
30
0
10
418.04336525180707
20
182.92332583569032
30
0
10
417.50314924883838
20
183.03815229184062
30
0
0
SPLINE
5
206
100
AcDbEntity
8
0
100
AcDbSpline
70
0
71
3
72
8
73
4
74
0
42
0.000000001
43
0.0000000001
44
0.0000000001
40
0
40
0
40
0
40
0
40
1
40
1
40
1
40
1
10
409.2423855773896
20
189.9540858815667
30
0
10
409.78260158035852
20
189.83925942541714
30
0
10
410.3136184127909
20
190.18410578851419
30
0
10
410.42844486894126
20
190.72432179148291
30
0
0
SPLINE
5
207
100
AcDbEntity
8
0
100
AcDbSpline
70
0
71
3
72
8
73
4
74
0
42
0.000000001
43
0.0000000001
44
0.0000000001
40
0
40
0
40
0
40
0
40
1
40
1
40
1
40
1
10
408.54238557738961
20
209.58408588156692
30
0
10
409.08260158035836
20
209.46925942541694
30
0
10
409.61361841279086
20
209.81410578851441
30
0
10
409.7284448689411
20
210.35432179148302
30
0
0
SPLINE
5
208
100
AcDbEntity
8
0
100
AcDbSpline
70
0
71
3
72
8
73
4
74
0
42
0.000000001
43
0.0000000001
44
0.0000000001
40
0
40
0
40
0
40
0
40
1
40
1
40
1
40
1
10
431.55709695273339
20
198.5013752902106
30
0
10
431.67192340888357
20
199.04159129317932
30
0
10
431.32707704578621
20
199.57260812561202
30
0
10
430.78686104281746
20
199.68743458176203
30
0
0
SPLINE
5
209
100
AcDbEntity
8
0
100
AcDbSpline
70
0
71
3
72
8
73
4
74
0
42
0.000000001
43
0.0000000001
44
0.0000000001
40
0
40
0
40
0
40
0
40
1
40
1
40
1
40
1
10
525.70102128098347
20
251.5542920918941
30
0
10
525.58619482483323
20
252.09450809486313
30
0
10
525.05517799240056
20
252.43935445796023
30
0
10
524.51496198943187
20
252.32452800181022
30
0
0
SPLINE
5
210
100
AcDbEntity
8
0
100
AcDbSpline
70
0
71
3
72
8
73
4
74
0
42
0.000000001
43
0.0000000001
44
0.0000000001
40
0
40
0
40
0
40
0
40
1
40
1
40
1
40
1
10
527.42572566088029
20
238.63046159153694
30
0
10
527.96594166384909
20
238.74528804768713
30
0
10
528.31078802694606
20
239.27630488011954
30
0
10
528.1959615707965
20
239.81652088308849
30
0
0
SPLINE
5
211
100
AcDbEntity
8
0
100
AcDbSpline
70
0
71
3
72
8
73
4
74
0
42
0.000000001
43
0.0000000001
44
0.0000000001
40
0
40
0
40
0
40
0
40
1
40
1
40
1
40
1
10
520.34102128098334
20
230.94429209189394
30
0
10
520.22619482483321
20
231.48450809486292
30
0
10
519.69517799240055
20
231.82935445796039
30
0
10
519.15496198943185
20
231.71452800181015
30
0
0
SPLINE
5
212
100
AcDbEntity
8
0
100
AcDbSpline
70
0
71
3
72
8
73
4
74
0
42
0.000000001
43
0.0000000001
44
0.0000000001
40
0
40
0
40
0
40
0
40
1
40
1
40
1
40
1
10
522.06572566088028
20
218.02046159153684
30
0
10
522.60594166384908
20
218.13528804768703
30
0
10
522.95078802694673
20
218.66630488011941
30
0
10
522.83596157079637
20
219.20652088308842
30
0
0
SPLINE
5
213
100
AcDbEntity
8
0
100
AcDbSpline
70
0
71
3
72
8
73
4
74
0
42
0.000000001
43
0.0000000001
44
0.0000000001
40
0
40
0
40
0
40
0
40
1
40
1
40
1
40
1
10
363.68795445207468
20
173.46452800180981
30
0
10
363.14773844910599
20
173.57935445796011
30
0
10
362.61672161667326
20
173.23450809486289
30
0
10
362.50189516052302
20
172.69429209189434
30
0
0
SPLINE
5
214
100
AcDbEntity
8
0
100
AcDbSpline
70
0
71
3
72
8
73
4
74
0
42
0.000000001
43
0.0000000001
44
0.0000000001
40
0
40
0
40
0
40
0
40
1
40
1
40
1
40
1
10
358.76695487070992
20
221.18652088308841
30
0
10
358.6521284145598
20
220.64630488011943
30
0
10
358.99697477765733
20
220.11528804768702
30
0
10
359.53719078062602
20
220.00046159153669
30
0
0
SPLINE
5
215
100
AcDbEntity
8
0
100
AcDbSpline
70
0
71
3
72
8
73
4
74
0
42
0.000000001
43
0.0000000001
44
0.0000000001
40
0
40
0
40
0
40
0
40
1
40
1
40
1
40
1
10
514.50189516052319
20
236.90575721163967
30
0
10
514.61672161667354
20
236.36554120867072
30
0
10
515.14773844910553
20
236.02069484557362
30
0
10
515.68795445207491
20
236.13552130172351
30
0
0
SPLINE
5
216
100
AcDbEntity
8
0
100
AcDbSpline
70
0
71
3
72
8
73
4
74
0
42
0.000000001
43
0.0000000001
44
0.0000000001
40
0
40
0
40
0
40
0
40
1
40
1
40
1
40
1
10
530.68572566087994
20
200.37046159153661
30
0
10
531.22594166384943
20
200.48528804768694
30
0
10
531.5707880269465
20
201.01630488011961
30
0
10
531.45596157079615
20
201.5565208830883
30
0
0
SPLINE
5
217
100
AcDbEntity
8
0
100
AcDbSpline
70
0
71
3
72
8
73
4
74
0
42
0.000000001
43
0.0000000001
44
0.0000000001
40
0
40
0
40
0
40
0
40
1
40
1
40
1
40
1
10
528.41102128098328
20
172.69429209189434
30
0
10
528.29619482483304
20
173.23450809486289
30
0
10
527.76517799240037
20
173.57935445796011
30
0
10
527.22496198943168
20
173.46452800181041
30
0
0
SPLINE
5
218
100
AcDbEntity
8
0
100
AcDbSpline
70
0
71
3
72
8
73
4
74
0
42
0.000000001
43
0.0000000001
44
0.0000000001
40
0
40
0
40
0
40
0
40
1
40
1
40
1
40
1
10
523.6010212809831
20
192.68429209189432
30
0
10
523.48619482483286
20
193.22450809486301
30
0
10
522.95517799240065
20
193.56935445796012
30
0
10
522.4149619894315
20
193.45452800180982
30
0
0
SPLINE
5
219
100
AcDbEntity
8
0
100
AcDbSpline
70
0
71
3
72
8
73
4
74
0
42
0.000000001
43
0.0000000001
44
0.0000000001
40
0
40
0
40
0
40
0
40
1
40
1
40
1
40
1
10
509.14189516052318
20
216.2957572116396
30
0
10
509.25672161667336
20
215.75554120867096
30
0
10
509.78773844910558
20
215.41069484557343
30
0
10
510.32795445207483
20
215.5255213017237
30
0
0
SPLINE
5
220
100
AcDbEntity
8
0
100
AcDbSpline
70
0
71
3
72
8
73
4
74
0
42
0.000000001
43
0.0000000001
44
0.0000000001
40
0
40
0
40
0
40
0
40
1
40
1
40
1
40
1
10
376.19596157079627
20
169.78352842044512
30
0
10
376.31078802694668
20
170.32374442341444
30
0
10
375.96594166384926
20
170.85476125584651
30
0
10
375.42572566088018
20
170.9695877119967
30
0
0
SPLINE
5
221
100
AcDbEntity
8
0
100
AcDbSpline
70
0
71
3
72
8
73
4
74
0
42
0.000000001
43
0.0000000001
44
0.0000000001
40
0
40
0
40
0
40
0
40
1
40
1
40
1
40
1
10
341.06145822075297
20
212.97002465176672
30
0
10
340.50917347092246
20
212.97002465176672
30
0
10
340.06145822075297
20
212.52230940159762
30
0
10
340.06145822075297
20
211.97002465176701
30
0
0
SPLINE
5
222
100
AcDbEntity
8
0
100
AcDbSpline
70
0
71
3
72
8
73
4
74
0
42
0.000000001
43
0.0000000001
44
0.0000000001
40
0
40
0
40
0
40
0
40
1
40
1
40
1
40
1
10
517.76189516052284
20
198.64575721163985
30
0
10
517.87672161667319
20
198.1055412086711
30
0
10
518.40773844910586
20
197.76069484557331
30
0
10
518.94795445207455
20
197.87552130172361
30
0
0
SPLINE
5
223
100
AcDbEntity
8
0
100
AcDbSpline
70
0
71
3
72
8
73
4
74
0
42
0.000000001
43
0.0000000001
44
0.0000000001
40
0
40
0
40
0
40
0
40
1
40
1
40
1
40
1
10
436.90709695273313
20
177.8913752902105
30
0
10
437.02192340888359
20
178.43159129317908
30
0
10
436.67707704578606
20
178.96260812561192
30
0
10
436.13686104281754
20
179.07743458176211
30
0
0
SPLINE
5
224
100
AcDbEntity
8
0
100
AcDbSpline
70
0
71
3
72
8
73
4
74
0
42
0.000000001
43
0.0000000001
44
0.0000000001
40
0
40
0
40
0
40
0
40
1
40
1
40
1
40
1
10
415.36809025264688
20
189.67436775285361
30
0
10
415.2532637964967
20
189.13415174988495
30
0
10
415.59811015959411
20
188.60313491745219
30
0
10
416.13832616256275
20
188.48830846130195
30
0
0
SPLINE
5
225
100
AcDbEntity
8
0
100
AcDbSpline
70
0
71
3
72
8
73
4
74
0
42
0.000000001
43
0.0000000001
44
0.0000000001
40
0
40
0
40
0
40
0
40
1
40
1
40
1
40
1
10
427.8760973713687
20
185.99336817148892
30
0
10
428.41631337433745
20
185.8785417153386
30
0
10
428.94733020676995
20
186.22338807843585
30
0
10
429.06215666292013
20
186.76360408140511
30
0
0
SPLINE
5
226
100
AcDbEntity
8
0
100
AcDbSpline
70
0
71
3
72
8
73
4
74
0
42
0.000000001
43
0.0000000001
44
0.0000000001
40
0
40
0
40
0
40
0
40
1
40
1
40
1
40
1
10
427.17609737136866
20
205.62336817148883
30
0
10
427.71631337433769
20
205.50854171533854
30
0
10
428.2473302067699
20
205.8533880784359
30
0
10
428.3621566629202
20
206.39360408140462
30
0
0
SPLINE
5
227
100
AcDbEntity
8
0
100
AcDbSpline
70
0
71
3
72
8
73
4
74
0
42
0.000000001
43
0.0000000001
44
0.0000000001
40
0
40
0
40
0
40
0
40
1
40
1
40
1
40
1
10
510.67719078062589
20
190.95958771199679
30
0
10
510.13697477765731
20
190.84476125584649
30
0
10
509.79212841455956
20
190.31374442341451
30
0
10
509.90695487070985
20
189.7735284204451
30
0
0
SPLINE
5
228
100
AcDbEntity
8
0
100
AcDbSpline
70
0
71
3
72
8
73
4
74
0
42
0.000000001
43
0.0000000001
44
0.0000000001
40
0
40
0
40
0
40
0
40
1
40
1
40
1
40
1
10
512.40189516052283
20
178.03575721163963
30
0
10
512.51672161667307
20
177.49554120867091
30
0
10
513.04773844910585
20
177.15069484557318
30
0
10
513.58795445207431
20
177.26552130172351
30
0
0
SPLINE
5
229
100
AcDbEntity
8
0
100
AcDbSpline
70
0
71
3
72
8
73
4
74
0
42
0.000000001
43
0.0000000001
44
0.0000000001
40
0
40
0
40
0
40
0
40
1
40
1
40
1
40
1
10
420.71809025264685
20
169.06436775285354
30
0
10
420.60326379649695
20
168.52415174988482
30
0
10
420.94811015959414
20
167.9931349174521
30
0
10
421.488326162563
20
167.8783084613018
30
0
0
SPLINE
5
230
100
AcDbEntity
8
0
100
AcDbSpline
70
0
71
3
72
8
73
4
74
0
42
0.000000001
43
0.0000000001
44
0.0000000001
40
0
40
0
40
0
40
0
40
1
40
1
40
1
40
1
10
424.39908983401159
20
181.57237487157519
30
0
10
423.8588738310429
20
181.6872013277254
30
0
10
423.32785699861017
20
181.34235496462833
30
0
10
423.21303054246016
20
180.80213896165901
30
0
0
SPLINE
5
231
100
AcDbEntity
8
0
100
AcDbSpline
70
0
71
3
72
8
73
4
74
0
42
0.000000001
43
0.0000000001
44
0.0000000001
40
0
40
0
40
0
40
0
40
1
40
1
40
1
40
1
10
515.4871907806255
20
170.9695877119967
30
0
10
514.94697477765681
20
170.85476125584651
30
0
10
514.60212841455973
20
170.32374442341444
30
0
10
514.71695487070997
20
169.78352842044512
30
0
0
SPLINE
5
232
100
AcDbEntity
8
0
100
AcDbSpline
70
0
71
3
72
8
73
4
74
0
42
0.000000001
43
0.0000000001
44
0.0000000001
40
0
40
0
40
0
40
0
40
1
40
1
40
1
40
1
10
374.95596157079626
20
230.0135284204454
30
0
10
375.0707880269465
20
230.55374442341412
30
0
10
374.72594166384931
20
231.08476125584684
30
0
10
374.18572566088068
20
231.19958771199714
30
0
0
SPLINE
5
233
100
AcDbEntity
8
0
100
AcDbSpline
70
0
71
3
72
8
73
4
74
0
42
0.000000001
43
0.0000000001
44
0.0000000001
40
0
40
0
40
0
40
0
40
1
40
1
40
1
40
1
10
507.4171907806263
20
229.21958771199712
30
0
10
506.8769747776571
20
229.10476125584682
30
0
10
506.53212841455979
20
228.5737444234141
30
0
10
506.64695487071015
20
228.03352842044544
30
0
0
SPLINE
5
234
100
AcDbEntity
8
0
100
AcDbSpline
70
0
71
3
72
8
73
4
74
0
42
0.000000001
43
0.0000000001
44
0.0000000001
40
0
40
0
40
0
40
0
40
1
40
1
40
1
40
1
10
384.5549619894316
20
234.15552130172355
30
0
10
385.09517799240058
20
234.04069484557357
30
0
10
385.62619482483285
20
234.3855412086707
30
0
10
385.74102128098326
20
234.92575721163971
30
0
0
SPLINE
5
235
100
AcDbEntity
8
0
100
AcDbSpline
70
0
71
3
72
8
73
4
74
0
42
0.000000001
43
0.0000000001
44
0.0000000001
40
0
40
0
40
0
40
0
40
1
40
1
40
1
40
1
10
315.55145822075298
20
219.02002465176673
30
0
10
315.55145822075298
20
218.46773990193611
30
0
10
315.99917347092253
20
218.02002465176702
30
0
10
316.55145822075315
20
218.02002465176702
30
0
0
SPLINE
5
236
100
AcDbEntity
8
0
100
AcDbSpline
70
0
71
3
72
8
73
4
74
0
42
0.000000001
43
0.0000000001
44
0.0000000001
40
0
40
0
40
0
40
0
40
1
40
1
40
1
40
1
10
530.13572566088021
20
159.7704615915371
30
0
10
530.6759416638489
20
159.88528804768742
30
0
10
531.02078802694666
20
160.41630488011944
30
0
10
530.90596157079631
20
160.95652088308867
30
0
0
SPLINE
5
237
100
AcDbEntity
8
0
100
AcDbSpline
70
0
71
3
72
8
73
4
74
0
42
0.000000001
43
0.0000000001
44
0.0000000001
40
0
40
0
40
0
40
0
40
1
40
1
40
1
40
1
10
371.27496198943186
20
217.50552130172383
30
0
10
371.81517799240049
20
217.39069484557351
30
0
10
372.34619482483282
20
217.73554120867092
30
0
10
372.46102128098312
20
218.27575721163959
30
0
0
SPLINE
5
238
100
AcDbEntity
8
0
100
AcDbSpline
70
0
71
3
72
8
73
4
74
0
42
0.000000001
43
0.0000000001
44
0.0000000001
40
0
40
0
40
0
40
0
40
1
40
1
40
1
40
1
10
419.04908983401162
20
202.18237487157535
30
0
10
418.50887383104248
20
202.29720132772559
30
0
10
417.97785699861015
20
201.95235496462814
30
0
10
417.86303054245991
20
201.41213896165908
30
0
0
SPLINE
5
239
100
AcDbEntity
8
0
100
AcDbSpline
70
0
71
3
72
8
73
4
74
0
42
0.000000001
43
0.0000000001
44
0.0000000001
40
0
40
0
40
0
40
0
40
1
40
1
40
1
40
1
10
353.06145822075308
20
198.97002465176683
30
0
10
353.61374297058381
20
198.97002465176683
30
0
10
354.06145822075325
20
199.41773990193596
30
0
10
354.06145822075325
20
199.97002465176692
30
0
0
SPLINE
5
240
100
AcDbEntity
8
0
100
AcDbSpline
70
0
71
3
72
8
73
4
74
0
42
0.000000001
43
0.0000000001
44
0.0000000001
40
0
40
0
40
0
40
0
40
1
40
1
40
1
40
1
10
372.04695487070984
20
237.83652088308853
30
0
10
371.93212841455966
20
237.29630488011952
30
0
10
372.27697477765707
20
236.76528804768679
30
0
10
372.81719078062599
20
236.6504615915369
30
0
0
SPLINE
5
241
100
AcDbEntity
8
0
100
AcDbSpline
70
0
71
3
72
8
73
4
74
0
42
0.000000001
43
0.0000000001
44
0.0000000001
40
0
40
0
40
0
40
0
40
1
40
1
40
1
40
1
10
414.66809025264683
20
209.30436775285341
30
0
10
414.55326379649671
20
208.76415174988452
30
0
10
414.89811015959395
20
208.23313491745211
30
0
10
415.4383261625631
20
208.11830846130181
30
0
0
SPLINE
5
242
100
AcDbEntity
8
0
100
AcDbSpline
70
0
71
3
72
8
73
4
74
0
42
0.000000001
43
0.0000000001
44
0.0000000001
40
0
40
0
40
0
40
0
40
1
40
1
40
1
40
1
10
362.4479544520749
20
233.69452800181011
30
0
10
361.90773844910581
20
233.80935445796041
30
0
10
361.37672161667342
20
233.46450809486294
30
0
10
361.26189516052312
20
232.92429209189402
30
0
0
SPLINE
5
243
100
AcDbEntity
8
0
100
AcDbSpline
70
0
71
3
72
8
73
4
74
0
42
0.000000001
43
0.0000000001
44
0.0000000001
40
0
40
0
40
0
40
0
40
1
40
1
40
1
40
1
10
427.94809025264692
20
225.95436775285361
30
0
10
427.83326379649674
20
225.41415174988461
30
0
10
428.17811015959415
20
224.8831349174522
30
0
10
428.71832616256313
20
224.76830846130196
30
0
0
SPLINE
5
244
100
AcDbEntity
8
0
100
AcDbSpline
70
0
71
3
72
8
73
4
74
0
42
0.000000001
43
0.0000000001
44
0.0000000001
40
0
40
0
40
0
40
0
40
1
40
1
40
1
40
1
10
440.45609737136863
20
222.27336817148895
30
0
10
440.99631337433732
20
222.15854171533863
30
0
10
441.52733020677005
20
222.50338807843605
30
0
10
441.64215666292029
20
223.04360408140468
30
0
0
SPLINE
5
245
100
AcDbEntity
8
0
100
AcDbSpline
70
0
71
3
72
8
73
4
74
0
42
0.000000001
43
0.0000000001
44
0.0000000001
40
0
40
0
40
0
40
0
40
1
40
1
40
1
40
1
10
346.4114582207531
20
193.92002465176711
30
0
10
345.85917347092243
20
193.92002465176711
30
0
10
345.41145822075316
20
193.47230940159744
30
0
10
345.41145822075316
20
192.92002465176708
30
0
0
SPLINE
5
246
100
AcDbEntity
8
0
100
AcDbSpline
70
0
71
3
72
8
73
4
74
0
42
0.000000001
43
0.0000000001
44
0.0000000001
40
0
40
0
40
0
40
0
40
1
40
1
40
1
40
1
10
589.74145822075297
20
219.02002465176673
30
0
10
589.74145822075297
20
218.46773990193611
30
0
10
590.18917347092213
20
218.0200246517667
30
0
10
590.74145822075309
20
218.0200246517667
30
0
0
SPLINE
5
247
100
AcDbEntity
8
0
100
AcDbSpline
70
0
71
3
72
8
73
4
74
0
42
0.000000001
43
0.0000000001
44
0.0000000001
40
0
40
0
40
0
40
0
40
1
40
1
40
1
40
1
10
399.71537804003248
20
225.77309258165354
30
0
10
399.1751620370639
20
225.8879190378035
30
0
10
398.64414520463123
20
225.54307267470645
30
0
10
398.52931874848127
20
225.00285667173742
30
0
0
SPLINE
5
248
100
AcDbEntity
8
0
100
AcDbSpline
70
0
71
3
72
8
73
4
74
0
42
0.000000001
43
0.0000000001
44
0.0000000001
40
0
40
0
40
0
40
0
40
1
40
1
40
1
40
1
10
546.87145822075331
20
219.02002465176673
30
0
10
546.87145822075331
20
218.46773990193611
30
0
10
547.31917347092235
20
218.0200246517667
30
0
10
547.8714582207532
20
218.0200246517667
30
0
0
SPLINE
5
249
100
AcDbEntity
8
0
100
AcDbSpline
70
0
71
3
72
8
73
4
74
0
42
0.000000001
43
0.0000000001
44
0.0000000001
40
0
40
0
40
0
40
0
40
1
40
1
40
1
40
1
10
537.86145822075287
20
212.97002465176672
30
0
10
537.30917347092191
20
212.97002465176672
30
0
10
536.86145822075275
20
212.52230940159762
30
0
10
536.86145822075275
20
211.97002465176701
30
0
0
SPLINE
5
250
100
AcDbEntity
8
0
100
AcDbSpline
70
0
71
3
72
8
73
4
74
0
42
0.000000001
43
0.0000000001
44
0.0000000001
40
0
40
0
40
0
40
0
40
1
40
1
40
1
40
1
10
383.45066666468881
20
176.9858031730104
30
0
10
383.33584020853891
20
176.44558717004099
30
0
10
383.68068657163599
20
175.91457033760892
30
0
10
384.22090257460502
20
175.79974388145871
30
0
0
SPLINE
5
251
100
AcDbEntity
8
0
100
AcDbSpline
70
0
71
3
72
8
73
4
74
0
42
0.000000001
43
0.0000000001
44
0.0000000001
40
0
40
0
40
0
40
0
40
1
40
1
40
1
40
1
10
395.95867378341069
20
173.30480359164505
30
0
10
396.49888978637961
20
173.18997713549544
30
0
10
397.02990661881188
20
173.53482349859249
30
0
10
397.14473307496223
20
174.07503950156124
30
0
0
SPLINE
5
252
100
AcDbEntity
8
0
100
AcDbSpline
70
0
71
3
72
8
73
4
74
0
42
0.000000001
43
0.0000000001
44
0.0000000001
40
0
40
0
40
0
40
0
40
1
40
1
40
1
40
1
10
412.99537804003273
20
242.42309258165341
30
0
10
412.45516203706393
20
242.53791903780365
30
0
10
411.92414520463126
20
242.19307267470651
30
0
10
411.80931874848091
20
241.65285667173751
30
0
0
SPLINE
5
253
100
AcDbEntity
8
0
100
AcDbSpline
70
0
71
3
72
8
73
4
74
0
42
0.000000001
43
0.0000000001
44
0.0000000001
40
0
40
0
40
0
40
0
40
1
40
1
40
1
40
1
10
390.60867378341095
20
193.91480359164521
30
0
10
391.14888978637953
20
193.79997713549494
30
0
10
391.67990661881191
20
194.1448234985927
30
0
10
391.79473307496215
20
194.68503950156133
30
0
0
SPLINE
5
254
100
AcDbEntity
8
0
100
AcDbSpline
70
0
71
3
72
8
73
4
74
0
42
0.000000001
43
0.0000000001
44
0.0000000001
40
0
40
0
40
0
40
0
40
1
40
1
40
1
40
1
10
335.00145822075331
20
251.07002465176686
30
0
10
334.44917347092229
20
251.07002465176686
30
0
10
334.00145822075325
20
250.62230940159768
30
0
10
334.00145822075325
20
250.070024651767
30
0
0
SPLINE
5
255
100
AcDbEntity
8
0
100
AcDbSpline
70
0
71
3
72
8
73
4
74
0
42
0.000000001
43
0.0000000001
44
0.0000000001
40
0
40
0
40
0
40
0
40
1
40
1
40
1
40
1
10
541.24145822075297
20
219.08002465176693
30
0
10
541.79374297058393
20
219.08002465176693
30
0
10
542.24145822075297
20
219.52773990193603
30
0
10
542.24145822075297
20
220.08002465176702
30
0
0
SPLINE
5
256
100
AcDbEntity
8
0
100
AcDbSpline
70
0
71
3
72
8
73
4
74
0
42
0.000000001
43
0.0000000001
44
0.0000000001
40
0
40
0
40
0
40
0
40
1
40
1
40
1
40
1
10
579.92145822075327
20
231.02002465176682
30
0
10
579.92145822075327
20
231.57230940159786
30
0
10
579.47374297058423
20
232.0200246517669
30
0
10
578.92145822075327
20
232.0200246517669
30
0
0
SPLINE
5
257
100
AcDbEntity
8
0
100
AcDbSpline
70
0
71
3
72
8
73
4
74
0
42
0.000000001
43
0.0000000001
44
0.0000000001
40
0
40
0
40
0
40
0
40
1
40
1
40
1
40
1
10
560.87145822075308
20
231.02002465176682
30
0
10
560.87145822075308
20
231.57230940159786
30
0
10
560.42374297058404
20
232.0200246517669
30
0
10
559.87145822075308
20
232.0200246517669
30
0
0
SPLINE
5
258
100
AcDbEntity
8
0
100
AcDbSpline
70
0
71
3
72
8
73
4
74
0
42
0.000000001
43
0.0000000001
44
0.0000000001
40
0
40
0
40
0
40
0
40
1
40
1
40
1
40
1
10
393.58967336477519
20
226.052810710367
30
0
10
393.70449982092561
20
226.59302671333603
30
0
10
393.3596534578283
20
227.12404354576842
30
0
10
392.81943745485938
20
227.23887000191863
30
0
0
SPLINE
5
259
100
AcDbEntity
8
0
100
AcDbSpline
70
0
71
3
72
8
73
4
74
0
42
0.000000001
43
0.0000000001
44
0.0000000001
40
0
40
0
40
0
40
0
40
1
40
1
40
1
40
1
10
531.50145822075342
20
180.92002465176674
30
0
10
531.50145822075342
20
180.36773990193632
30
0
10
531.94917347092257
20
179.9200246517666
30
0
10
532.50145822075274
20
179.9200246517666
30
0
0
SPLINE
5
260
100
AcDbEntity
8
0
100
AcDbSpline
70
0
71
3
72
8
73
4
74
0
42
0.000000001
43
0.0000000001
44
0.0000000001
40
0
40
0
40
0
40
0
40
1
40
1
40
1
40
1
10
547.8714582207532
20
232.0200246517669
30
0
10
547.31917347092235
20
232.0200246517669
30
0
10
546.87145822075331
20
231.57230940159786
30
0
10
546.87145822075331
20
231.02002465176682
30
0
0
SPLINE
5
261
100
AcDbEntity
8
0
100
AcDbSpline
70
0
71
3
72
8
73
4
74
0
42
0.000000001
43
0.0000000001
44
0.0000000001
40
0
40
0
40
0
40
0
40
1
40
1
40
1
40
1
10
345.41145822075316
20
180.92002465176674
30
0
10
345.41145822075316
20
180.36773990193569
30
0
10
345.85917347092243
20
179.9200246517666
30
0
10
346.4114582207531
20
179.9200246517666
30
0
0
SPLINE
5
262
100
AcDbEntity
8
0
100
AcDbSpline
70
0
71
3
72
8
73
4
74
0
42
0.000000001
43
0.0000000001
44
0.0000000001
40
0
40
0
40
0
40
0
40
1
40
1
40
1
40
1
10
545.50145822075342
20
192.92002465176708
30
0
10
545.50145822075342
20
193.47230940159744
30
0
10
545.05374297058347
20
193.92002465176711
30
0
10
544.50145822075331
20
193.92002465176711
30
0
0
SPLINE
5
263
100
AcDbEntity
8
0
100
AcDbSpline
70
0
71
3
72
8
73
4
74
0
42
0.000000001
43
0.0000000001
44
0.0000000001
40
0
40
0
40
0
40
0
40
1
40
1
40
1
40
1
10
559.87145822075308
20
218.0200246517667
30
0
10
560.42374297058404
20
218.0200246517667
30
0
10
560.87145822075308
20
218.46773990193611
30
0
10
560.87145822075308
20
219.02002465176707
30
0
0
SPLINE
5
264
100
AcDbEntity
8
0
100
AcDbSpline
70
0
71
3
72
8
73
4
74
0
42
0.000000001
43
0.0000000001
44
0.0000000001
40
0
40
0
40
0
40
0
40
1
40
1
40
1
40
1
10
532.50145822075274
20
193.92002465176711
30
0
10
531.94917347092257
20
193.92002465176711
30
0
10
531.50145822075342
20
193.47230940159744
30
0
10
531.50145822075342
20
192.92002465176708
30
0
0
SPLINE
5
265
100
AcDbEntity
8
0
100
AcDbSpline
70
0
71
3
72
8
73
4
74
0
42
0.000000001
43
0.0000000001
44
0.0000000001
40
0
40
0
40
0
40
0
40
1
40
1
40
1
40
1
10
590.74145822075309
20
232.0200246517669
30
0
10
590.18917347092213
20
232.0200246517669
30
0
10
589.74145822075297
20
231.57230940159786
30
0
10
589.74145822075297
20
231.02002465176682
30
0
0
SPLINE
5
266
100
AcDbEntity
8
0
100
AcDbSpline
70
0
71
3
72
8
73
4
74
0
42
0.000000001
43
0.0000000001
44
0.0000000001
40
0
40
0
40
0
40
0
40
1
40
1
40
1
40
1
10
547.6014582207531
20
252.21002465176693
30
0
10
547.6014582207531
20
252.76230940159763
30
0
10
547.15374297058383
20
253.21002465176704
30
0
10
546.60145822075287
20
253.21002465176704
30
0
0
SPLINE
5
267
100
AcDbEntity
8
0
100
AcDbSpline
70
0
71
3
72
8
73
4
74
0
42
0.000000001
43
0.0000000001
44
0.0000000001
40
0
40
0
40
0
40
0
40
1
40
1
40
1
40
1
10
533.60145822075322
20
240.21002465176682
30
0
10
533.60145822075322
20
239.65773990193622
30
0
10
534.04917347092214
20
239.21002465176684
30
0
10
534.60145822075322
20
239.21002465176684
30
0
0
SPLINE
5
268
100
AcDbEntity
8
0
100
AcDbSpline
70
0
71
3
72
8
73
4
74
0
42
0.000000001
43
0.0000000001
44
0.0000000001
40
0
40
0
40
0
40
0
40
1
40
1
40
1
40
1
10
565.9214582207527
20
219.02002465176673
30
0
10
565.9214582207527
20
218.46773990193611
30
0
10
566.36917347092242
20
218.0200246517667
30
0
10
566.92145822075281
20
218.0200246517667
30
0
0
SPLINE
5
269
100
AcDbEntity
8
0
100
AcDbSpline
70
0
71
3
72
8
73
4
74
0
42
0.000000001
43
0.0000000001
44
0.0000000001
40
0
40
0
40
0
40
0
40
1
40
1
40
1
40
1
10
529.24145822075309
20
233.08002465176685
30
0
10
528.68917347092213
20
233.08002465176685
30
0
10
528.2414582207532
20
232.63230940159769
30
0
10
528.2414582207532
20
232.08002465176708
30
0
0
SPLINE
5
270
100
AcDbEntity
8
0
100
AcDbSpline
70
0
71
3
72
8
73
4
74
0
42
0.000000001
43
0.0000000001
44
0.0000000001
40
0
40
0
40
0
40
0
40
1
40
1
40
1
40
1
10
544.50145822075331
20
179.9200246517666
30
0
10
545.05374297058347
20
179.9200246517666
30
0
10
545.50145822075342
20
180.36773990193569
30
0
10
545.50145822075342
20
180.92002465176674
30
0
0
SPLINE
5
271
100
AcDbEntity
8
0
100
AcDbSpline
70
0
71
3
72
8
73
4
74
0
42
0.000000001
43
0.0000000001
44
0.0000000001
40
0
40
0
40
0
40
0
40
1
40
1
40
1
40
1
10
599.86145822075309
20
198.97002465176683
30
0
10
600.41374297058405
20
198.97002465176683
30
0
10
600.86145822075321
20
199.41773990193596
30
0
10
600.86145822075321
20
199.97002465176692
30
0
0
SPLINE
5
272
100
AcDbEntity
8
0
100
AcDbSpline
70
0
71
3
72
8
73
4
74
0
42
0.000000001
43
0.0000000001
44
0.0000000001
40
0
40
0
40
0
40
0
40
1
40
1
40
1
40
1
10
377.40066666468886
20
217.22580317301006
30
0
10
377.28584020853867
20
216.68558717004132
30
0
10
377.63068657163603
20
216.15457033760862
30
0
10
378.17090257460501
20
216.03974388145832
30
0
0
SPLINE
5
273
100
AcDbEntity
8
0
100
AcDbSpline
70
0
71
3
72
8
73
4
74
0
42
0.000000001
43
0.0000000001
44
0.0000000001
40
0
40
0
40
0
40
0
40
1
40
1
40
1
40
1
10
586.86145822075321
20
199.97002465176692
30
0
10
586.86145822075321
20
199.41773990193596
30
0
10
587.30917347092236
20
198.97002465176683
30
0
10
587.86145822075343
20
198.97002465176683
30
0
0
SPLINE
5
274
100
AcDbEntity
8
0
100
AcDbSpline
70
0
71
3
72
8
73
4
74
0
42
0.000000001
43
0.0000000001
44
0.0000000001
40
0
40
0
40
0
40
0
40
1
40
1
40
1
40
1
10
387.13166624605367
20
189.49381029173199
30
0
10
386.59145024308464
20
189.60863674788169
30
0
10
386.06043341065219
20
189.2637903847845
30
0
10
385.9456069545019
20
188.72357438181592
30
0
0
SPLINE
5
275
100
AcDbEntity
8
0
100
AcDbSpline
70
0
71
3
72
8
73
4
74
0
42
0.000000001
43
0.0000000001
44
0.0000000001
40
0
40
0
40
0
40
0
40
1
40
1
40
1
40
1
10
553.23145822075332
20
251.07002465176708
30
0
10
552.67917347092236
20
251.07002465176708
30
0
10
552.23145822075344
20
250.62230940159768
30
0
10
552.23145822075344
20
250.070024651767
30
0
0
SPLINE
5
276
100
AcDbEntity
8
0
100
AcDbSpline
70
0
71
3
72
8
73
4
74
0
42
0.000000001
43
0.0000000001
44
0.0000000001
40
0
40
0
40
0
40
0
40
1
40
1
40
1
40
1
10
552.23145822075344
20
238.07002465176691
30
0
10
552.23145822075344
20
237.51773990193601
30
0
10
552.67917347092236
20
237.07002465176689
30
0
10
553.23145822075332
20
237.07002465176689
30
0
0
SPLINE
5
277
100
AcDbEntity
8
0
100
AcDbSpline
70
0
71
3
72
8
73
4
74
0
42
0.000000001
43
0.0000000001
44
0.0000000001
40
0
40
0
40
0
40
0
40
1
40
1
40
1
40
1
10
536.86145822075275
20
199.97002465176692
30
0
10
536.86145822075275
20
199.41773990193596
30
0
10
537.30917347092191
20
198.97002465176683
30
0
10
537.86145822075287
20
198.97002465176683
30
0
0
SPLINE
5
278
100
AcDbEntity
8
0
100
AcDbSpline
70
0
71
3
72
8
73
4
74
0
42
0.000000001
43
0.0000000001
44
0.0000000001
40
0
40
0
40
0
40
0
40
1
40
1
40
1
40
1
10
600.86145822075321
20
211.97002465176701
30
0
10
600.86145822075321
20
212.52230940159762
30
0
10
600.41374297058405
20
212.97002465176672
30
0
10
599.86145822075309
20
212.97002465176703
30
0
0
SPLINE
5
279
100
AcDbEntity
8
0
100
AcDbSpline
70
0
71
3
72
8
73
4
74
0
42
0.000000001
43
0.0000000001
44
0.0000000001
40
0
40
0
40
0
40
0
40
1
40
1
40
1
40
1
10
587.86145822075343
20
212.97002465176703
30
0
10
587.30917347092236
20
212.97002465176703
30
0
10
586.86145822075321
20
212.52230940159762
30
0
10
586.86145822075321
20
211.97002465176701
30
0
0
SPLINE
5
280
100
AcDbEntity
8
0
100
AcDbSpline
70
0
71
3
72
8
73
4
74
0
42
0.000000001
43
0.0000000001
44
0.0000000001
40
0
40
0
40
0
40
0
40
1
40
1
40
1
40
1
10
566.92145822075281
20
232.0200246517669
30
0
10
566.36917347092242
20
232.0200246517669
30
0
10
565.9214582207527
20
231.57230940159786
30
0
10
565.9214582207527
20
231.02002465176682
30
0
0
SPLINE
5
281
100
AcDbEntity
8
0
100
AcDbSpline
70
0
71
3
72
8
73
4
74
0
42
0.000000001
43
0.0000000001
44
0.0000000001
40
0
40
0
40
0
40
0
40
1
40
1
40
1
40
1
10
568.91145822075282
20
198.97002465176683
30
0
10
569.46374297058389
20
198.97002465176683
30
0
10
569.91145822075282
20
199.41773990193596
30
0
10
569.91145822075282
20
199.97002465176692
30
0
0
SPLINE
5
282
100
AcDbEntity
8
0
100
AcDbSpline
70
0
71
3
72
8
73
4
74
0
42
0.000000001
43
0.0000000001
44
0.0000000001
40
0
40
0
40
0
40
0
40
1
40
1
40
1
40
1
10
542.24145822075297
20
232.08002465176685
30
0
10
542.24145822075297
20
232.63230940159769
30
0
10
541.79374297058393
20
233.08002465176685
30
0
10
541.24145822075297
20
233.08002465176685
30
0
0
SPLINE
5
283
100
AcDbEntity
8
0
100
AcDbSpline
70
0
71
3
72
8
73
4
74
0
42
0.000000001
43
0.0000000001
44
0.0000000001
40
0
40
0
40
0
40
0
40
1
40
1
40
1
40
1
10
555.91145822075305
20
199.97002465176692
30
0
10
555.91145822075305
20
199.41773990193596
30
0
10
556.3591734709222
20
198.97002465176683
30
0
10
556.91145822075305
20
198.97002465176683
30
0
0
SPLINE
5
284
100
AcDbEntity
8
0
100
AcDbSpline
70
0
71
3
72
8
73
4
74
0
42
0.000000001
43
0.0000000001
44
0.0000000001
40
0
40
0
40
0
40
0
40
1
40
1
40
1
40
1
10
314.95145822075301
20
238.07002465176691
30
0
10
314.95145822075301
20
237.51773990193601
30
0
10
315.39917347092251
20
237.07002465176689
30
0
10
315.95145822075312
20
237.07002465176689
30
0
0
SPLINE
5
285
100
AcDbEntity
8
0
100
AcDbSpline
70
0
71
3
72
8
73
4
74
0
42
0.000000001
43
0.0000000001
44
0.0000000001
40
0
40
0
40
0
40
0
40
1
40
1
40
1
40
1
10
378.10066666468879
20
197.59580317300981
30
0
10
377.98584020853889
20
197.05558717004124
30
0
10
378.33068657163602
20
196.52457033760842
30
0
10
378.87090257460505
20
196.40974388145821
30
0
0
SPLINE
5
286
100
AcDbEntity
8
0
100
AcDbSpline
70
0
71
3
72
8
73
4
74
0
42
0.000000001
43
0.0000000001
44
0.0000000001
40
0
40
0
40
0
40
0
40
1
40
1
40
1
40
1
10
556.91145822075305
20
212.97002465176703
30
0
10
556.3591734709222
20
212.97002465176703
30
0
10
555.91145822075305
20
212.52230940159762
30
0
10
555.91145822075305
20
211.97002465176701
30
0
0
SPLINE
5
287
100
AcDbEntity
8
0
100
AcDbSpline
70
0
71
3
72
8
73
4
74
0
42
0.000000001
43
0.0000000001
44
0.0000000001
40
0
40
0
40
0
40
0
40
1
40
1
40
1
40
1
10
394.28967336477547
20
206.4228107103672
30
0
10
394.40449982092559
20
206.96302671333584
30
0
10
394.0596534578284
20
207.49404354576853
30
0
10
393.51943745485937
20
207.60887000191849
30
0
0
SPLINE
5
288
100
AcDbEntity
8
0
100
AcDbSpline
70
0
71
3
72
8
73
4
74
0
42
0.000000001
43
0.0000000001
44
0.0000000001
40
0
40
0
40
0
40
0
40
1
40
1
40
1
40
1
10
327.95145822075318
20
237.07002465176689
30
0
10
328.5037429705838
20
237.07002465176689
30
0
10
328.95145822075324
20
237.51773990193601
30
0
10
328.95145822075324
20
238.07002465176691
30
0
0
SPLINE
5
289
100
AcDbEntity
8
0
100
AcDbSpline
70
0
71
3
72
8
73
4
74
0
42
0.000000001
43
0.0000000001
44
0.0000000001
40
0
40
0
40
0
40
0
40
1
40
1
40
1
40
1
10
528.2414582207532
20
220.08002465176702
30
0
10
528.2414582207532
20
219.52773990193603
30
0
10
528.68917347092213
20
219.08002465176693
30
0
10
529.24145822075309
20
219.08002465176693
30
0
0
SPLINE
5
290
100
AcDbEntity
8
0
100
AcDbSpline
70
0
71
3
72
8
73
4
74
0
42
0.000000001
43
0.0000000001
44
0.0000000001
40
0
40
0
40
0
40
0
40
1
40
1
40
1
40
1
10
534.60145822075322
20
253.21002465176704
30
0
10
534.04917347092214
20
253.21002465176704
30
0
10
533.60145822075322
20
252.76230940159792
30
0
10
533.60145822075322
20
252.21002465176693
30
0
0
SPLINE
5
291
100
AcDbEntity
8
0
100
AcDbSpline
70
0
71
3
72
8
73
4
74
0
42
0.000000001
43
0.0000000001
44
0.0000000001
40
0
40
0
40
0
40
0
40
1
40
1
40
1
40
1
10
328.95145822075324
20
250.070024651767
30
0
10
328.95145822075324
20
250.62230940159768
30
0
10
328.5037429705838
20
251.07002465176686
30
0
10
327.95145822075318
20
251.07002465176686
30
0
0
SPLINE
5
292
100
AcDbEntity
8
0
100
AcDbSpline
70
0
71
3
72
8
73
4
74
0
42
0.000000001
43
0.0000000001
44
0.0000000001
40
0
40
0
40
0
40
0
40
1
40
1
40
1
40
1
10
425.50338515875438
20
238.74209300028869
30
0
10
425.61821161490451
20
239.28230900325769
30
0
10
425.27336525180715
20
239.81332583568999
30
0
10
424.73314924883817
20
239.92815229184032
30
0
0
SPLINE
5
293
100
AcDbEntity
8
0
100
AcDbSpline
70
0
71
3
72
8
73
4
74
0
42
0.000000001
43
0.0000000001
44
0.0000000001
40
0
40
0
40
0
40
0
40
1
40
1
40
1
40
1
10
603.74145822075297
20
231.02002465176682
30
0
10
603.74145822075297
20
231.57230940159786
30
0
10
603.29374297058371
20
232.0200246517669
30
0
10
602.74145822075343
20
232.0200246517669
30
0
0
SPLINE
5
294
100
AcDbEntity
8
0
100
AcDbSpline
70
0
71
3
72
8
73
4
74
0
42
0.000000001
43
0.0000000001
44
0.0000000001
40
0
40
0
40
0
40
0
40
1
40
1
40
1
40
1
10
315.95145822075312
20
251.07002465176686
30
0
10
315.39917347092251
20
251.07002465176686
30
0
10
314.95145822075301
20
250.62230940159768
30
0
10
314.95145822075301
20
250.070024651767
30
0
0
SPLINE
5
295
100
AcDbEntity
8
0
100
AcDbSpline
70
0
71
3
72
8
73
4
74
0
42
0.000000001
43
0.0000000001
44
0.0000000001
40
0
40
0
40
0
40
0
40
1
40
1
40
1
40
1
10
566.23145822075321
20
250.070024651767
30
0
10
566.23145822075321
20
250.62230940159768
30
0
10
565.78374297058406
20
251.07002465176686
30
0
10
565.23145822075298
20
251.07002465176686
30
0
0
SPLINE
5
296
100
AcDbEntity
8
0
100
AcDbSpline
70
0
71
3
72
8
73
4
74
0
42
0.000000001
43
0.0000000001
44
0.0000000001
40
0
40
0
40
0
40
0
40
1
40
1
40
1
40
1
10
602.74145822075343
20
218.0200246517667
30
0
10
603.29374297058371
20
218.0200246517667
30
0
10
603.74145822075297
20
218.46773990193611
30
0
10
603.74145822075297
20
219.02002465176673
30
0
0
SPLINE
5
297
100
AcDbEntity
8
0
100
AcDbSpline
70
0
71
3
72
8
73
4
74
0
42
0.000000001
43
0.0000000001
44
0.0000000001
40
0
40
0
40
0
40
0
40
1
40
1
40
1
40
1
10
358.4114582207531
20
179.9200246517666
30
0
10
358.96374297058378
20
179.9200246517666
30
0
10
359.41145822075322
20
180.36773990193569
30
0
10
359.41145822075322
20
180.92002465176674
30
0
0
SPLINE
5
298
100
AcDbEntity
8
0
100
AcDbSpline
70
0
71
3
72
8
73
4
74
0
42
0.000000001
43
0.0000000001
44
0.0000000001
40
0
40
0
40
0
40
0
40
1
40
1
40
1
40
1
10
389.90867378341051
20
213.54480359164535
30
0
10
390.44888978637948
20
213.42997713549499
30
0
10
390.97990661881192
20
213.7748234985925
30
0
10
391.09473307496216
20
214.31503950156153
30
0
0
SPLINE
5
299
100
AcDbEntity
8
0
100
AcDbSpline
70
0
71
3
72
8
73
4
74
0
42
0.000000001
43
0.0000000001
44
0.0000000001
40
0
40
0
40
0
40
0
40
1
40
1
40
1
40
1
10
409.31437845866799
20
229.9150854629317
30
0
10
409.19955200251769
20
229.37486945996301
30
0
10
409.54439836561517
20
228.84385262753034
30
0
10
410.08461436858397
20
228.72902617137996
30
0
0
SPLINE
5
300
100
AcDbEntity
8
0
100
AcDbSpline
70
0
71
3
72
8
73
4
74
0
42
0.000000001
43
0.0000000001
44
0.0000000001
40
0
40
0
40
0
40
0
40
1
40
1
40
1
40
1
10
565.23145822075298
20
237.07002465176689
30
0
10
565.78374297058406
20
237.07002465176689
30
0
10
566.23145822075321
20
237.51773990193601
30
0
10
566.23145822075321
20
238.07002465176657
30
0
0
SPLINE
5
301
100
AcDbEntity
8
0
100
AcDbSpline
70
0
71
3
72
8
73
4
74
0
42
0.000000001
43
0.0000000001
44
0.0000000001
40
0
40
0
40
0
40
0
40
1
40
1
40
1
40
1
10
578.92145822075327
20
218.0200246517667
30
0
10
579.47374297058354
20
218.0200246517667
30
0
10
579.92145822075327
20
218.46773990193611
30
0
10
579.92145822075327
20
219.02002465176673
30
0
0
SPLINE
5
302
100
AcDbEntity
8
0
100
AcDbSpline
70
0
71
3
72
8
73
4
74
0
42
0.000000001
43
0.0000000001
44
0.0000000001
40
0
40
0
40
0
40
0
40
1
40
1
40
1
40
1
10
549.86145822075332
20
198.97002465176683
30
0
10
550.41374297058417
20
198.97002465176683
30
0
10
550.86145822075332
20
199.41773990193596
30
0
10
550.86145822075332
20
199.97002465176692
30
0
0
SPLINE
5
303
100
AcDbEntity
8
0
100
AcDbSpline
70
0
71
3
72
8
73
4
74
0
42
0.000000001
43
0.0000000001
44
0.0000000001
40
0
40
0
40
0
40
0
40
1
40
1
40
1
40
1
10
421.82238557738964
20
226.23408588156704
30
0
10
422.36260158035833
20
226.11925942541671
30
0
10
422.89361841279106
20
226.46410578851419
30
0
10
423.00844486894135
20
227.00432179148308
30
0
0
SPLINE
5
304
100
AcDbEntity
8
0
100
AcDbSpline
70
0
71
3
72
8
73
4
74
0
42
0.000000001
43
0.0000000001
44
0.0000000001
40
0
40
0
40
0
40
0
40
1
40
1
40
1
40
1
10
546.60145822075287
20
239.21002465176684
30
0
10
547.15374297058383
20
239.21002465176684
30
0
10
547.6014582207531
20
239.65773990193622
30
0
10
547.6014582207531
20
240.21002465176682
30
0
0
SPLINE
5
305
100
AcDbEntity
8
0
100
AcDbSpline
70
0
71
3
72
8
73
4
74
0
42
0.000000001
43
0.0000000001
44
0.0000000001
40
0
40
0
40
0
40
0
40
1
40
1
40
1
40
1
10
381.78166624605348
20
210.1038102917318
30
0
10
381.24145024308484
20
210.21863674788182
30
0
10
380.71043341065217
20
209.87379038478474
30
0
10
380.59560695450216
20
209.33357438181602
30
0
0
SPLINE
5
306
100
AcDbEntity
8
0
100
AcDbSpline
70
0
71
3
72
8
73
4
74
0
42
0.000000001
43
0.0000000001
44
0.0000000001
40
0
40
0
40
0
40
0
40
1
40
1
40
1
40
1
10
550.86145822075332
20
211.97002465176701
30
0
10
550.86145822075332
20
212.52230940159762
30
0
10
550.41374297058417
20
212.97002465176703
30
0
10
549.86145822075332
20
212.97002465176703
30
0
0
SPLINE
5
307
100
AcDbEntity
8
0
100
AcDbSpline
70
0
71
3
72
8
73
4
74
0
42
0.000000001
43
0.0000000001
44
0.0000000001
40
0
40
0
40
0
40
0
40
1
40
1
40
1
40
1
10
399.63967336477538
20
185.81281071036739
30
0
10
399.75449982092556
20
186.35302671333602
30
0
10
399.40965345782814
20
186.88404354576872
30
0
10
398.86943745485945
20
186.99887000191842
30
0
0
SPLINE
5
308
100
AcDbEntity
8
0
100
AcDbSpline
70
0
71
3
72
8
73
4
74
0
42
0.000000001
43
0.0000000001
44
0.0000000001
40
0
40
0
40
0
40
0
40
1
40
1
40
1
40
1
10
359.41145822075322
20
192.92002465176708
30
0
10
359.41145822075322
20
193.47230940159744
30
0
10
358.96374297058378
20
193.92002465176711
30
0
10
358.4114582207531
20
193.92002465176711
30
0
0
SPLINE
5
309
100
AcDbEntity
8
0
100
AcDbSpline
70
0
71
3
72
8
73
4
74
0
42
0.000000001
43
0.0000000001
44
0.0000000001
40
0
40
0
40
0
40
0
40
1
40
1
40
1
40
1
10
301.77145822075335
20
233.16002465176669
30
0
10
301.77145822075289
20
233.71230940159768
30
0
10
301.32374297058385
20
234.16002465176683
30
0
10
300.77145822075317
20
234.16002465176683
30
0
0
SPLINE
5
310
100
AcDbEntity
8
0
100
AcDbSpline
70
0
71
3
72
8
73
4
74
0
42
0.000000001
43
0.0000000001
44
0.0000000001
40
0
40
0
40
0
40
0
40
1
40
1
40
1
40
1
10
305.93145822075331
20
252.21002465176693
30
0
10
305.93145822075331
20
252.76230940159763
30
0
10
305.48374297058388
20
253.21002465176704
30
0
10
304.93145822075337
20
253.21002465176704
30
0
0
SPLINE
5
311
100
AcDbEntity
8
0
100
AcDbSpline
70
0
71
3
72
8
73
4
74
0
42
0.000000001
43
0.0000000001
44
0.0000000001
40
0
40
0
40
0
40
0
40
1
40
1
40
1
40
1
10
315.46145822075312
20
193.92002465176711
30
0
10
314.90917347092238
20
193.92002465176711
30
0
10
314.46145822075312
20
193.47230940159744
30
0
10
314.46145822075312
20
192.92002465176708
30
0
0
SPLINE
5
312
100
AcDbEntity
8
0
100
AcDbSpline
70
0
71
3
72
8
73
4
74
0
42
0.000000001
43
0.0000000001
44
0.0000000001
40
0
40
0
40
0
40
0
40
1
40
1
40
1
40
1
10
594.49705822075271
20
161.82202465176712
30
0
10
594.49705822075271
20
161.26973990193613
30
0
10
594.94477347092243
20
160.82202465176704
30
0
10
595.49705822075271
20
160.82202465176704
30
0
0
LINE
5
313
100
AcDbEntity
8
0
100
AcDbLine
10
486.33359769302501
20
184.76285667173741
30
0
11
488.82853798283804
21
173.02508546293194
31
0
0
LINE
5
314
100
AcDbEntity
8
0
100
AcDbLine
10
477.99953128275183
20
202.4620930002888
30
0
11
480.49447157256486
21
190.72432179148291
31
0
0
SPLINE
5
315
100
AcDbEntity
8
0
100
AcDbSpline
70
0
71
3
72
8
73
4
74
0
42
0.000000001
43
0.0000000001
44
0.0000000001
40
0
40
0
40
0
40
0
40
1
40
1
40
1
40
1
10
595.49705822075339
20
174.82202465176692
30
0
10
594.94477347092243
20
174.82202465176692
30
0
10
594.49705822075271
20
174.37430940159783
30
0
10
594.49705822075271
20
173.8220246517669
30
0
0
SPLINE
5
316
100
AcDbEntity
8
0
100
AcDbSpline
70
0
71
3
72
8
73
4
74
0
42
0.000000001
43
0.0000000001
44
0.0000000001
40
0
40
0
40
0
40
0
40
1
40
1
40
1
40
1
10
347.00145822075308
20
237.07002465176689
30
0
10
347.55374297058404
20
237.07002465176689
30
0
10
348.00145822075308
20
237.51773990193601
30
0
10
348.00145822075308
20
238.07002465176691
30
0
0
LINE
5
317
100
AcDbEntity
8
0
100
AcDbLine
10
514.71695487070997
20
169.78352842044512
30
0
11
517.211895160523
21
158.0457572116396
31
0
0
SPLINE
5
318
100
AcDbEntity
8
0
100
AcDbSpline
70
0
71
3
72
8
73
4
74
0
42
0.000000001
43
0.0000000001
44
0.0000000001
40
0
40
0
40
0
40
0
40
1
40
1
40
1
40
1
10
569.91145822075282
20
211.97002465176701
30
0
10
569.91145822075282
20
212.52230940159762
30
0
10
569.46374297058389
20
212.97002465176672
30
0
10
568.91145822075282
20
212.97002465176703
30
0
0
SPLINE
5
319
100
AcDbEntity
8
0
100
AcDbSpline
70
0
71
3
72
8
73
4
74
0
42
0.000000001
43
0.0000000001
44
0.0000000001
40
0
40
0
40
0
40
0
40
1
40
1
40
1
40
1
10
322.10145822075322
20
198.97002465176683
30
0
10
322.65374297058418
20
198.97002465176683
30
0
10
323.10145822075322
20
199.41773990193596
30
0
10
323.10145822075322
20
199.97002465176692
30
0
0
SPLINE
5
320
100
AcDbEntity
8
0
100
AcDbSpline
70
0
71
3
72
8
73
4
74
0
42
0.000000001
43
0.0000000001
44
0.0000000001
40
0
40
0
40
0
40
0
40
1
40
1
40
1
40
1
10
308.32145822075296
20
174.8700246517669
30
0
10
307.7691734709224
20
174.8700246517669
30
0
10
307.32145822075296
20
174.42230940159791
30
0
10
307.32145822075296
20
173.8700246517669
30
0
0
SPLINE
5
321
100
AcDbEntity
8
0
100
AcDbSpline
70
0
71
3
72
8
73
4
74
0
42
0.000000001
43
0.0000000001
44
0.0000000001
40
0
40
0
40
0
40
0
40
1
40
1
40
1
40
1
10
329.55145822075315
20
231.02002465176682
30
0
10
329.55145822075315
20
231.57230940159786
30
0
10
329.10374297058382
20
232.0200246517669
30
0
10
328.55145822075315
20
232.0200246517669
30
0
0
SPLINE
5
322
100
AcDbEntity
8
0
100
AcDbSpline
70
0
71
3
72
8
73
4
74
0
42
0.000000001
43
0.0000000001
44
0.0000000001
40
0
40
0
40
0
40
0
40
1
40
1
40
1
40
1
10
340.36145822075298
20
232.0200246517669
30
0
10
339.80917347092247
20
232.0200246517669
30
0
10
339.36145822075332
20
231.57230940159786
30
0
10
339.36145822075332
20
231.02002465176682
30
0
0
SPLINE
5
323
100
AcDbEntity
8
0
100
AcDbSpline
70
0
71
3
72
8
73
4
74
0
42
0.000000001
43
0.0000000001
44
0.0000000001
40
0
40
0
40
0
40
0
40
1
40
1
40
1
40
1
10
287.77145822075312
20
221.16002465176703
30
0
10
287.77145822075312
20
220.60773990193599
30
0
10
288.21917347092256
20
220.16002465176689
30
0
10
288.77145822075312
20
220.16002465176689
30
0
0
SPLINE
5
324
100
AcDbEntity
8
0
100
AcDbSpline
70
0
71
3
72
8
73
4
74
0
42
0.000000001
43
0.0000000001
44
0.0000000001
40
0
40
0
40
0
40
0
40
1
40
1
40
1
40
1
10
608.49705822075327
20
173.8220246517669
30
0
10
608.49705822075327
20
174.37430940159783
30
0
10
608.04934297058423
20
174.82202465176692
30
0
10
607.49705822075327
20
174.82202465176692
30
0
0
SPLINE
5
325
100
AcDbEntity
8
0
100
AcDbSpline
70
0
71
3
72
8
73
4
74
0
42
0.000000001
43
0.0000000001
44
0.0000000001
40
0
40
0
40
0
40
0
40
1
40
1
40
1
40
1
10
321.32145822075324
20
173.8700246517669
30
0
10
321.32145822075324
20
174.42230940159791
30
0
10
320.87374297058409
20
174.8700246517669
30
0
10
320.32145822075313
20
174.8700246517669
30
0
0
SPLINE
5
326
100
AcDbEntity
8
0
100
AcDbSpline
70
0
71
3
72
8
73
4
74
0
42
0.000000001
43
0.0000000001
44
0.0000000001
40
0
40
0
40
0
40
0
40
1
40
1
40
1
40
1
10
328.46145822075323
20
192.92002465176708
30
0
10
328.46145822075323
20
193.47230940159744
30
0
10
328.01374297058396
20
193.92002465176711
30
0
10
327.46145822075323
20
193.92002465176711
30
0
0
SPLINE
5
327
100
AcDbEntity
8
0
100
AcDbSpline
70
0
71
3
72
8
73
4
74
0
42
0.000000001
43
0.0000000001
44
0.0000000001
40
0
40
0
40
0
40
0
40
1
40
1
40
1
40
1
10
310.10145822075299
20
212.97002465176703
30
0
10
309.54917347092237
20
212.97002465176703
30
0
10
309.10145822075333
20
212.52230940159762
30
0
10
309.10145822075299
20
211.97002465176701
30
0
0
SPLINE
5
328
100
AcDbEntity
8
0
100
AcDbSpline
70
0
71
3
72
8
73
4
74
0
42
0.000000001
43
0.0000000001
44
0.0000000001
40
0
40
0
40
0
40
0
40
1
40
1
40
1
40
1
10
352.36145822075309
20
218.02002465176702
30
0
10
352.91374297058411
20
218.02002465176702
30
0
10
353.36145822075309
20
218.46773990193611
30
0
10
353.36145822075309
20
219.02002465176673
30
0
0
SPLINE
5
329
100
AcDbEntity
8
0
100
AcDbSpline
70
0
71
3
72
8
73
4
74
0
42
0.000000001
43
0.0000000001
44
0.0000000001
40
0
40
0
40
0
40
0
40
1
40
1
40
1
40
1
10
292.93145822075314
20
253.21002465176704
30
0
10
292.37917347092264
20
253.21002465176704
30
0
10
291.93145822075314
20
252.76230940159763
30
0
10
291.93145822075314
20
252.21002465176693
30
0
0
SPLINE
5
330
100
AcDbEntity
8
0
100
AcDbSpline
70
0
71
3
72
8
73
4
74
0
42
0.000000001
43
0.0000000001
44
0.0000000001
40
0
40
0
40
0
40
0
40
1
40
1
40
1
40
1
10
365.64145822075318
20
239.21002465176684
30
0
10
366.1937429705838
20
239.21002465176684
30
0
10
366.64145822075318
20
239.65773990193622
30
0
10
366.64145822075318
20
240.21002465176682
30
0
0
SPLINE
5
331
100
AcDbEntity
8
0
100
AcDbSpline
70
0
71
3
72
8
73
4
74
0
42
0.000000001
43
0.0000000001
44
0.0000000001
40
0
40
0
40
0
40
0
40
1
40
1
40
1
40
1
10
328.55145822075315
20
218.02002465176702
30
0
10
329.10374297058382
20
218.02002465176702
30
0
10
329.55145822075315
20
218.46773990193611
30
0
10
329.55145822075315
20
219.02002465176673
30
0
0
SPLINE
5
332
100
AcDbEntity
8
0
100
AcDbSpline
70
0
71
3
72
8
73
4
74
0
42
0.000000001
43
0.0000000001
44
0.0000000001
40
0
40
0
40
0
40
0
40
1
40
1
40
1
40
1
10
334.00145822075325
20
238.07002465176691
30
0
10
334.00145822075325
20
237.51773990193601
30
0
10
334.44917347092229
20
237.07002465176689
30
0
10
335.00145822075331
20
237.07002465176689
30
0
0
SPLINE
5
333
100
AcDbEntity
8
0
100
AcDbSpline
70
0
71
3
72
8
73
4
74
0
42
0.000000001
43
0.0000000001
44
0.0000000001
40
0
40
0
40
0
40
0
40
1
40
1
40
1
40
1
10
288.77145822075312
20
234.16002465176683
30
0
10
288.21917347092256
20
234.16002465176683
30
0
10
287.77145822075312
20
233.71230940159768
30
0
10
287.77145822075312
20
233.16002465176669
30
0
0
SPLINE
5
334
100
AcDbEntity
8
0
100
AcDbSpline
70
0
71
3
72
8
73
4
74
0
42
0.000000001
43
0.0000000001
44
0.0000000001
40
0
40
0
40
0
40
0
40
1
40
1
40
1
40
1
10
296.70145822075318
20
201.11002465176671
30
0
10
297.2537429705838
20
201.11002465176671
30
0
10
297.70145822075324
20
201.55773990193612
30
0
10
297.70145822075324
20
202.11002465176682
30
0
0
SPLINE
5
335
100
AcDbEntity
8
0
100
AcDbSpline
70
0
71
3
72
8
73
4
74
0
42
0.000000001
43
0.0000000001
44
0.0000000001
40
0
40
0
40
0
40
0
40
1
40
1
40
1
40
1
10
323.10145822075322
20
211.97002465176701
30
0
10
323.10145822075322
20
212.52230940159762
30
0
10
322.65374297058418
20
212.97002465176672
30
0
10
322.10145822075322
20
212.97002465176672
30
0
0
SPLINE
5
336
100
AcDbEntity
8
0
100
AcDbSpline
70
0
71
3
72
8
73
4
74
0
42
0.000000001
43
0.0000000001
44
0.0000000001
40
0
40
0
40
0
40
0
40
1
40
1
40
1
40
1
10
353.36145822075309
20
231.02002465176682
30
0
10
353.36145822075309
20
231.57230940159786
30
0
10
352.91374297058411
20
232.0200246517669
30
0
10
352.36145822075309
20
232.0200246517669
30
0
0
SPLINE
5
337
100
AcDbEntity
8
0
100
AcDbSpline
70
0
71
3
72
8
73
4
74
0
42
0.000000001
43
0.0000000001
44
0.0000000001
40
0
40
0
40
0
40
0
40
1
40
1
40
1
40
1
10
366.64145822075318
20
252.21002465176693
30
0
10
366.64145822075318
20
252.76230940159763
30
0
10
366.1937429705838
20
253.21002465176704
30
0
10
365.64145822075318
20
253.21002465176704
30
0
0
SPLINE
5
338
100
AcDbEntity
8
0
100
AcDbSpline
70
0
71
3
72
8
73
4
74
0
42
0.000000001
43
0.0000000001
44
0.0000000001
40
0
40
0
40
0
40
0
40
1
40
1
40
1
40
1
10
353.64145822075318
20
253.21002465176704
30
0
10
353.08917347092245
20
253.21002465176704
30
0
10
352.64145822075312
20
252.76230940159763
30
0
10
352.64145822075312
20
252.21002465176693
30
0
0
SPLINE
5
339
100
AcDbEntity
8
0
100
AcDbSpline
70
0
71
3
72
8
73
4
74
0
42
0.000000001
43
0.0000000001
44
0.0000000001
40
0
40
0
40
0
40
0
40
1
40
1
40
1
40
1
10
607.49705822075327
20
160.82202465176704
30
0
10
608.04934297058423
20
160.82202465176704
30
0
10
608.49705822075327
20
161.26973990193613
30
0
10
608.49705822075327
20
161.82202465176712
30
0
0
SPLINE
5
340
100
AcDbEntity
8
0
100
AcDbSpline
70
0
71
3
72
8
73
4
74
0
42
0.000000001
43
0.0000000001
44
0.0000000001
40
0
40
0
40
0
40
0
40
1
40
1
40
1
40
1
10
339.36145822075332
20
219.02002465176673
30
0
10
339.36145822075332
20
218.46773990193611
30
0
10
339.80917347092247
20
218.0200246517667
30
0
10
340.36145822075332
20
218.02002465176702
30
0
0
LINE
5
341
100
AcDbEntity
8
0
100
AcDbLine
10
469.79988589904644
20
239.67213896165913
30
0
11
472.29482618885947
21
227.93436775285323
31
0
0
LINE
5
342
100
AcDbEntity
8
0
100
AcDbLine
10
454.4268190701377
20
203.64336817148882
30
0
11
466.16459027894325
21
206.13830846130182
31
0
0
SPLINE
5
343
100
AcDbEntity
8
0
100
AcDbSpline
70
0
71
3
72
8
73
4
74
0
42
0.000000001
43
0.0000000001
44
0.0000000001
40
0
40
0
40
0
40
0
40
1
40
1
40
1
40
1
10
550.55145822075303
20
180.92002465176674
30
0
10
550.55145822075303
20
180.36773990193569
30
0
10
550.99917347092276
20
179.9200246517666
30
0
10
551.55145822075303
20
179.9200246517666
30
0
0
LINE
5
344
100
AcDbEntity
8
0
100
AcDbLine
10
504.96730948700417
20
188.72357438181592
30
0
11
507.46224977681715
21
176.9858031730104
31
0
0
LINE
5
345
100
AcDbEntity
8
0
100
AcDbLine
10
451.51605539868922
20
217.33743458176181
30
0
11
463.25382660749472
21
219.8323748715751
31
0
0
SPLINE
5
346
100
AcDbEntity
8
0
100
AcDbSpline
70
0
71
3
72
8
73
4
74
0
42
0.000000001
43
0.0000000001
44
0.0000000001
40
0
40
0
40
0
40
0
40
1
40
1
40
1
40
1
10
316.55145822075315
20
232.0200246517669
30
0
10
315.99917347092219
20
232.0200246517669
30
0
10
315.55145822075298
20
231.57230940159786
30
0
10
315.55145822075298
20
231.02002465176682
30
0
0
LINE
5
347
100
AcDbEntity
8
0
100
AcDbLine
10
475.07719078062536
20
163.90958771199689
30
0
11
486.81496198943086
21
166.4045280018106
31
0
0
LINE
5
348
100
AcDbEntity
8
0
100
AcDbLine
10
454.00581948877266
20
177.8913752902105
30
0
11
456.50075977858643
21
166.15360408140492
31
0
0
SPLINE
5
349
100
AcDbEntity
8
0
100
AcDbSpline
70
0
71
3
72
8
73
4
74
0
42
0.000000001
43
0.0000000001
44
0.0000000001
40
0
40
0
40
0
40
0
40
1
40
1
40
1
40
1
10
314.46145822075312
20
180.92002465176674
30
0
10
314.46145822075312
20
180.36773990193569
30
0
10
314.90917347092238
20
179.9200246517666
30
0
10
315.46145822075312
20
179.9200246517666
30
0
0
SPLINE
5
350
100
AcDbEntity
8
0
100
AcDbSpline
70
0
71
3
72
8
73
4
74
0
42
0.000000001
43
0.0000000001
44
0.0000000001
40
0
40
0
40
0
40
0
40
1
40
1
40
1
40
1
10
283.70145822075301
20
202.11002465176682
30
0
10
283.70145822075301
20
201.55773990193612
30
0
10
284.14917347092239
20
201.11002465176671
30
0
10
284.70145822075312
20
201.11002465176671
30
0
0
LINE
5
351
100
AcDbEntity
8
0
100
AcDbLine
10
450.74581948877295
20
216.15137529021052
30
0
11
453.24075977858598
21
204.41360408140463
31
0
0
LINE
5
352
100
AcDbEntity
8
0
100
AcDbLine
10
478.76976719266793
20
203.64815229184043
30
0
11
490.50753840147337
21
206.14309258165343
31
0
0
SPLINE
5
353
100
AcDbEntity
8
0
100
AcDbSpline
70
0
71
3
72
8
73
4
74
0
42
0.000000001
43
0.0000000001
44
0.0000000001
40
0
40
0
40
0
40
0
40
1
40
1
40
1
40
1
10
300.77145822075317
20
220.16002465176689
30
0
10
301.32374297058385
20
220.16002465176689
30
0
10
301.77145822075335
20
220.60773990193599
30
0
10
301.77145822075335
20
221.16002465176703
30
0
0
LINE
5
354
100
AcDbEntity
8
0
100
AcDbLine
10
459.36581948877267
20
198.5013752902106
30
0
11
461.86075977858587
21
186.76360408140442
31
0
0
SPLINE
5
355
100
AcDbEntity
8
0
100
AcDbSpline
70
0
71
3
72
8
73
4
74
0
42
0.000000001
43
0.0000000001
44
0.0000000001
40
0
40
0
40
0
40
0
40
1
40
1
40
1
40
1
10
307.3214582207533
20
161.8700246517671
30
0
10
307.3214582207533
20
161.31773990193619
30
0
10
307.7691734709224
20
160.8700246517671
30
0
10
308.32145822075336
20
160.8700246517671
30
0
0
SPLINE
5
356
100
AcDbEntity
8
0
100
AcDbSpline
70
0
71
3
72
8
73
4
74
0
42
0.000000001
43
0.0000000001
44
0.0000000001
40
0
40
0
40
0
40
0
40
1
40
1
40
1
40
1
10
563.55145822075349
20
179.9200246517666
30
0
10
564.10374297058388
20
179.9200246517666
30
0
10
564.55145822075292
20
180.36773990193569
30
0
10
564.55145822075292
20
180.92002465176674
30
0
0
SPLINE
5
357
100
AcDbEntity
8
0
100
AcDbSpline
70
0
71
3
72
8
73
4
74
0
42
0.000000001
43
0.0000000001
44
0.0000000001
40
0
40
0
40
0
40
0
40
1
40
1
40
1
40
1
10
291.93145822075314
20
240.21002465176682
30
0
10
291.93145822075314
20
239.65773990193622
30
0
10
292.37917347092264
20
239.21002465176684
30
0
10
292.93145822075314
20
239.21002465176684
30
0
0
LINE
5
358
100
AcDbEntity
8
0
100
AcDbLine
10
488.00102128098325
20
165.63429209189448
30
0
11
490.49596157079611
21
153.89652088308893
31
0
0
SPLINE
5
359
100
AcDbEntity
8
0
100
AcDbSpline
70
0
71
3
72
8
73
4
74
0
42
0.000000001
43
0.0000000001
44
0.0000000001
40
0
40
0
40
0
40
0
40
1
40
1
40
1
40
1
10
309.10145822075299
20
199.97002465176692
30
0
10
309.10145822075299
20
199.41773990193596
30
0
10
309.54917347092237
20
198.97002465176683
30
0
10
310.10145822075299
20
198.97002465176683
30
0
0
SPLINE
5
360
100
AcDbEntity
8
0
100
AcDbSpline
70
0
71
3
72
8
73
4
74
0
42
0.000000001
43
0.0000000001
44
0.0000000001
40
0
40
0
40
0
40
0
40
1
40
1
40
1
40
1
10
551.55145822075303
20
193.92002465176711
30
0
10
550.99917347092276
20
193.92002465176711
30
0
10
550.55145822075303
20
193.47230940159744
30
0
10
550.55145822075303
20
192.92002465176708
30
0
0
SPLINE
5
361
100
AcDbEntity
8
0
100
AcDbSpline
70
0
71
3
72
8
73
4
74
0
42
0.000000001
43
0.0000000001
44
0.0000000001
40
0
40
0
40
0
40
0
40
1
40
1
40
1
40
1
10
352.64145822075312
20
240.21002465176682
30
0
10
352.64145822075312
20
239.65773990193622
30
0
10
353.08917347092245
20
239.21002465176684
30
0
10
353.64145822075318
20
239.21002465176684
30
0
0
SPLINE
5
362
100
AcDbEntity
8
0
100
AcDbSpline
70
0
71
3
72
8
73
4
74
0
42
0.000000001
43
0.0000000001
44
0.0000000001
40
0
40
0
40
0
40
0
40
1
40
1
40
1
40
1
10
304.93145822075337
20
239.21002465176684
30
0
10
305.48374297058388
20
239.21002465176684
30
0
10
305.93145822075331
20
239.65773990193622
30
0
10
305.93145822075331
20
240.21002465176682
30
0
0
SPLINE
5
363
100
AcDbEntity
8
0
100
AcDbSpline
70
0
71
3
72
8
73
4
74
0
42
0.000000001
43
0.0000000001
44
0.0000000001
40
0
40
0
40
0
40
0
40
1
40
1
40
1
40
1
10
320.32145822075313
20
160.8700246517671
30
0
10
320.87374297058409
20
160.8700246517671
30
0
10
321.32145822075324
20
161.31773990193619
30
0
10
321.32145822075324
20
161.8700246517671
30
0
0
SPLINE
5
364
100
AcDbEntity
8
0
100
AcDbSpline
70
0
71
3
72
8
73
4
74
0
42
0.000000001
43
0.0000000001
44
0.0000000001
40
0
40
0
40
0
40
0
40
1
40
1
40
1
40
1
10
564.55145822075292
20
192.92002465176708
30
0
10
564.55145822075292
20
193.47230940159744
30
0
10
564.10374297058388
20
193.92002465176711
30
0
10
563.55145822075349
20
193.92002465176711
30
0
0
SPLINE
5
365
100
AcDbEntity
8
0
100
AcDbSpline
70
0
71
3
72
8
73
4
74
0
42
0.000000001
43
0.0000000001
44
0.0000000001
40
0
40
0
40
0
40
0
40
1
40
1
40
1
40
1
10
327.46145822075323
20
179.9200246517666
30
0
10
328.01374297058396
20
179.9200246517666
30
0
10
328.46145822075323
20
180.36773990193632
30
0
10
328.46145822075323
20
180.92002465176674
30
0
0
SPLINE
5
366
100
AcDbEntity
8
0
100
AcDbSpline
70
0
71
3
72
8
73
4
74
0
42
0.000000001
43
0.0000000001
44
0.0000000001
40
0
40
0
40
0
40
0
40
1
40
1
40
1
40
1
10
348.00145822075308
20
250.070024651767
30
0
10
348.00145822075308
20
250.62230940159768
30
0
10
347.55374297058404
20
251.07002465176686
30
0
10
347.00145822075308
20
251.07002465176686
30
0
0
LINE
5
367
100
AcDbEntity
8
0
100
AcDbLine
10
415.4383261625631
20
208.11830846130181
30
0
11
427.17609737136866
21
205.62336817148883
31
0
0
LINE
5
368
100
AcDbEntity
8
0
100
AcDbLine
10
477.98795445207452
20
150.21552130172358
30
0
11
489.72572566087996
21
152.7104615915373
31
0
0
LINE
5
369
100
AcDbEntity
8
0
100
AcDbLine
10
510.67719078062589
20
190.95958771199679
30
0
11
522.4149619894315
21
193.45452800180982
31
0
0
LINE
5
370
100
AcDbEntity
8
0
100
AcDbLine
10
481.68053086411641
20
189.9540858815667
30
0
11
493.41830207292264
21
192.44902617138047
31
0
0
LINE
5
371
100
AcDbEntity
8
0
100
AcDbLine
10
494.14347898664664
20
245.86887000191868
30
0
11
505.88125019545288
21
248.36381029173182
31
0
0
LINE
5
372
100
AcDbEntity
8
0
100
AcDbLine
10
491.69359769302514
20
205.37285667173734
30
0
11
494.18853798283828
21
193.63508546293204
31
0
0
LINE
5
373
100
AcDbEntity
8
0
100
AcDbLine
10
516.03719078062579
20
211.569587711997
30
0
11
527.77496198943152
21
214.06452800180995
31
0
0
LINE
5
374
100
AcDbEntity
8
0
100
AcDbLine
10
518.39795445207471
20
157.27552130172342
30
0
11
530.13572566088021
21
159.7704615915371
31
0
0
LINE
5
375
100
AcDbEntity
8
0
100
AcDbLine
10
459.78681907013771
20
224.2533681714886
30
0
11
471.52459027894315
21
226.74830846130192
31
0
0
LINE
5
376
100
AcDbEntity
8
0
100
AcDbLine
10
493.37324307673111
20
244.68281071036711
30
0
11
495.86818336654409
21
232.94503950156133
31
0
0
LINE
5
377
100
AcDbEntity
8
0
100
AcDbLine
10
456.87605539868918
20
237.94743458176188
30
0
11
468.61382660749473
21
240.44237487157488
31
0
0
LINE
5
378
100
AcDbEntity
8
0
100
AcDbLine
10
528.41102128098328
20
172.69429209189434
30
0
11
530.90596157079631
21
160.95652088308867
31
0
0
LINE
5
379
100
AcDbEntity
8
0
100
AcDbLine
10
463.04681907013742
20
185.99336817148892
30
0
11
474.78459027894354
21
188.48830846130195
31
0
0
LINE
5
380
100
AcDbEntity
8
0
100
AcDbLine
10
478.42053086411681
20
228.214085881567
30
0
11
490.15830207292231
21
230.70902617138
31
0
0
LINE
5
381
100
AcDbEntity
8
0
100
AcDbLine
10
474.30695487070983
20
162.72352842044535
30
0
11
476.80189516052286
21
150.98575721163979
31
0
0
LINE
5
382
100
AcDbEntity
8
0
100
AcDbLine
10
474.73953128275213
20
240.72209300028874
30
0
11
477.23447157256516
21
228.98432179148318
31
0
0
LINE
5
383
100
AcDbEntity
8
0
100
AcDbLine
10
473.06053086411674
20
207.60408588156693
30
0
11
484.79830207292224
21
210.09902617138022
31
0
0
LINE
5
384
100
AcDbEntity
8
0
100
AcDbLine
10
412.22338515875424
20
222.09209300028891
30
0
11
409.7284448689411
21
210.35432179148302
31
0
0
LINE
5
385
100
AcDbEntity
8
0
100
AcDbLine
10
512.77719078062557
20
249.82958771199691
30
0
11
524.51496198943187
21
252.32452800181022
31
0
0
LINE
5
386
100
AcDbEntity
8
0
100
AcDbLine
10
425.50338515875438
20
238.74209300028869
30
0
11
423.00844486894135
21
227.00432179148308
31
0
0
LINE
5
387
100
AcDbEntity
8
0
100
AcDbLine
10
423.21303054246016
20
180.80213896165901
30
0
11
420.71809025264685
21
169.06436775285354
31
0
0
LINE
5
388
100
AcDbEntity
8
0
100
AcDbLine
10
399.63967336477538
20
185.81281071036739
30
0
11
397.14473307496223
21
174.07503950156124
31
0
0
LINE
5
389
100
AcDbEntity
8
0
100
AcDbLine
10
509.90695487070985
20
189.7735284204451
30
0
11
512.40189516052283
21
178.03575721163963
31
0
0
LINE
5
390
100
AcDbEntity
8
0
100
AcDbLine
10
483.07359769302536
20
223.02285667173743
30
0
11
485.56853798283839
21
211.28508546293162
31
0
0
LINE
5
391
100
AcDbEntity
8
0
100
AcDbLine
10
510.32730948700419
20
209.33357438181571
30
0
11
512.82224977681722
21
197.59580317300981
31
0
0
LINE
5
392
100
AcDbEntity
8
0
100
AcDbLine
10
515.26695487070981
20
210.38352842044532
30
0
11
517.76189516052284
21
198.64575721163985
31
0
0
LINE
5
393
100
AcDbEntity
8
0
100
AcDbLine
10
492.04347898664696
20
186.99887000191842
30
0
11
503.78125019545234
21
189.49381029173199
31
0
0
LINE
5
394
100
AcDbEntity
8
0
100
AcDbLine
10
456.10581948877297
20
236.7613752902102
30
0
11
458.60075977858617
21
225.02360408140473
31
0
0
LINE
5
395
100
AcDbEntity
8
0
100
AcDbLine
10
488.0132430767311
20
224.07281071036704
30
0
11
490.50818336654413
21
212.33503950156151
31
0
0
LINE
5
396
100
AcDbEntity
8
0
100
AcDbLine
10
467.69988589904608
20
180.80213896165901
30
0
11
470.194826188859
21
169.06436775285354
31
0
0
LINE
5
397
100
AcDbEntity
8
0
100
AcDbLine
10
497.40347898664686
20
207.60887000191849
30
0
11
509.14125019545253
21
210.1038102917318
31
0
0
LINE
5
398
100
AcDbEntity
8
0
100
AcDbLine
10
454.77605539868881
20
179.07743458176211
30
0
11
466.51382660749442
21
181.57237487157519
31
0
0
LINE
5
399
100
AcDbEntity
8
0
100
AcDbLine
10
476.32053086411639
20
169.34408588156731
30
0
11
488.05830207292189
21
171.83902617138031
31
0
0
LINE
5
400
100
AcDbEntity
8
0
100
AcDbLine
10
496.63324307673088
20
206.4228107103672
30
0
11
499.12818336654379
21
194.68503950156133
31
0
0
LINE
5
401
100
AcDbEntity
8
0
100
AcDbLine
10
494.95424265809538
20
173.30480359164505
30
0
11
506.69201386690105
21
175.79974388145871
31
0
0
LINE
5
402
100
AcDbEntity
8
0
100
AcDbLine
10
491.27324307673064
20
185.81281071036668
30
0
11
493.76818336654435
21
174.07503950156124
31
0
0
LINE
5
403
100
AcDbEntity
8
0
100
AcDbLine
10
488.43359769302549
20
243.63285667173756
30
0
11
490.92853798283841
21
231.89508546293169
31
0
0
LINE
5
404
100
AcDbEntity
8
0
100
AcDbLine
10
515.4871907806255
20
170.9695877119967
30
0
11
527.22496198943168
21
173.46452800181041
31
0
0
LINE
5
405
100
AcDbEntity
8
0
100
AcDbLine
10
528.96102128098323
20
213.29429209189414
30
0
11
531.45596157079615
21
201.5565208830883
31
0
0
LINE
5
406
100
AcDbEntity
8
0
100
AcDbLine
10
416.13832616256275
20
188.48830846130195
30
0
11
427.8760973713687
21
185.99336817148892
31
0
0
LINE
5
407
100
AcDbEntity
8
0
100
AcDbLine
10
523.6010212809831
20
192.68429209189432
30
0
11
526.09596157079613
21
180.94652088308811
31
0
0
LINE
5
408
100
AcDbEntity
8
0
100
AcDbLine
10
488.7834789866472
20
225.25887000191861
30
0
11
500.52125019545264
21
227.75381029173167
31
0
0
LINE
5
409
100
AcDbEntity
8
0
100
AcDbLine
10
411.80931874848091
20
241.65285667173751
30
0
11
409.31437845866799
21
229.9150854629317
31
0
0
LINE
5
410
100
AcDbEntity
8
0
100
AcDbLine
10
513.58795445207431
20
177.26552130172351
30
0
11
525.32572566087993
21
179.76046159153651
31
0
0
LINE
5
411
100
AcDbEntity
8
0
100
AcDbLine
10
500.3142426580954
20
193.91480359164521
30
0
11
512.05201386690101
21
196.40974388145821
31
0
0
LINE
5
412
100
AcDbEntity
8
0
100
AcDbLine
10
464.43988589904632
20
219.062138961659
30
0
11
466.93482618885935
21
207.32436775285339
31
0
0
LINE
5
413
100
AcDbEntity
8
0
100
AcDbLine
10
491.69424265809567
20
211.56480359164533
30
0
11
503.4320138669014
21
214.05974388145836
31
0
0
LINE
5
414
100
AcDbEntity
8
0
100
AcDbLine
10
436.90709695273313
20
177.8913752902105
30
0
11
434.41215666292038
21
166.15360408140492
31
0
0
LINE
5
415
100
AcDbEntity
8
0
100
AcDbLine
10
475.50976719266765
20
241.90815229184037
30
0
11
487.24753840147389
21
244.40309258165337
31
0
0
LINE
5
416
100
AcDbEntity
8
0
100
AcDbLine
10
507.06730948700448
20
247.59357438181564
30
0
11
509.56224977681745
21
235.85580317301009
31
0
0
LINE
5
417
100
AcDbEntity
8
0
100
AcDbLine
10
460.13605539868888
20
199.68743458176203
30
0
11
471.87382660749444
21
202.18237487157501
31
0
0
LINE
5
418
100
AcDbEntity
8
0
100
AcDbLine
10
469.37953128275205
20
220.11209300028861
30
0
11
471.87447157256514
21
208.374321791483
31
0
0
LINE
5
419
100
AcDbEntity
8
0
100
AcDbLine
10
457.68681907013735
20
165.38336817148885
30
0
11
469.42459027894353
21
167.8783084613018
31
0
0
LINE
5
420
100
AcDbEntity
8
0
100
AcDbLine
10
472.63953128275176
20
181.85209300028896
30
0
11
475.13447157256536
21
170.11432179148284
31
0
0
LINE
5
421
100
AcDbEntity
8
0
100
AcDbLine
10
473.05988589904609
20
201.41213896165908
30
0
11
475.55482618885981
21
189.67436775285361
31
0
0
LINE
5
422
100
AcDbEntity
8
0
100
AcDbLine
10
418.34908983401164
20
221.81237487157512
30
0
11
430.08686104281736
21
219.31743458176211
31
0
0
LINE
5
423
100
AcDbEntity
8
0
100
AcDbLine
10
497.05424265809592
20
232.1748035916454
30
0
11
508.79201386690136
21
234.66974388145843
31
0
0
LINE
5
424
100
AcDbEntity
8
0
100
AcDbLine
10
410.08461436858397
20
228.72902617137996
30
0
11
421.82238557738964
21
226.23408588156704
31
0
0
LINE
5
425
100
AcDbEntity
8
0
100
AcDbLine
10
473.40976719266791
20
183.03815229184062
30
0
11
485.14753840147341
21
185.53309258165359
31
0
0
LINE
5
426
100
AcDbEntity
8
0
100
AcDbLine
10
501.70730948700452
20
226.9835743818158
30
0
11
504.20224977681744
21
215.24580317301002
31
0
0
LINE
5
427
100
AcDbEntity
8
0
100
AcDbLine
10
470.14976719266821
20
221.29815229184018
30
0
11
481.88753840147371
21
223.79309258165321
31
0
0
LINE
5
428
100
AcDbEntity
8
0
100
AcDbLine
10
507.4171907806263
20
229.21958771199712
30
0
11
519.15496198943185
21
231.71452800181015
31
0
0
LINE
5
429
100
AcDbEntity
8
0
100
AcDbLine
10
430.44303054246001
20
237.6921389616594
30
0
11
427.94809025264692
21
225.95436775285361
31
0
0
LINE
5
430
100
AcDbEntity
8
0
100
AcDbLine
10
404.57931874848094
20
184.76285667173741
30
0
11
402.08437845866797
21
173.02508546293194
31
0
0
LINE
5
431
100
AcDbEntity
8
0
100
AcDbLine
10
381.08166624605354
20
229.73381029173169
30
0
11
392.81943745485938
21
227.23887000191863
31
0
0
LINE
5
432
100
AcDbEntity
8
0
100
AcDbLine
10
380.59560695450216
20
209.33357438181602
30
0
11
378.10066666468879
21
197.59580317300981
31
0
0
LINE
5
433
100
AcDbEntity
8
0
100
AcDbLine
10
393.58967336477519
20
226.052810710367
30
0
11
391.09473307496216
21
214.31503950156153
31
0
0
LINE
5
434
100
AcDbEntity
8
0
100
AcDbLine
10
316.55145822075315
20
232.0200246517669
30
0
11
328.55145822075315
21
232.0200246517669
31
0
0
LINE
5
435
100
AcDbEntity
8
0
100
AcDbLine
10
525.70102128098347
20
251.5542920918941
30
0
11
528.1959615707965
21
239.81652088308849
31
0
0
LINE
5
436
100
AcDbEntity
8
0
100
AcDbLine
10
515.68795445207491
20
236.13552130172351
30
0
11
527.42572566088029
21
238.63046159153694
31
0
0
LINE
5
437
100
AcDbEntity
8
0
100
AcDbLine
10
512.00695487071016
20
248.64352842044553
30
0
11
514.50189516052319
21
236.90575721163967
31
0
0
LINE
5
438
100
AcDbEntity
8
0
100
AcDbLine
10
396.80461436858417
20
212.07902617138032
30
0
11
408.54238557738961
21
209.58408588156692
31
0
0
LINE
5
439
100
AcDbEntity
8
0
100
AcDbLine
10
520.34102128098334
20
230.94429209189394
30
0
11
522.83596157079637
21
219.20652088308842
31
0
0
LINE
5
440
100
AcDbEntity
8
0
100
AcDbLine
10
412.99537804003273
20
242.42309258165341
30
0
11
424.73314924883817
21
239.92815229184032
31
0
0
LINE
5
441
100
AcDbEntity
8
0
100
AcDbLine
10
385.9456069545019
20
188.72357438181592
30
0
11
383.45066666468881
21
176.9858031730104
31
0
0
LINE
5
442
100
AcDbEntity
8
0
100
AcDbLine
10
402.85461436858373
20
171.83902617138031
30
0
11
414.59238557738956
21
169.34408588156731
31
0
0
LINE
5
443
100
AcDbEntity
8
0
100
AcDbLine
10
391.4509025746051
20
232.68974388145838
30
0
11
403.18867378341054
21
230.1948035916455
31
0
0
LINE
5
444
100
AcDbEntity
8
0
100
AcDbLine
10
346.4114582207531
20
179.9200246517666
30
0
11
358.4114582207531
21
179.9200246517666
31
0
0
LINE
5
445
100
AcDbEntity
8
0
100
AcDbLine
10
431.55709695273339
20
198.5013752902106
30
0
11
429.06215666292013
21
186.76360408140511
31
0
0
LINE
5
446
100
AcDbEntity
8
0
100
AcDbLine
10
363.14795445207449
20
214.06452800180995
30
0
11
374.88572566088033
21
211.569587711997
31
0
0
LINE
5
447
100
AcDbEntity
8
0
100
AcDbLine
10
553.23145822075332
20
251.07002465176708
30
0
11
565.23145822075298
21
251.07002465176686
31
0
0
LINE
5
448
100
AcDbEntity
8
0
100
AcDbLine
10
316.55145822075315
20
218.02002465176702
30
0
11
328.55145822075315
21
218.02002465176702
31
0
0
LINE
5
449
100
AcDbEntity
8
0
100
AcDbLine
10
340.36145822075332
20
218.02002465176702
30
0
11
352.36145822075309
21
218.02002465176702
31
0
0
LINE
5
450
100
AcDbEntity
8
0
100
AcDbLine
10
444.13709695273332
20
234.78137529021063
30
0
11
441.64215666292029
21
223.04360408140468
31
0
0
LINE
5
451
100
AcDbEntity
8
0
100
AcDbLine
10
398.52931874848127
20
225.00285667173742
30
0
11
396.0343784586679
21
213.26508546293189
31
0
0
LINE
5
452
100
AcDbEntity
8
0
100
AcDbLine
10
393.17560695450192
20
245.6135743818156
30
0
11
390.680666664689
21
233.87580317301013
31
0
0
LINE
5
453
100
AcDbEntity
8
0
100
AcDbLine
10
361.96189516052323
20
213.29429209189414
30
0
11
359.46695487070991
21
201.5565208830883
31
0
0
LINE
5
454
100
AcDbEntity
8
0
100
AcDbLine
10
424.39908983401159
20
181.57237487157519
30
0
11
436.13686104281754
21
179.07743458176211
31
0
0
LINE
5
455
100
AcDbEntity
8
0
100
AcDbLine
10
419.04908983401162
20
202.18237487157535
30
0
11
430.78686104281746
21
199.68743458176203
31
0
0
LINE
5
456
100
AcDbEntity
8
0
100
AcDbLine
10
340.36145822075298
20
232.0200246517669
30
0
11
352.36145822075309
21
232.0200246517669
31
0
0
LINE
5
457
100
AcDbEntity
8
0
100
AcDbLine
10
365.58719078062603
20
179.76046159153651
30
0
11
377.32496198943181
21
177.26552130172351
31
0
0
LINE
5
458
100
AcDbEntity
8
0
100
AcDbLine
10
334.00145822075325
20
250.070024651767
30
0
11
334.00145822075325
21
238.07002465176691
31
0
0
LINE
5
459
100
AcDbEntity
8
0
100
AcDbLine
10
353.64145822075318
20
253.21002465176704
30
0
11
365.64145822075318
21
253.21002465176704
31
0
0
LINE
5
460
100
AcDbEntity
8
0
100
AcDbLine
10
378.87090257460505
20
196.40974388145821
30
0
11
390.60867378341095
21
193.91480359164521
31
0
0
LINE
5
461
100
AcDbEntity
8
0
100
AcDbLine
10
406.86967336477539
20
242.70281071036709
30
0
11
404.37473307496236
21
230.96503950156162
31
0
0
LINE
5
462
100
AcDbEntity
8
0
100
AcDbLine
10
418.27338515875425
20
181.85209300028896
30
0
11
415.77844486894139
21
170.11432179148284
31
0
0
LINE
5
463
100
AcDbEntity
8
0
100
AcDbLine
10
431.62908983401167
20
238.46237487157524
30
0
11
443.36686104281762
21
235.96743458176192
31
0
0
LINE
5
464
100
AcDbEntity
8
0
100
AcDbLine
10
378.17090257460501
20
216.03974388145832
30
0
11
389.90867378341051
21
213.54480359164535
31
0
0
LINE
5
465
100
AcDbEntity
8
0
100
AcDbLine
10
360.23719078062607
20
200.37046159153661
30
0
11
371.97496198943185
21
197.87552130172361
31
0
0
LINE
5
466
100
AcDbEntity
8
0
100
AcDbLine
10
400.41537804003269
20
206.14309258165343
30
0
11
412.15314924883842
21
203.64815229184043
31
0
0
LINE
5
467
100
AcDbEntity
8
0
100
AcDbLine
10
384.22090257460502
20
175.79974388145871
30
0
11
395.95867378341069
21
173.30480359164505
31
0
0
LINE
5
468
100
AcDbEntity
8
0
100
AcDbLine
10
405.76537804003249
20
185.53309258165359
30
0
11
417.50314924883838
21
183.03815229184062
31
0
0
LINE
5
469
100
AcDbEntity
8
0
100
AcDbLine
10
394.28967336477547
20
206.4228107103672
30
0
11
391.79473307496215
21
194.68503950156133
31
0
0
LINE
5
470
100
AcDbEntity
8
0
100
AcDbLine
10
375.65596157079653
20
210.38352842044532
30
0
11
373.16102128098322
21
198.64575721163985
31
0
0
LINE
5
471
100
AcDbEntity
8
0
100
AcDbLine
10
399.71537804003248
20
225.77309258165354
30
0
11
411.45314924883843
21
223.27815229184017
31
0
0
LINE
5
472
100
AcDbEntity
8
0
100
AcDbLine
10
353.64145822075318
20
239.21002465176684
30
0
11
365.64145822075318
21
239.21002465176684
31
0
0
LINE
5
473
100
AcDbEntity
8
0
100
AcDbLine
10
518.94795445207455
20
197.87552130172361
30
0
11
530.68572566087994
21
200.37046159153661
31
0
0
LINE
5
474
100
AcDbEntity
8
0
100
AcDbLine
10
387.13166624605367
20
189.49381029173199
30
0
11
398.86943745485945
21
186.99887000191842
31
0
0
LINE
5
475
100
AcDbEntity
8
0
100
AcDbLine
10
381.78166624605348
20
210.1038102917318
30
0
11
393.51943745485937
21
207.60887000191849
31
0
0
LINE
5
476
100
AcDbEntity
8
0
100
AcDbLine
10
394.36166624605363
20
246.38381029173183
30
0
11
406.09943745485936
21
243.88887000191872
31
0
0
LINE
5
477
100
AcDbEntity
8
0
100
AcDbLine
10
421.488326162563
20
167.8783084613018
30
0
11
433.22609737136867
21
165.38336817148885
31
0
0
LINE
5
478
100
AcDbEntity
8
0
100
AcDbLine
10
589.74145822075297
20
231.02002465176682
30
0
11
589.74145822075297
21
219.02002465176673
31
0
0
LINE
5
479
100
AcDbEntity
8
0
100
AcDbLine
10
374.95596157079626
20
230.0135284204454
30
0
11
372.46102128098312
21
218.27575721163959
31
0
0
LINE
5
480
100
AcDbEntity
8
0
100
AcDbLine
10
363.68795445207468
20
173.46452800180981
30
0
11
375.42572566088018
21
170.9695877119967
31
0
0
LINE
5
481
100
AcDbEntity
8
0
100
AcDbLine
10
506.64695487071015
20
228.03352842044544
30
0
11
509.14189516052318
21
216.2957572116396
31
0
0
LINE
5
482
100
AcDbEntity
8
0
100
AcDbLine
10
510.32795445207483
20
215.5255213017237
30
0
11
522.06572566088028
21
218.02046159153684
31
0
0
LINE
5
483
100
AcDbEntity
8
0
100
AcDbLine
10
412.92338515875417
20
202.4620930002888
30
0
11
410.42844486894126
21
190.72432179148291
31
0
0
LINE
5
484
100
AcDbEntity
8
0
100
AcDbLine
10
430.85709695273323
20
218.13137529021046
30
0
11
428.3621566629202
21
206.39360408140462
31
0
0
LINE
5
485
100
AcDbEntity
8
0
100
AcDbLine
10
399.22931874848098
20
205.37285667173762
30
0
11
396.73437845866795
21
193.63508546293204
31
0
0
LINE
5
486
100
AcDbEntity
8
0
100
AcDbLine
10
360.77719078062614
20
159.77046159153642
30
0
11
372.51496198943158
21
157.27552130172342
31
0
0
LINE
5
487
100
AcDbEntity
8
0
100
AcDbLine
10
417.16303054245986
20
221.0421389616593
30
0
11
414.66809025264683
21
209.30436775285341
31
0
0
LINE
5
488
100
AcDbEntity
8
0
100
AcDbLine
10
417.86303054245991
20
201.41213896165908
30
0
11
415.36809025264688
21
189.67436775285361
31
0
0
LINE
5
489
100
AcDbEntity
8
0
100
AcDbLine
10
428.71832616256313
20
224.76830846130196
30
0
11
440.45609737136863
21
222.27336817148895
31
0
0
LINE
5
490
100
AcDbEntity
8
0
100
AcDbLine
10
397.5046143685837
20
192.44902617138047
30
0
11
409.2423855773896
21
189.9540858815667
31
0
0
LINE
5
491
100
AcDbEntity
8
0
100
AcDbLine
10
379.89560695450217
20
228.96357438181593
30
0
11
377.40066666468886
21
217.22580317301006
31
0
0
LINE
5
492
100
AcDbEntity
8
0
100
AcDbLine
10
310.10145822075299
20
198.97002465176683
30
0
11
322.10145822075322
21
198.97002465176683
31
0
0
LINE
5
493
100
AcDbEntity
8
0
100
AcDbLine
10
533.60145822075322
20
252.21002465176693
30
0
11
533.60145822075322
21
240.21002465176682
31
0
0
LINE
5
494
100
AcDbEntity
8
0
100
AcDbLine
10
603.74145822075297
20
231.02002465176682
30
0
11
603.74145822075297
21
219.02002465176673
31
0
0
LINE
5
495
100
AcDbEntity
8
0
100
AcDbLine
10
353.36145822075309
20
231.02002465176682
30
0
11
353.36145822075309
21
219.02002465176673
31
0
0
LINE
5
496
100
AcDbEntity
8
0
100
AcDbLine
10
547.6014582207531
20
252.21002465176693
30
0
11
547.6014582207531
21
240.21002465176682
31
0
0
LINE
5
497
100
AcDbEntity
8
0
100
AcDbLine
10
537.86145822075287
20
198.97002465176683
30
0
11
549.86145822075332
21
198.97002465176683
31
0
0
LINE
5
498
100
AcDbEntity
8
0
100
AcDbLine
10
314.95145822075301
20
250.070024651767
30
0
11
314.95145822075301
21
238.07002465176691
31
0
0
LINE
5
499
100
AcDbEntity
8
0
100
AcDbLine
10
329.55145822075315
20
231.02002465176682
30
0
11
329.55145822075315
21
219.02002465176673
31
0
0
LINE
5
500
100
AcDbEntity
8
0
100
AcDbLine
10
361.26189516052312
20
232.92429209189402
30
0
11
358.76695487070992
21
221.18652088308841
31
0
0
LINE
5
501
100
AcDbEntity
8
0
100
AcDbLine
10
534.60145822075322
20
253.21002465176704
30
0
11
546.60145822075287
21
253.21002465176704
31
0
0
LINE
5
502
100
AcDbEntity
8
0
100
AcDbLine
10
321.32145822075324
20
173.8700246517669
30
0
11
321.32145822075324
21
161.8700246517671
31
0
0
LINE
5
503
100
AcDbEntity
8
0
100
AcDbLine
10
532.50145822075274
20
179.9200246517666
30
0
11
544.50145822075331
21
179.9200246517666
31
0
0
LINE
5
504
100
AcDbEntity
8
0
100
AcDbLine
10
323.10145822075322
20
211.97002465176701
30
0
11
323.10145822075322
21
199.97002465176692
31
0
0
LINE
5
505
100
AcDbEntity
8
0
100
AcDbLine
10
362.4479544520749
20
233.69452800181011
30
0
11
374.18572566088068
21
231.19958771199714
31
0
0
LINE
5
506
100
AcDbEntity
8
0
100
AcDbLine
10
345.41145822075316
20
192.92002465176708
30
0
11
345.41145822075316
21
180.92002465176674
31
0
0
LINE
5
507
100
AcDbEntity
8
0
100
AcDbLine
10
545.50145822075342
20
192.92002465176708
30
0
11
545.50145822075342
21
180.92002465176674
31
0
0
LINE
5
508
100
AcDbEntity
8
0
100
AcDbLine
10
586.86145822075321
20
211.97002465176701
30
0
11
586.86145822075321
21
199.97002465176692
31
0
0
LINE
5
509
100
AcDbEntity
8
0
100
AcDbLine
10
354.06145822075325
20
211.97002465176701
30
0
11
354.06145822075325
21
199.97002465176692
31
0
0
LINE
5
510
100
AcDbEntity
8
0
100
AcDbLine
10
367.31189516052325
20
192.68429209189432
30
0
11
364.81695487070988
21
180.94652088308811
31
0
0
LINE
5
511
100
AcDbEntity
8
0
100
AcDbLine
10
315.46145822075312
20
179.9200246517666
30
0
11
327.46145822075323
21
179.9200246517666
31
0
0
LINE
5
512
100
AcDbEntity
8
0
100
AcDbLine
10
608.70945822075737
20
179.9200246517666
30
0
11
615.94020822075322
21
179.9200246517666
31
0
0
LINE
5
513
100
AcDbEntity
8
0
100
AcDbLine
10
616.94020822075322
20
192.92002465176708
30
0
11
616.94020822075322
21
180.92002465176674
31
0
0
LINE
5
514
100
AcDbEntity
8
0
100
AcDbLine
10
315.95145822075312
20
237.07002465176689
30
0
11
327.95145822075318
21
237.07002465176689
31
0
0
LINE
5
515
100
AcDbEntity
8
0
100
AcDbLine
10
374.54189516052287
20
249.57429209189414
30
0
11
372.04695487070984
21
237.83652088308853
31
0
0
LINE
5
516
100
AcDbEntity
8
0
100
AcDbLine
10
528.2414582207532
20
232.08002465176708
30
0
11
528.2414582207532
21
220.08002465176702
31
0
0
LINE
5
517
100
AcDbEntity
8
0
100
AcDbLine
10
359.41145822075322
20
192.92002465176708
30
0
11
359.41145822075322
21
180.92002465176674
31
0
0
LINE
5
518
100
AcDbEntity
8
0
100
AcDbLine
10
315.95145822075312
20
251.07002465176686
30
0
11
327.95145822075318
21
251.07002465176686
31
0
0
LINE
5
519
100
AcDbEntity
8
0
100
AcDbLine
10
375.72795445207453
20
250.34452800181018
30
0
11
387.46572566088042
21
247.84958771199695
31
0
0
LINE
5
520
100
AcDbEntity
8
0
100
AcDbLine
10
359.53719078062602
20
220.00046159153669
30
0
11
371.27496198943186
21
217.50552130172383
31
0
0
LINE
5
521
100
AcDbEntity
8
0
100
AcDbLine
10
381.0059615707965
20
189.7735284204451
30
0
11
378.51102128098319
21
178.03575721163963
31
0
0
LINE
5
522
100
AcDbEntity
8
0
100
AcDbLine
10
362.50189516052302
20
172.69429209189434
30
0
11
360.00695487070999
21
160.9565208830881
31
0
0
LINE
5
523
100
AcDbEntity
8
0
100
AcDbLine
10
388.23596157079623
20
246.6635284204456
30
0
11
385.74102128098326
21
234.92575721163971
31
0
0
LINE
5
524
100
AcDbEntity
8
0
100
AcDbLine
10
341.06145822075297
20
198.97002465176683
30
0
11
353.06145822075308
21
198.97002465176683
31
0
0
LINE
5
525
100
AcDbEntity
8
0
100
AcDbLine
10
553.23145822075332
20
237.07002465176689
30
0
11
565.23145822075298
21
237.07002465176689
31
0
0
LINE
5
526
100
AcDbEntity
8
0
100
AcDbLine
10
315.55145822075298
20
231.02002465176682
30
0
11
315.55145822075298
21
219.02002465176673
31
0
0
LINE
5
527
100
AcDbEntity
8
0
100
AcDbLine
10
529.24145822075309
20
219.08002465176693
30
0
11
541.24145822075297
21
219.08002465176693
31
0
0
LINE
5
528
100
AcDbEntity
8
0
100
AcDbLine
10
368.49795445207457
20
193.45452800180982
30
0
11
380.23572566088035
21
190.95958771199679
31
0
0
LINE
5
529
100
AcDbEntity
8
0
100
AcDbLine
10
352.64145822075312
20
252.21002465176693
30
0
11
352.64145822075312
21
240.21002465176682
31
0
0
LINE
5
530
100
AcDbEntity
8
0
100
AcDbLine
10
309.10145822075299
20
211.97002465176701
30
0
11
309.10145822075299
21
199.97002465176692
31
0
0
LINE
5
531
100
AcDbEntity
8
0
100
AcDbLine
10
292.93145822075314
20
253.21002465176704
30
0
11
304.93145822075337
21
253.21002465176704
31
0
0
LINE
5
532
100
AcDbEntity
8
0
100
AcDbLine
10
335.00145822075331
20
237.07002465176689
30
0
11
347.00145822075308
21
237.07002465176689
31
0
0
LINE
5
533
100
AcDbEntity
8
0
100
AcDbLine
10
310.10145822075299
20
212.97002465176703
30
0
11
322.10145822075322
21
212.97002465176672
31
0
0
LINE
5
534
100
AcDbEntity
8
0
100
AcDbLine
10
536.86145822075275
20
211.97002465176701
30
0
11
536.86145822075275
21
199.97002465176692
31
0
0
LINE
5
535
100
AcDbEntity
8
0
100
AcDbLine
10
366.64145822075318
20
252.21002465176693
30
0
11
366.64145822075318
21
240.21002465176682
31
0
0
LINE
5
536
100
AcDbEntity
8
0
100
AcDbLine
10
372.81719078062599
20
236.6504615915369
30
0
11
384.5549619894316
21
234.15552130172355
31
0
0
LINE
5
537
100
AcDbEntity
8
0
100
AcDbLine
10
346.4114582207531
20
193.92002465176711
30
0
11
358.4114582207531
21
193.92002465176711
31
0
0
LINE
5
538
100
AcDbEntity
8
0
100
AcDbLine
10
552.23145822075344
20
250.070024651767
30
0
11
552.23145822075344
21
238.07002465176691
31
0
0
LINE
5
539
100
AcDbEntity
8
0
100
AcDbLine
10
529.24145822075309
20
233.08002465176685
30
0
11
541.24145822075297
21
233.08002465176685
31
0
0
LINE
5
540
100
AcDbEntity
8
0
100
AcDbLine
10
590.74145822075309
20
218.0200246517667
30
0
11
602.74145822075343
21
218.0200246517667
31
0
0
LINE
5
541
100
AcDbEntity
8
0
100
AcDbLine
10
339.36145822075332
20
231.02002465176682
30
0
11
339.36145822075332
21
219.02002465176673
31
0
0
LINE
5
542
100
AcDbEntity
8
0
100
AcDbLine
10
566.23145822075321
20
250.070024651767
30
0
11
566.23145822075321
21
238.07002465176657
31
0
0
LINE
5
543
100
AcDbEntity
8
0
100
AcDbLine
10
348.00145822075308
20
250.070024651767
30
0
11
348.00145822075308
21
238.07002465176691
31
0
0
LINE
5
544
100
AcDbEntity
8
0
100
AcDbLine
10
284.70145822075312
20
215.11002465176688
30
0
11
296.70145822075318
21
215.11002465176688
31
0
0
LINE
5
545
100
AcDbEntity
8
0
100
AcDbLine
10
542.24145822075297
20
232.08002465176685
30
0
11
542.24145822075297
21
220.08002465176702
31
0
0
LINE
5
546
100
AcDbEntity
8
0
100
AcDbLine
10
341.06145822075297
20
212.97002465176672
30
0
11
353.06145822075308
21
212.97002465176672
31
0
0
LINE
5
547
100
AcDbEntity
8
0
100
AcDbLine
10
376.19596157079627
20
169.78352842044512
30
0
11
373.7010212809833
21
158.0457572116396
31
0
0
LINE
5
548
100
AcDbEntity
8
0
100
AcDbLine
10
340.06145822075297
20
211.97002465176701
30
0
11
340.06145822075297
21
199.97002465176692
31
0
0
LINE
5
549
100
AcDbEntity
8
0
100
AcDbLine
10
315.46145822075312
20
193.92002465176711
30
0
11
327.46145822075323
21
193.92002465176711
31
0
0
LINE
5
550
100
AcDbEntity
8
0
100
AcDbLine
10
328.95145822075324
20
250.070024651767
30
0
11
328.95145822075324
21
238.07002465176691
31
0
0
LINE
5
551
100
AcDbEntity
8
0
100
AcDbLine
10
590.74145822075309
20
232.0200246517669
30
0
11
602.74145822075343
21
232.0200246517669
31
0
0
LINE
5
552
100
AcDbEntity
8
0
100
AcDbLine
10
602.70945822075896
20
177.92002435353504
30
0
11
607.70945822075475
21
177.92002435353504
31
0
0
LINE
5
553
100
AcDbEntity
8
0
100
AcDbLine
10
566.92145822075281
20
232.0200246517669
30
0
11
578.92145822075327
21
232.0200246517669
31
0
0
LINE
5
554
100
AcDbEntity
8
0
100
AcDbLine
10
534.60145822075322
20
239.21002465176684
30
0
11
546.60145822075287
21
239.21002465176684
31
0
0
LINE
5
555
100
AcDbEntity
8
0
100
AcDbLine
10
335.00145822075331
20
251.07002465176686
30
0
11
347.00145822075308
21
251.07002465176686
31
0
0
LINE
5
556
100
AcDbEntity
8
0
100
AcDbLine
10
301.77145822075335
20
233.16002465176669
30
0
11
301.77145822075335
21
221.16002465176703
31
0
0
LINE
5
557
100
AcDbEntity
8
0
100
AcDbLine
10
595.49705822075271
20
160.82202465176704
30
0
11
607.49705822075327
21
160.82202465176704
31
0
0
LINE
5
558
100
AcDbEntity
8
0
100
AcDbLine
10
551.55145822075303
20
179.9200246517666
30
0
11
563.55145822075349
21
179.9200246517666
31
0
0
LINE
5
559
100
AcDbEntity
8
0
100
AcDbLine
10
547.8714582207532
20
232.0200246517669
30
0
11
559.87145822075308
21
232.0200246517669
31
0
0
LINE
5
560
100
AcDbEntity
8
0
100
AcDbLine
10
601.70945822075896
20
191.9200243535349
30
0
11
601.70945822075896
21
178.92002435353442
31
0
0
LINE
5
561
100
AcDbEntity
8
0
100
AcDbLine
10
577.83345822075819
20
179.9200246517666
30
0
11
577.83345822075762
21
178.92002435353442
31
0
0
LINE
5
562
100
AcDbEntity
8
0
100
AcDbLine
10
578.83345822075762
20
177.92002435353504
30
0
11
583.83345822075717
21
177.92002435353504
31
0
0
LINE
5
563
100
AcDbEntity
8
0
100
AcDbLine
10
291.93145822075314
20
252.21002465176693
30
0
11
291.93145822075314
21
240.21002465176682
31
0
0
LINE
5
564
100
AcDbEntity
8
0
100
AcDbLine
10
288.77145822075312
20
234.16002465176683
30
0
11
300.77145822075317
21
234.16002465176683
31
0
0
LINE
5
565
100
AcDbEntity
8
0
100
AcDbLine
10
292.93145822075314
20
239.21002465176684
30
0
11
304.93145822075337
21
239.21002465176684
31
0
0
LINE
5
566
100
AcDbEntity
8
0
100
AcDbLine
10
556.91145822075305
20
212.97002465176703
30
0
11
568.91145822075282
21
212.97002465176703
31
0
0
LINE
5
567
100
AcDbEntity
8
0
100
AcDbLine
10
532.50145822075274
20
193.92002465176711
30
0
11
544.50145822075331
21
193.92002465176711
31
0
0
LINE
5
568
100
AcDbEntity
8
0
100
AcDbLine
10
547.8714582207532
20
218.0200246517667
30
0
11
559.87145822075308
21
218.0200246517667
31
0
0
LINE
5
569
100
AcDbEntity
8
0
100
AcDbLine
10
551.55145822075303
20
193.92002465176711
30
0
11
563.55145822075349
21
193.92002465176711
31
0
0
LINE
5
570
100
AcDbEntity
8
0
100
AcDbLine
10
587.86145822075343
20
212.97002465176703
30
0
11
599.86145822075309
21
212.97002465176703
31
0
0
LINE
5
571
100
AcDbEntity
8
0
100
AcDbLine
10
579.36845822075543
20
236.07002435353368
30
0
11
579.36845822075611
21
237.07002465176689
31
0
0
LINE
5
572
100
AcDbEntity
8
0
100
AcDbLine
10
556.91145822075305
20
198.97002465176683
30
0
11
568.91145822075282
21
198.97002465176683
31
0
0
LINE
5
573
100
AcDbEntity
8
0
100
AcDbLine
10
608.49705822075327
20
173.8220246517669
30
0
11
608.49705822075327
21
161.82202465176712
31
0
0
LINE
5
574
100
AcDbEntity
8
0
100
AcDbLine
10
335.89945822075612
20
192.92002435353552
30
0
11
330.8994582207597
21
192.92002435353552
31
0
0
LINE
5
575
100
AcDbEntity
8
0
100
AcDbLine
10
396.27090644438766
20
170.1156238880248
30
0
11
394.09984721992407
21
170.57709677195913
31
0
0
LINE
5
576
100
AcDbEntity
8
0
100
AcDbLine
10
597.2444582207587
20
235.07002435353488
30
0
11
602.24445822075484
21
235.07002435353488
31
0
0
LINE
5
577
100
AcDbEntity
8
0
100
AcDbLine
10
546.87145822075331
20
231.02002465176682
30
0
11
546.87145822075331
21
219.02002465176673
31
0
0
LINE
5
578
100
AcDbEntity
8
0
100
AcDbLine
10
584.83345822075648
20
179.9200246517666
30
0
11
599.27145822075329
21
179.9200246517666
31
0
0
LINE
5
579
100
AcDbEntity
8
0
100
AcDbLine
10
603.94020822075345
20
193.92002465176711
30
0
11
615.94020822075322
21
193.92002465176711
31
0
0
LINE
5
580
100
AcDbEntity
8
0
100
AcDbLine
10
577.7464582207532
20
193.92002465176711
30
0
11
599.27145822075329
21
193.92002465176711
31
0
0
LINE
5
581
100
AcDbEntity
8
0
100
AcDbLine
10
550.86145822075332
20
211.97002465176701
30
0
11
550.86145822075332
21
199.97002465176692
31
0
0
LINE
5
582
100
AcDbEntity
8
0
100
AcDbLine
10
297.70145822075324
20
214.11002465176691
30
0
11
297.70145822075324
21
202.11002465176682
31
0
0
LINE
5
583
100
AcDbEntity
8
0
100
AcDbLine
10
498.54165927296015
20
156.62902762265651
30
0
11
495.83880729232902
21
169.34494643219634
31
0
0
LINE
5
584
100
AcDbEntity
8
0
100
AcDbLine
10
587.86145822075343
20
198.97002465176683
30
0
11
599.86145822075309
21
198.97002465176683
31
0
0
LINE
5
585
100
AcDbEntity
8
0
100
AcDbLine
10
283.70145822075301
20
214.11002465176691
30
0
11
283.70145822075301
21
202.11002465176682
31
0
0
LINE
5
586
100
AcDbEntity
8
0
100
AcDbLine
10
576.7464582207532
20
192.92002465176708
30
0
11
576.7464582207532
21
180.92002465176674
31
0
0
LINE
5
587
100
AcDbEntity
8
0
100
AcDbLine
10
566.92145822075281
20
218.0200246517667
30
0
11
578.92145822075327
21
218.0200246517667
31
0
0
LINE
5
588
100
AcDbEntity
8
0
100
AcDbLine
10
469.52643324425566
20
149.43931034705091
30
0
11
474.41717124792171
21
150.47886880113859
31
0
0
LINE
5
589
100
AcDbEntity
8
0
100
AcDbLine
10
579.92145822075327
20
231.02002465176682
30
0
11
579.92145822075327
21
219.02002465176673
31
0
0
LINE
5
590
100
AcDbEntity
8
0
100
AcDbLine
10
284.70145822075312
20
201.11002465176671
30
0
11
296.70145822075318
21
201.11002465176671
31
0
0
LINE
5
591
100
AcDbEntity
8
0
100
AcDbLine
10
550.55145822075303
20
192.92002465176708
30
0
11
550.55145822075303
21
180.92002465176674
31
0
0
LINE
5
592
100
AcDbEntity
8
0
100
AcDbLine
10
307.32145822075296
20
173.8700246517669
30
0
11
307.3214582207533
21
161.8700246517671
31
0
0
LINE
5
593
100
AcDbEntity
8
0
100
AcDbLine
10
608.70945822075737
20
178.92002435353385
30
0
11
608.70945822075737
21
179.9200246517666
31
0
0
LINE
5
594
100
AcDbEntity
8
0
100
AcDbLine
10
600.27145822075329
20
192.92002465176708
30
0
11
600.27145822075329
21
180.92002465176674
31
0
0
LINE
5
595
100
AcDbEntity
8
0
100
AcDbLine
10
584.8334582207558
20
178.92002435353385
30
0
11
584.83345822075648
21
179.9200246517666
31
0
0
LINE
5
596
100
AcDbEntity
8
0
100
AcDbLine
10
308.32145822075336
20
160.8700246517671
30
0
11
320.32145822075313
21
160.8700246517671
31
0
0
LINE
5
597
100
AcDbEntity
8
0
100
AcDbLine
10
328.46145822075323
20
192.92002465176708
30
0
11
328.46145822075323
21
180.92002465176674
31
0
0
LINE
5
598
100
AcDbEntity
8
0
100
AcDbLine
10
600.86145822075321
20
211.97002465176701
30
0
11
600.86145822075321
21
199.97002465176692
31
0
0
LINE
5
599
100
AcDbEntity
8
0
100
AcDbLine
10
603.244458220757
20
237.07002465176689
30
0
11
603.33145822075289
21
237.07002465176689
31
0
0
LINE
5
600
100
AcDbEntity
8
0
100
AcDbLine
10
396.83326127714167
20
167.95156102166868
30
0
11
397.04114235430353
21
168.9295645964738
31
0
0
LINE
5
601
100
AcDbEntity
8
0
100
AcDbLine
10
306.02345822075785
20
191.9200243535349
30
0
11
306.02345822075785
21
178.92002435353501
31
0
0
LINE
5
602
100
AcDbEntity
8
0
100
AcDbLine
10
569.91145822075282
20
211.97002465176701
30
0
11
569.91145822075282
21
199.97002465176692
31
0
0
LINE
5
603
100
AcDbEntity
8
0
100
AcDbLine
10
308.32145822075296
20
174.8700246517669
30
0
11
320.32145822075313
21
174.8700246517669
31
0
0
LINE
5
604
100
AcDbEntity
8
0
100
AcDbLine
10
313.02345822075688
20
178.92002435353501
30
0
11
313.02345822075688
21
191.9200243535349
31
0
0
LINE
5
605
100
AcDbEntity
8
0
100
AcDbLine
10
393.98487595317135
20
170.60880547043323
30
0
11
389.09413794950132
21
171.64836392452219
31
0
0
LINE
5
606
100
AcDbEntity
8
0
100
AcDbLine
10
388.26149307845498
20
156.48296833110558
30
0
11
393.15223108212024
21
155.44340987701719
31
0
0
LINE
5
607
100
AcDbEntity
8
0
100
AcDbLine
10
537.86145822075287
20
212.97002465176672
30
0
11
549.86145822075332
21
212.97002465176703
31
0
0
LINE
5
608
100
AcDbEntity
8
0
100
AcDbLine
10
594.49705822075271
20
173.8220246517669
30
0
11
594.49705822075271
21
161.82202465176712
31
0
0
LINE
5
609
100
AcDbEntity
8
0
100
AcDbLine
10
531.50145822075342
20
192.92002465176708
30
0
11
531.50145822075342
21
180.92002465176674
31
0
0
LINE
5
610
100
AcDbEntity
8
0
100
AcDbLine
10
595.49705822075339
20
174.82202465176692
30
0
11
607.49705822075327
21
174.82202465176692
31
0
0
LINE
5
611
100
AcDbEntity
8
0
100
AcDbLine
10
555.91145822075305
20
211.97002465176701
30
0
11
555.91145822075305
21
199.97002465176692
31
0
0
LINE
5
612
100
AcDbEntity
8
0
100
AcDbLine
10
564.55145822075292
20
192.92002465176708
30
0
11
564.55145822075292
21
180.92002465176674
31
0
0
LINE
5
613
100
AcDbEntity
8
0
100
AcDbLine
10
336.89945822075674
20
178.92002435353501
30
0
11
336.89945822075674
21
191.92002435353618
31
0
0
LINE
5
614
100
AcDbEntity
8
0
100
AcDbLine
10
305.93145822075331
20
252.21002465176693
30
0
11
305.93145822075331
21
240.21002465176682
31
0
0
LINE
5
615
100
AcDbEntity
8
0
100
AcDbLine
10
314.46145822075312
20
192.92002465176708
30
0
11
314.46145822075312
21
180.92002465176674
31
0
0
LINE
5
616
100
AcDbEntity
8
0
100
AcDbLine
10
565.9214582207527
20
231.02002465176682
30
0
11
565.9214582207527
21
219.02002465176673
31
0
0
LINE
5
617
100
AcDbEntity
8
0
100
AcDbLine
10
288.77145822075312
20
220.16002465176689
30
0
11
300.77145822075317
21
220.16002465176689
31
0
0
LINE
5
618
100
AcDbEntity
8
0
100
AcDbLine
10
560.87145822075308
20
231.02002465176682
30
0
11
560.87145822075308
21
219.02002465176707
31
0
0
LINE
5
619
100
AcDbEntity
8
0
100
AcDbLine
10
287.77145822075312
20
233.16002465176669
30
0
11
287.77145822075312
21
221.16002465176703
31
0
0
LINE
5
620
100
AcDbEntity
8
0
100
AcDbLine
10
396.30719078062583
20
153.7504615915368
30
0
11
408.04496198943161
21
151.2555213017238
31
0
0
LINE
5
621
100
AcDbEntity
8
0
100
AcDbLine
10
424.29919949087935
20
147.8052914156832
30
0
11
438.36496198943161
21
144.81552130172341
31
0
0
LINE
5
622
100
AcDbEntity
8
0
100
AcDbLine
10
579.42345822074924
20
199.97002494999811
30
0
11
584.42345822074617
21
199.97002494999811
31
0
0
LINE
5
623
100
AcDbEntity
8
0
100
AcDbLine
10
411.2623307730712
20
165.914028484645
30
0
11
411.05191097818584
21
164.92408118199813
31
0
0
LINE
5
624
100
AcDbEntity
8
0
100
AcDbLine
10
584.42345822074753
20
214.97002494999873
30
0
11
579.42345822075174
21
214.97002494999873
31
0
0
LINE
5
625
100
AcDbEntity
8
0
100
AcDbLine
10
394.01574977216109
20
154.24223736340099
30
0
11
396.21431595750863
21
153.77491769443967
31
0
0
LINE
5
626
100
AcDbEntity
8
0
100
AcDbLine
10
492.88068535937612
20
154.4034098770164
30
0
11
497.77142336304399
21
155.4429683311055
31
0
0
LINE
5
627
100
AcDbEntity
8
0
100
AcDbLine
10
577.7464582207532
20
179.9200246517666
30
0
11
577.83345822075819
21
179.9200246517666
31
0
0
LINE
5
628
100
AcDbEntity
8
0
100
AcDbLine
10
578.42345822074924
20
213.97002494999995
30
0
11
578.42345822074924
21
200.97002494999884
31
0
0
LINE
5
629
100
AcDbEntity
8
0
100
AcDbLine
10
442.04596157079618
20
157.32352842044509
30
0
11
439.55102128098315
21
145.58575721163959
31
0
0
LINE
5
630
100
AcDbEntity
8
0
100
AcDbLine
10
604.33145822075267
20
250.070024651767
30
0
11
604.33145822075267
21
238.07002465176657
31
0
0
LINE
5
631
100
AcDbEntity
8
0
100
AcDbLine
10
572.28145822075282
20
237.07002465176689
30
0
11
572.3684582207577
21
237.07002465176689
31
0
0
LINE
5
632
100
AcDbEntity
8
0
100
AcDbLine
10
571.28145822075271
20
250.070024651767
30
0
11
571.28145822075271
21
238.07002465176691
31
0
0
LINE
5
633
100
AcDbEntity
8
0
100
AcDbLine
10
307.02345822075785
20
177.92002435353504
30
0
11
312.02345822075716
21
177.92002435353504
31
0
0
LINE
5
634
100
AcDbEntity
8
0
100
AcDbLine
10
426.02390387077656
20
160.72912191604044
30
0
11
423.52896358096359
21
148.99135070723489
31
0
0
LINE
5
635
100
AcDbEntity
8
0
100
AcDbLine
10
329.89945822075947
20
191.9200243535349
30
0
11
329.89945822075919
21
178.92002435353501
31
0
0
SPLINE
5
636
100
AcDbEntity
8
0
100
AcDbSpline
70
0
71
3
72
8
73
4
74
0
42
0.000000001
43
0.0000000001
44
0.0000000001
40
0
40
0
40
0
40
0
40
1
40
1
40
1
40
1
10
456.50075977858643
20
166.15360408140492
30
0
10
456.61558623473587
20
165.61338807843569
30
0
10
457.14660306716866
20
165.26854171533853
30
0
10
457.68681907013809
20
165.38336817148885
30
0
0
LINE
5
637
100
AcDbEntity
8
0
100
AcDbLine
10
417.69254248879406
20
151.2495462569691
30
0
11
420.39539446942513
21
163.96546506650881
31
0
0
LINE
5
638
100
AcDbEntity
8
0
100
AcDbLine
10
573.36845822075725
20
235.07002435353488
30
0
11
578.36845822075679
21
235.07002435353488
31
0
0
LINE
5
639
100
AcDbEntity
8
0
100
AcDbLine
10
602.29945822075069
20
213.97002494999995
30
0
11
602.29945822075001
21
200.97002494999884
31
0
0
LINE
5
640
100
AcDbEntity
8
0
100
AcDbLine
10
408.66428465241404
20
165.44136348386201
30
0
11
396.92651344360991
21
167.93630377367441
31
0
0
LINE
5
641
100
AcDbEntity
8
0
100
AcDbLine
10
465.63752197207236
20
162.9254650665068
30
0
11
468.34037395270423
21
150.209546256967
31
0
0
LINE
5
642
100
AcDbEntity
8
0
100
AcDbLine
10
608.2994582207491
20
214.97002494999904
30
0
11
603.29945822074933
21
214.97002494999904
31
0
0
LINE
5
643
100
AcDbEntity
8
0
100
AcDbLine
10
388.14652181168924
20
156.51467702958359
30
0
11
385.97546258723526
21
156.97614991351594
31
0
0
LINE
5
644
100
AcDbEntity
8
0
100
AcDbLine
10
411.61574519357515
20
151.51886880114202
30
0
11
416.50648319724269
21
150.4793103470536
31
0
0
LINE
5
645
100
AcDbEntity
8
0
100
AcDbLine
10
572.28145822075282
20
251.07002465176708
30
0
11
603.33145822075358
21
251.07002465176708
31
0
0
LINE
5
646
100
AcDbEntity
8
0
100
AcDbLine
10
411.50077392683323
20
151.55057749961219
30
0
11
409.32971470235458
21
152.01205038354968
31
0
0
LINE
5
647
100
AcDbEntity
8
0
100
AcDbLine
10
408.75715947553135
20
165.41690738095841
30
0
11
410.95572566088026
21
164.94958771199708
31
0
0
LINE
5
648
100
AcDbEntity
8
0
100
AcDbLine
10
419.62515855950926
20
165.1515243580599
30
0
11
417.45409933505664
21
165.61299724199159
31
0
0
LINE
5
649
100
AcDbEntity
8
0
100
AcDbLine
10
572.3684582207577
20
237.07002465176689
30
0
11
572.3684582207577
21
236.07002435353473
31
0
0
LINE
5
650
100
AcDbEntity
8
0
100
AcDbLine
10
330.89945822075885
20
177.92002435353504
30
0
11
335.89945822075612
21
177.92002435353504
31
0
0
LINE
5
651
100
AcDbEntity
8
0
100
AcDbLine
10
488.99177408719396
20
167.88956459647363
30
0
11
491.69462606782503
21
155.17364578693261
31
0
0
LINE
5
652
100
AcDbEntity
8
0
100
AcDbLine
10
609.29945822074842
20
200.97002494999884
30
0
11
609.29945822074899
21
213.9700249499993
31
0
0
LINE
5
653
100
AcDbEntity
8
0
100
AcDbLine
10
579.36845822075611
20
237.07002465176689
30
0
11
596.24445822075927
21
237.07002465176689
31
0
0
LINE
5
654
100
AcDbEntity
8
0
100
AcDbLine
10
494.65274800077799
20
170.1151823421124
30
0
11
489.76200999710954
21
169.07562388802333
31
0
0
LINE
5
655
100
AcDbEntity
8
0
100
AcDbLine
10
603.29945822075024
20
199.97002494999904
30
0
11
608.2994582207491
21
199.97002494999904
31
0
0
LINE
5
656
100
AcDbEntity
8
0
100
AcDbLine
10
585.42345822074685
20
200.97002494999884
30
0
11
585.42345822074753
21
213.97002494999893
31
0
0
LINE
5
657
100
AcDbEntity
8
0
100
AcDbLine
10
471.29849588565634
20
165.15108281214683
30
0
11
466.40775788198988
21
164.11152435805843
31
0
0
LINE
5
658
100
AcDbEntity
8
0
100
AcDbLine
10
427.20996316232811
20
161.49935782595659
30
0
11
441.27572566087997
21
158.5095877119968
31
0
0
LINE
5
659
100
AcDbEntity
8
0
100
AcDbLine
10
387.90807865794989
20
170.878128014608
30
0
11
385.20522667731876
21
158.16220920506703
31
0
0
LINE
5
660
100
AcDbEntity
8
0
100
AcDbLine
10
417.33912806830148
20
165.64470594046634
30
0
11
412.44839006462308
21
166.68426439455732
31
0
0
LINE
5
661
100
AcDbEntity
8
0
100
AcDbLine
10
409.23352938504962
20
152.03755691354809
30
0
11
409.23102128098299
21
152.0257572116399
31
0
0
LINE
5
662
100
AcDbEntity
8
0
100
AcDbLine
10
596.24445822075927
20
237.07002465176689
30
0
11
596.24445822075927
21
236.07002435353473
31
0
0
LINE
5
663
100
AcDbEntity
8
0
100
AcDbLine
10
603.244458220757
20
236.07002435353368
30
0
11
603.244458220757
21
237.07002465176689
31
0
0
LINE
5
664
100
AcDbEntity
8
0
100
AcDbLine
10
312.02345822075745
20
192.92002435353493
30
0
11
307.02345822075762
21
192.92002435353493
31
0
0
LINE
5
665
100
AcDbEntity
8
0
100
AcDbLine
10
475.18740715783792
20
151.6649280926909
30
0
11
472.48455517720748
21
164.38084690223067
31
0
0
SPLINE
5
666
100
AcDbEntity
8
0
100
AcDbSpline
70
0
71
3
72
8
73
4
74
0
42
0.000000001
43
0.0000000001
44
0.0000000001
40
0
40
0
40
0
40
0
40
1
40
1
40
1
40
1
10
469.42459027894353
20
167.8783084613018
30
0
10
469.96480628191222
20
167.9931349174521
30
0
10
470.30965264500935
20
168.5241517498842
30
0
10
470.194826188859
20
169.06436775285354
30
0
0
SPLINE
5
667
100
AcDbEntity
8
0
100
AcDbSpline
70
0
71
3
72
8
73
4
74
0
42
0.000000001
43
0.0000000001
44
0.0000000001
40
0
40
0
40
0
40
0
40
1
40
1
40
1
40
1
10
453.24075977858598
20
204.41360408140463
30
0
10
453.35558623473639
20
203.87338807843591
30
0
10
453.88660306716906
20
203.52854171533852
30
0
10
454.4268190701377
20
203.64336817148882
30
0
0
SPLINE
5
668
100
AcDbEntity
8
0
100
AcDbSpline
70
0
71
3
72
8
73
4
74
0
42
0.000000001
43
0.0000000001
44
0.0000000001
40
0
40
0
40
0
40
0
40
1
40
1
40
1
40
1
10
471.52459027894315
20
226.74830846130192
30
0
10
472.06480628191184
20
226.86313491745193
30
0
10
472.40965264500971
20
227.39415174988463
30
0
10
472.29482618885947
20
227.93436775285323
30
0
0
SPLINE
5
669
100
AcDbEntity
8
0
100
AcDbSpline
70
0
71
3
72
8
73
4
74
0
42
0.000000001
43
0.0000000001
44
0.0000000001
40
0
40
0
40
0
40
0
40
1
40
1
40
1
40
1
10
460.13605539868888
20
199.68743458176203
30
0
10
459.59583939572019
20
199.57260812561202
30
0
10
459.25099303262243
20
199.04159129317932
30
0
10
459.36581948877267
20
198.5013752902106
30
0
0
SPLINE
5
670
100
AcDbEntity
8
0
100
AcDbSpline
70
0
71
3
72
8
73
4
74
0
42
0.000000001
43
0.0000000001
44
0.0000000001
40
0
40
0
40
0
40
0
40
1
40
1
40
1
40
1
10
467.69988589904608
20
180.80213896165901
30
0
10
467.58505944289641
20
181.34235496462767
30
0
10
467.05404261046368
20
181.6872013277254
30
0
10
466.51382660749442
20
181.57237487157519
30
0
0
SPLINE
5
671
100
AcDbEntity
8
0
100
AcDbSpline
70
0
71
3
72
8
73
4
74
0
42
0.000000001
43
0.0000000001
44
0.0000000001
40
0
40
0
40
0
40
0
40
1
40
1
40
1
40
1
10
458.60075977858617
20
225.02360408140473
30
0
10
458.71558623473646
20
224.48338807843584
30
0
10
459.24660306716902
20
224.13854171533836
30
0
10
459.78681907013771
20
224.2533681714886
30
0
0
SPLINE
5
672
100
AcDbEntity
8
0
100
AcDbSpline
70
0
71
3
72
8
73
4
74
0
42
0.000000001
43
0.0000000001
44
0.0000000001
40
0
40
0
40
0
40
0
40
1
40
1
40
1
40
1
10
473.40976719266791
20
183.03815229184062
30
0
10
472.86955118969922
20
182.92332583569032
30
0
10
472.52470482660209
20
182.39230900325762
30
0
10
472.63953128275239
20
181.85209300028896
30
0
0
SPLINE
5
673
100
AcDbEntity
8
0
100
AcDbSpline
70
0
71
3
72
8
73
4
74
0
42
0.000000001
43
0.0000000001
44
0.0000000001
40
0
40
0
40
0
40
0
40
1
40
1
40
1
40
1
10
475.13447157256536
20
170.11432179148284
30
0
10
475.24929802871497
20
169.57410578851409
30
0
10
475.78031486114776
20
169.22925942541701
30
0
10
476.32053086411639
20
169.34408588156731
30
0
0
SPLINE
5
674
100
AcDbEntity
8
0
100
AcDbSpline
70
0
71
3
72
8
73
4
74
0
42
0.000000001
43
0.0000000001
44
0.0000000001
40
0
40
0
40
0
40
0
40
1
40
1
40
1
40
1
10
493.41830207292264
20
192.44902617138047
30
0
10
493.95851807589116
20
192.56385262753003
30
0
10
494.30336443898841
20
193.09486945996269
30
0
10
494.18853798283885
20
193.63508546293144
30
0
0
SPLINE
5
675
100
AcDbEntity
8
0
100
AcDbSpline
70
0
71
3
72
8
73
4
74
0
42
0.000000001
43
0.0000000001
44
0.0000000001
40
0
40
0
40
0
40
0
40
1
40
1
40
1
40
1
10
480.49447157256486
20
190.72432179148291
30
0
10
480.60929802871522
20
190.18410578851419
30
0
10
481.14031486114783
20
189.83925942541714
30
0
10
481.68053086411641
20
189.9540858815667
30
0
0
SPLINE
5
676
100
AcDbEntity
8
0
100
AcDbSpline
70
0
71
3
72
8
73
4
74
0
42
0.000000001
43
0.0000000001
44
0.0000000001
40
0
40
0
40
0
40
0
40
1
40
1
40
1
40
1
10
491.69359769302514
20
205.37285667173734
30
0
10
491.57877123687484
20
205.91307267470623
30
0
10
491.04775440444286
20
206.25791903780367
30
0
10
490.50753840147337
20
206.14309258165343
30
0
0
SPLINE
5
677
100
AcDbEntity
8
0
100
AcDbSpline
70
0
71
3
72
8
73
4
74
0
42
0.000000001
43
0.0000000001
44
0.0000000001
40
0
40
0
40
0
40
0
40
1
40
1
40
1
40
1
10
484.79830207292224
20
210.09902617138022
30
0
10
485.33851807589087
20
210.21385262753017
30
0
10
485.6833644389888
20
210.74486945996296
30
0
10
485.56853798283839
20
211.28508546293162
30
0
0
SPLINE
5
678
100
AcDbEntity
8
0
100
AcDbSpline
70
0
71
3
72
8
73
4
74
0
42
0.000000001
43
0.0000000001
44
0.0000000001
40
0
40
0
40
0
40
0
40
1
40
1
40
1
40
1
10
488.43359769302549
20
243.63285667173722
30
0
10
488.31877123687519
20
244.17307267470619
30
0
10
487.78775440444235
20
244.51791903780361
30
0
10
487.24753840147389
20
244.40309258165337
30
0
0
SPLINE
5
679
100
AcDbEntity
8
0
100
AcDbSpline
70
0
71
3
72
8
73
4
74
0
42
0.000000001
43
0.0000000001
44
0.0000000001
40
0
40
0
40
0
40
0
40
1
40
1
40
1
40
1
10
492.04347898664696
20
186.99887000191842
30
0
10
491.50326298367821
20
186.88404354576872
30
0
10
491.15841662058051
20
186.35302671333602
30
0
10
491.27324307673064
20
185.81281071036739
30
0
0
SPLINE
5
680
100
AcDbEntity
8
0
100
AcDbSpline
70
0
71
3
72
8
73
4
74
0
42
0.000000001
43
0.0000000001
44
0.0000000001
40
0
40
0
40
0
40
0
40
1
40
1
40
1
40
1
10
510.32730948700419
20
209.33357438181571
30
0
10
510.21248303085395
20
209.87379038478474
30
0
10
509.68146619842116
20
210.21863674788182
30
0
10
509.14125019545253
20
210.1038102917318
30
0
0
SPLINE
5
681
100
AcDbEntity
8
0
100
AcDbSpline
70
0
71
3
72
8
73
4
74
0
42
0.000000001
43
0.0000000001
44
0.0000000001
40
0
40
0
40
0
40
0
40
1
40
1
40
1
40
1
10
490.15830207292231
20
230.70902617138
30
0
10
490.69851807589089
20
230.82385262753036
30
0
10
491.04336443898876
20
231.35486945996303
30
0
10
490.92853798283841
20
231.89508546293169
30
0
0
SPLINE
5
682
100
AcDbEntity
8
0
100
AcDbSpline
70
0
71
3
72
8
73
4
74
0
42
0.000000001
43
0.0000000001
44
0.0000000001
40
0
40
0
40
0
40
0
40
1
40
1
40
1
40
1
10
504.96730948700417
20
188.72357438181592
30
0
10
504.8524830308537
20
189.2637903847845
30
0
10
504.32146619842172
20
189.60863674788169
30
0
10
503.78125019545234
20
189.49381029173199
30
0
0
SPLINE
5
683
100
AcDbEntity
8
0
100
AcDbSpline
70
0
71
3
72
8
73
4
74
0
42
0.000000001
43
0.0000000001
44
0.0000000001
40
0
40
0
40
0
40
0
40
1
40
1
40
1
40
1
10
497.40347898664686
20
207.60887000191849
30
0
10
496.86326298367828
20
207.49404354576853
30
0
10
496.51841662058064
20
206.96302671333584
30
0
10
496.63324307673088
20
206.4228107103672
30
0
0
SPLINE
5
684
100
AcDbEntity
8
0
100
AcDbSpline
70
0
71
3
72
8
73
4
74
0
42
0.000000001
43
0.0000000001
44
0.0000000001
40
0
40
0
40
0
40
0
40
1
40
1
40
1
40
1
10
506.69201386690105
20
175.79974388145871
30
0
10
507.23222986987025
20
175.9145703376083
30
0
10
507.57707623296739
20
176.44558717004099
30
0
10
507.46224977681715
20
176.98580317300969
30
0
0
SPLINE
5
685
100
AcDbEntity
8
0
100
AcDbSpline
70
0
71
3
72
8
73
4
74
0
42
0.000000001
43
0.0000000001
44
0.0000000001
40
0
40
0
40
0
40
0
40
1
40
1
40
1
40
1
10
461.86075977858587
20
186.76360408140442
30
0
10
461.97558623473606
20
186.22338807843585
30
0
10
462.50660306716867
20
185.8785417153386
30
0
10
463.04681907013742
20
185.99336817148833
30
0
0
SPLINE
5
686
100
AcDbEntity
8
0
100
AcDbSpline
70
0
71
3
72
8
73
4
74
0
42
0.000000001
43
0.0000000001
44
0.0000000001
40
0
40
0
40
0
40
0
40
1
40
1
40
1
40
1
10
466.16459027894325
20
206.13830846130182
30
0
10
466.70480628191257
20
206.25313491745209
30
0
10
467.04965264500964
20
206.78415174988453
30
0
10
466.93482618885935
20
207.32436775285339
30
0
0
SPLINE
5
687
100
AcDbEntity
8
0
100
AcDbSpline
70
0
71
3
72
8
73
4
74
0
42
0.000000001
43
0.0000000001
44
0.0000000001
40
0
40
0
40
0
40
0
40
1
40
1
40
1
40
1
10
478.76976719266793
20
203.64815229184043
30
0
10
478.22955118969924
20
203.53332583569011
30
0
10
477.88470482660216
20
203.00230900325769
30
0
10
477.99953128275183
20
202.4620930002888
30
0
0
SPLINE
5
688
100
AcDbEntity
8
0
100
AcDbSpline
70
0
71
3
72
8
73
4
74
0
42
0.000000001
43
0.0000000001
44
0.0000000001
40
0
40
0
40
0
40
0
40
1
40
1
40
1
40
1
10
474.78459027894354
20
188.48830846130195
30
0
10
475.32480628191229
20
188.60313491745219
30
0
10
475.66965264500936
20
189.1341517498843
30
0
10
475.55482618885901
20
189.67436775285361
30
0
0
SPLINE
5
689
100
AcDbEntity
8
0
100
AcDbSpline
70
0
71
3
72
8
73
4
74
0
42
0.000000001
43
0.0000000001
44
0.0000000001
40
0
40
0
40
0
40
0
40
1
40
1
40
1
40
1
10
456.87605539868918
20
237.94743458176188
30
0
10
456.33583939571997
20
237.83260812561164
30
0
10
455.99099303262284
20
237.30159129317917
30
0
10
456.10581948877297
20
236.7613752902102
30
0
0
SPLINE
5
690
100
AcDbEntity
8
0
100
AcDbSpline
70
0
71
3
72
8
73
4
74
0
42
0.000000001
43
0.0000000001
44
0.0000000001
40
0
40
0
40
0
40
0
40
1
40
1
40
1
40
1
10
486.33359769302501
20
184.76285667173741
30
0
10
486.2187712368754
20
185.30307267470607
30
0
10
485.68775440444267
20
185.64791903780321
30
0
10
485.14753840147398
20
185.53309258165359
30
0
0
SPLINE
5
691
100
AcDbEntity
8
0
100
AcDbSpline
70
0
71
3
72
8
73
4
74
0
42
0.000000001
43
0.0000000001
44
0.0000000001
40
0
40
0
40
0
40
0
40
1
40
1
40
1
40
1
10
483.07359769302536
20
223.02285667173743
30
0
10
482.95877123687518
20
223.56307267470643
30
0
10
482.42775440444234
20
223.90791903780354
30
0
10
481.88753840147371
20
223.79309258165321
30
0
0
SPLINE
5
692
100
AcDbEntity
8
0
100
AcDbSpline
70
0
71
3
72
8
73
4
74
0
42
0.000000001
43
0.0000000001
44
0.0000000001
40
0
40
0
40
0
40
0
40
1
40
1
40
1
40
1
10
473.05988589904609
20
201.41213896165908
30
0
10
472.94505944289585
20
201.95235496462783
30
0
10
472.41404261046313
20
202.29720132772519
30
0
10
471.87382660749444
20
202.18237487157501
30
0
0
SPLINE
5
693
100
AcDbEntity
8
0
100
AcDbSpline
70
0
71
3
72
8
73
4
74
0
42
0.000000001
43
0.0000000001
44
0.0000000001
40
0
40
0
40
0
40
0
40
1
40
1
40
1
40
1
10
488.05830207292189
20
171.83902617138031
30
0
10
488.59851807589121
20
171.95385262753052
30
0
10
488.9433644389884
20
172.4848694599626
30
0
10
488.82853798283804
20
173.02508546293194
30
0
0
SPLINE
5
694
100
AcDbEntity
8
0
100
AcDbSpline
70
0
71
3
72
8
73
4
74
0
42
0.000000001
43
0.0000000001
44
0.0000000001
40
0
40
0
40
0
40
0
40
1
40
1
40
1
40
1
10
477.23447157256516
20
228.98432179148318
30
0
10
477.34929802871534
20
228.44410578851421
30
0
10
477.88031486114818
20
228.09925942541682
30
0
10
478.42053086411681
20
228.214085881567
30
0
0
SPLINE
5
695
100
AcDbEntity
8
0
100
AcDbSpline
70
0
71
3
72
8
73
4
74
0
42
0.000000001
43
0.0000000001
44
0.0000000001
40
0
40
0
40
0
40
0
40
1
40
1
40
1
40
1
10
469.79988589904644
20
239.67213896165913
30
0
10
469.68505944289609
20
240.2123549646281
30
0
10
469.15404261046348
20
240.55720132772521
30
0
10
468.61382660749473
20
240.44237487157488
30
0
0
SPLINE
5
696
100
AcDbEntity
8
0
100
AcDbSpline
70
0
71
3
72
8
73
4
74
0
42
0.000000001
43
0.0000000001
44
0.0000000001
40
0
40
0
40
0
40
0
40
1
40
1
40
1
40
1
10
470.14976719266821
20
221.29815229184018
30
0
10
469.60955118969889
20
221.1833258356902
30
0
10
469.2647048266017
20
220.65230900325747
30
0
10
469.37953128275205
20
220.11209300028861
30
0
0
SPLINE
5
697
100
AcDbEntity
8
0
100
AcDbSpline
70
0
71
3
72
8
73
4
74
0
42
0.000000001
43
0.0000000001
44
0.0000000001
40
0
40
0
40
0
40
0
40
1
40
1
40
1
40
1
10
475.50976719266765
20
241.90815229184037
30
0
10
474.96955118969885
20
241.79332583569007
30
0
10
474.62470482660194
20
241.26230900325763
30
0
10
474.73953128275213
20
240.72209300028874
30
0
0
SPLINE
5
698
100
AcDbEntity
8
0
100
AcDbSpline
70
0
71
3
72
8
73
4
74
0
42
0.000000001
43
0.0000000001
44
0.0000000001
40
0
40
0
40
0
40
0
40
1
40
1
40
1
40
1
10
493.76818336654367
20
174.07503950156124
30
0
10
493.88300982269408
20
173.53482349859249
30
0
10
494.4140266551268
20
173.18997713549544
30
0
10
494.95424265809538
20
173.30480359164505
30
0
0
SPLINE
5
699
100
AcDbEntity
8
0
100
AcDbSpline
70
0
71
3
72
8
73
4
74
0
42
0.000000001
43
0.0000000001
44
0.0000000001
40
0
40
0
40
0
40
0
40
1
40
1
40
1
40
1
10
499.12818336654379
20
194.68503950156133
30
0
10
499.24300982269415
20
194.1448234985927
30
0
10
499.77402665512682
20
193.79997713549494
30
0
10
500.3142426580954
20
193.91480359164521
30
0
0
SPLINE
5
700
100
AcDbEntity
8
0
100
AcDbSpline
70
0
71
3
72
8
73
4
74
0
42
0.000000001
43
0.0000000001
44
0.0000000001
40
0
40
0
40
0
40
0
40
1
40
1
40
1
40
1
10
503.4320138669014
20
214.05974388145836
30
0
10
503.9722298698706
20
214.1745703376086
30
0
10
504.31707623296774
20
214.70558717004135
30
0
10
504.20224977681744
20
215.24580317301002
30
0
0
SPLINE
5
701
100
AcDbEntity
8
0
100
AcDbSpline
70
0
71
3
72
8
73
4
74
0
42
0.000000001
43
0.0000000001
44
0.0000000001
40
0
40
0
40
0
40
0
40
1
40
1
40
1
40
1
10
454.77605539868881
20
179.07743458176211
30
0
10
454.23583939572029
20
178.96260812561192
30
0
10
453.89099303262242
20
178.43159129317908
30
0
10
454.00581948877266
20
177.8913752902105
30
0
0
SPLINE
5
702
100
AcDbEntity
8
0
100
AcDbSpline
70
0
71
3
72
8
73
4
74
0
42
0.000000001
43
0.0000000001
44
0.0000000001
40
0
40
0
40
0
40
0
40
1
40
1
40
1
40
1
10
490.50818336654413
20
212.33503950156151
30
0
10
490.62300982269443
20
211.79482349859251
30
0
10
491.15402665512647
20
211.449977135495
30
0
10
491.69424265809567
20
211.56480359164533
30
0
0
SPLINE
5
703
100
AcDbEntity
8
0
100
AcDbSpline
70
0
71
3
72
8
73
4
74
0
42
0.000000001
43
0.0000000001
44
0.0000000001
40
0
40
0
40
0
40
0
40
1
40
1
40
1
40
1
10
501.70730948700452
20
226.9835743818158
30
0
10
501.59248303085411
20
227.52379038478452
30
0
10
501.06146619842144
20
227.86863674788191
30
0
10
500.52125019545264
20
227.75381029173167
30
0
0
SPLINE
5
704
100
AcDbEntity
8
0
100
AcDbSpline
70
0
71
3
72
8
73
4
74
0
42
0.000000001
43
0.0000000001
44
0.0000000001
40
0
40
0
40
0
40
0
40
1
40
1
40
1
40
1
10
495.86818336654409
20
232.94503950156133
30
0
10
495.98300982269444
20
232.40482349859263
30
0
10
496.51402665512649
20
232.0599771354951
30
0
10
497.05424265809592
20
232.1748035916454
30
0
0
SPLINE
5
705
100
AcDbEntity
8
0
100
AcDbSpline
70
0
71
3
72
8
73
4
74
0
42
0.000000001
43
0.0000000001
44
0.0000000001
40
0
40
0
40
0
40
0
40
1
40
1
40
1
40
1
10
512.05201386690101
20
196.40974388145821
30
0
10
512.59222986987038
20
196.52457033760842
30
0
10
512.93707623296746
20
197.05558717004124
30
0
10
512.82224977681722
20
197.59580317300981
30
0
0
SPLINE
5
706
100
AcDbEntity
8
0
100
AcDbSpline
70
0
71
3
72
8
73
4
74
0
42
0.000000001
43
0.0000000001
44
0.0000000001
40
0
40
0
40
0
40
0
40
1
40
1
40
1
40
1
10
464.43988589904632
20
219.062138961659
30
0
10
464.32505944289619
20
219.60235496462792
30
0
10
463.79404261046341
20
219.94720132772514
30
0
10
463.25382660749472
20
219.8323748715751
30
0
0
SPLINE
5
707
100
AcDbEntity
8
0
100
AcDbSpline
70
0
71
3
72
8
73
4
74
0
42
0.000000001
43
0.0000000001
44
0.0000000001
40
0
40
0
40
0
40
0
40
1
40
1
40
1
40
1
10
471.87447157256514
20
208.374321791483
30
0
10
471.98929802871538
20
207.83410578851414
30
0
10
472.52031486114737
20
207.48925942541692
30
0
10
473.06053086411674
20
207.60408588156693
30
0
0
SPLINE
5
708
100
AcDbEntity
8
0
100
AcDbSpline
70
0
71
3
72
8
73
4
74
0
42
0.000000001
43
0.0000000001
44
0.0000000001
40
0
40
0
40
0
40
0
40
1
40
1
40
1
40
1
10
451.51605539868922
20
217.3374345817621
30
0
10
450.97583939572053
20
217.22260812561183
30
0
10
450.63099303262271
20
216.69159129317939
30
0
10
450.74581948877295
20
216.15137529021052
30
0
0
SPLINE
5
709
100
AcDbEntity
8
0
100
AcDbSpline
70
0
71
3
72
8
73
4
74
0
42
0.000000001
43
0.0000000001
44
0.0000000001
40
0
40
0
40
0
40
0
40
1
40
1
40
1
40
1
10
475.07719078062536
20
163.90958771199689
30
0
10
474.53697477765672
20
163.79476125584671
30
0
10
474.19212841455965
20
163.26374442341401
30
0
10
474.30695487070983
20
162.72352842044535
30
0
0
SPLINE
5
710
100
AcDbEntity
8
0
100
AcDbSpline
70
0
71
3
72
8
73
4
74
0
42
0.000000001
43
0.0000000001
44
0.0000000001
40
0
40
0
40
0
40
0
40
1
40
1
40
1
40
1
10
508.79201386690136
20
234.66974388145843
30
0
10
509.33222986987016
20
234.78457033760867
30
0
10
509.67707623296775
20
235.31558717004111
30
0
10
509.56224977681745
20
235.85580317301009
30
0
0
SPLINE
5
711
100
AcDbEntity
8
0
100
AcDbSpline
70
0
71
3
72
8
73
4
74
0
42
0.000000001
43
0.0000000001
44
0.0000000001
40
0
40
0
40
0
40
0
40
1
40
1
40
1
40
1
10
507.06730948700448
20
247.59357438181564
30
0
10
506.95248303085418
20
248.13379038478459
30
0
10
506.42146619842151
20
248.47863674788212
30
0
10
505.88125019545288
20
248.36381029173182
30
0
0
SPLINE
5
712
100
AcDbEntity
8
0
100
AcDbSpline
70
0
71
3
72
8
73
4
74
0
42
0.000000001
43
0.0000000001
44
0.0000000001
40
0
40
0
40
0
40
0
40
1
40
1
40
1
40
1
10
489.72572566087996
20
152.7104615915373
30
0
10
490.26594166384939
20
152.82528804768759
30
0
10
490.61078802694647
20
153.35630488011958
30
0
10
490.49596157079611
20
153.89652088308893
30
0
0
SPLINE
5
713
100
AcDbEntity
8
0
100
AcDbSpline
70
0
71
3
72
8
73
4
74
0
42
0.000000001
43
0.0000000001
44
0.0000000001
40
0
40
0
40
0
40
0
40
1
40
1
40
1
40
1
10
488.00102128098251
20
165.63429209189448
30
0
10
487.88619482483284
20
166.17450809486311
30
0
10
487.35517799240017
20
166.51935445796033
30
0
10
486.81496198943159
20
166.4045280018106
30
0
0
SPLINE
5
714
100
AcDbEntity
8
0
100
AcDbSpline
70
0
71
3
72
8
73
4
74
0
42
0.000000001
43
0.0000000001
44
0.0000000001
40
0
40
0
40
0
40
0
40
1
40
1
40
1
40
1
10
517.211895160523
20
158.0457572116396
30
0
10
517.32672161667324
20
157.50554120867091
30
0
10
517.85773844910614
20
157.16069484557309
30
0
10
518.39795445207471
20
157.27552130172342
30
0
0
SPLINE
5
715
100
AcDbEntity
8
0
100
AcDbSpline
70
0
71
3
72
8
73
4
74
0
42
0.000000001
43
0.0000000001
44
0.0000000001
40
0
40
0
40
0
40
0
40
1
40
1
40
1
40
1
10
476.80189516052286
20
150.98575721163979
30
0
10
476.91672161667327
20
150.4455412086711
30
0
10
477.44773844910583
20
150.10069484557332
30
0
10
477.98795445207452
20
150.21552130172358
30
0
0
SPLINE
5
716
100
AcDbEntity
8
0
100
AcDbSpline
70
0
71
3
72
8
73
4
74
0
42
0.000000001
43
0.0000000001
44
0.0000000001
40
0
40
0
40
0
40
0
40
1
40
1
40
1
40
1
10
494.14347898664664
20
245.86887000191868
30
0
10
493.60326298367795
20
245.7540435457685
30
0
10
493.25841662058082
20
245.2230267133358
30
0
10
493.37324307673049
20
244.68281071036711
30
0
0
SPLINE
5
717
100
AcDbEntity
8
0
100
AcDbSpline
70
0
71
3
72
8
73
4
74
0
42
0.000000001
43
0.0000000001
44
0.0000000001
40
0
40
0
40
0
40
0
40
1
40
1
40
1
40
1
10
488.7834789866472
20
225.25887000191861
30
0
10
488.24326298367794
20
225.1440435457684
30
0
10
487.89841662058097
20
224.61302671333598
30
0
10
488.0132430767311
20
224.07281071036704
30
0
0
LINE
5
718
100
AcDbEntity
8
0
100
AcDbLine
10
283.42145822075298
20
158.09002465176701
30
0
11
354.78644234983017
21
158.09002465176701
31
0
0
ARC
5
719
100
AcDbEntity
8
0
100
AcDbCircle
10
283.42145822075292
20
253.49002465176707
30
0
40
2.4999999999999645
210
0
220
-0
230
1
100
AcDbArc
50
89.999999999998693
51
180
0
ARC
5
720
100
AcDbEntity
8
0
100
AcDbCircle
10
283.42145822075292
20
160.59002465176695
30
0
40
2.4999999999999645
210
0
220
0
230
1
100
AcDbArc
50
180
51
270.00000000000131
0
ARC
5
721
100
AcDbEntity
8
0
100
AcDbCircle
10
617.22020822075342
20
160.54202465176698
30
0
40
2.5
210
-0
220
0
230
1
100
AcDbArc
50
-90
51
0
0
ARC
5
722
100
AcDbEntity
8
0
100
AcDbCircle
10
617.22020822075342
20
253.49002465176707
30
0
40
2.4999999999999289
210
0
220
0
230
1
100
AcDbArc
50
0
51
90
0
LINE
5
723
100
AcDbEntity
8
0
100
AcDbLine
10
617.22020822075342
20
158.04202465176698
30
0
11
545.13065184642107
21
158.04202465176701
31
0
0
LINE
5
724
100
AcDbEntity
8
0
100
AcDbLine
10
449.03189976666465
20
138.16923724455131
30
0
11
355.82600080391887
21
157.98076265543611
31
0
0
LINE
5
725
100
AcDbEntity
8
0
100
AcDbLine
10
451.11101667484218
20
138.16923724455131
30
0
11
544.0910933923326
21
157.93276265543599
31
0
0
LINE
5
726
100
AcDbEntity
8
0
100
AcDbLine
10
617.22020822075342
20
255.99002465176699
30
0
11
283.42145822075298
21
255.99002465176704
31
0
0
LINE
5
727
100
AcDbEntity
8
0
100
AcDbLine
10
601.70945822075896
20
191.9200243535349
30
0
11
601.70945822075896
21
192.92002465176708
31
0
0
LINE
5
728
100
AcDbEntity
8
0
100
AcDbLine
10
602.70945822075896
20
193.92002465176714
30
0
11
603.94020822075345
21
193.92002465176711
31
0
0
ARC
5
729
100
AcDbEntity
8
0
100
AcDbCircle
10
602.70945822075896
20
192.92002465176711
30
0
40
1.0000000000000142
210
0
220
-0
230
1
100
AcDbArc
50
90
51
180
0
LINE
5
730
100
AcDbEntity
8
0
100
AcDbLine
10
617.22020822075342
20
153.54202465176698
30
0
11
545.91893361090843
21
153.54202465176701
31
0
0
LINE
5
731
100
AcDbEntity
8
0
100
AcDbLine
10
617.22020822075342
20
262.24002465176699
30
0
11
283.42145822075292
21
262.24002465176704
31
0
0
ARC
5
732
100
AcDbEntity
8
0
100
AcDbCircle
10
617.22020822075342
20
156.04202465176695
30
0
40
2.5
210
-0
220
0
230
1
100
AcDbArc
50
-90
51
0
0
ARC
5
733
100
AcDbEntity
8
0
100
AcDbCircle
10
617.22020822075342
20
259.7400246517671
30
0
40
2.4999999999999289
210
0
220
0
230
1
100
AcDbArc
50
0
51
90
0
ARC
5
734
100
AcDbEntity
8
0
100
AcDbCircle
10
283.42145822075292
20
259.7400246517671
30
0
40
2.4999999999999645
210
0
220
-0
230
1
100
AcDbArc
50
89.999999999998693
51
180
0
ARC
5
735
100
AcDbEntity
8
0
100
AcDbCircle
10
283.42145822075292
20
156.09002465176695
30
0
40
2.4999999999999645
210
0
220
0
230
1
100
AcDbArc
50
180
51
270.00000000000131
0
LINE
5
736
100
AcDbEntity
8
0
100
AcDbLine
10
280.92145822075298
20
156.09002465176695
30
0
11
280.92145822075298
21
259.7400246517671
31
0
0
LINE
5
737
100
AcDbEntity
8
0
100
AcDbLine
10
619.72020822075342
20
156.04202465176695
30
0
11
619.72020822075342
21
259.7400246517671
31
0
0
LINE
5
738
100
AcDbEntity
8
0
100
AcDbLine
10
439.52787082123842
20
135.76757304124988
30
0
11
460.61504561973464
21
135.76757304124786
31
0
0
ARC
5
739
100
AcDbEntity
8
0
100
AcDbCircle
10
439.52787082123973
20
143.7675730412501
30
0
40
8.0000000000002292
210
0
220
0
230
1
100
AcDbArc
50
258.00000000000074
51
269.99999999999068
0
ARC
5
740
100
AcDbEntity
8
0
100
AcDbCircle
10
460.61504561973595
20
143.76757304124848
30
0
40
8.0000000000006466
210
0
220
0
230
1
100
AcDbArc
50
269.99999999999068
51
281.99999999991365
0
LINE
5
741
100
AcDbEntity
8
0
100
AcDbLine
10
353.99816058533895
20
153.59002465176704
30
0
11
283.42145822075298
21
153.59002465176698
31
0
0
LINE
5
742
100
AcDbEntity
8
0
100
AcDbLine
10
355.66145411187955
20
153.41520545763771
30
0
11
437.86457729469771
21
135.9423922353794
31
0
0
ARC
5
743
100
AcDbEntity
8
0
100
AcDbCircle
10
353.99816058533935
20
145.59002465177437
30
0
40
7.9999999999926512
210
0
220
-0
230
1
100
AcDbArc
50
78.000000000002544
51
90.000000000002842
0
LINE
5
744
100
AcDbEntity
8
0
100
AcDbLine
10
544.25564008437823
20
153.36720545763995
30
0
11
462.27833914626638
21
135.94239223537488
31
0
0
ARC
5
745
100
AcDbEntity
8
0
100
AcDbCircle
10
545.91893361090843
20
145.54202465176695
30
0
40
8.0000000000000782
210
0
220
-0
230
1
100
AcDbArc
50
90
51
101.99999999991299
0
ENDSEC
0
SECTION
2
OBJECTS
0
DICTIONARY
5
C
100
AcDbDictionary
3
ACAD_GROUP
350
D
3
ACAD_MLINESTYLE
350
17
0
DICTIONARY
5
D
100
AcDbDictionary
0
DICTIONARY
5
1A
330
C
100
AcDbDictionary
0
DICTIONARY
5
17
100
AcDbDictionary
0
ENDSEC
0
EOF
